STARTFONT 2.1
COMMENT Font converted from OTF to BDF.
FONT -FreeType-Comfortaa-Medium-R-Normal--27-200-96-96-P-147-ISO10646-1
SIZE 20 96 96
FONTBOUNDINGBOX 57 42 -23 -7
STARTPROPERTIES 19
POINT_SIZE 200
PIXEL_SIZE 27
RESOLUTION_X 96
RESOLUTION_Y 96
FONT_ASCENT 23
FONT_DESCENT 6
AVERAGE_WIDTH 147
SPACING "P"
FOUNDRY "FreeType"
FAMILY_NAME "Comfortaa"
CHARSET_REGISTRY "ISO10646"
CHARSET_ENCODING "1"
WEIGHT_NAME "Medium"
SLANT "R"
SETWIDTH_NAME "Normal"
COPYRIGHT "Copyright 2011 The Comfortaa Project Authors (aajohan@gmail.com), with Reserved Font Name "Comfortaa"."
_TTF_PSNAME "Comfortaa-Regular"
_OTF_FONTFILE "Comfortaa-Regular.ttf"
_GBDFED_INFO "Edited with gbdfed 1.6."
ENDPROPERTIES
CHARS 837
STARTCHAR char0
ENCODING 0
SWIDTH 0 0
DWIDTH 0 0
BBX 0 0 0 0
BITMAP
ENDCHAR
STARTCHAR char13
ENCODING 13
SWIDTH 26 0
DWIDTH 8 0
BBX 0 0 0 0
BITMAP
ENDCHAR
STARTCHAR char32
ENCODING 32
SWIDTH 26 0
DWIDTH 8 0
BBX 0 0 0 0
BITMAP
ENDCHAR
STARTCHAR char33
ENCODING 33
SWIDTH 23 0
DWIDTH 7 0
BBX 3 21 1 0
BITMAP
60
60
60
60
60
60
60
60
60
60
60
60
60
60
60
60
00
00
60
E0
60
ENDCHAR
STARTCHAR char34
ENCODING 34
SWIDTH 23 0
DWIDTH 7 0
BBX 5 6 1 15
BITMAP
D8
D8
D8
D8
C8
C8
ENDCHAR
STARTCHAR char35
ENCODING 35
SWIDTH 29 0
DWIDTH 19 0
BBX 17 21 1 0
BITMAP
030600
030600
030600
060600
060C00
060C00
3FFF80
7FFF80
0C0C00
0C1800
0C1800
0C1800
7FFF00
FFFF00
181800
183000
183000
183000
183000
183000
302000
ENDCHAR
STARTCHAR char36
ENCODING 36
SWIDTH 19 0
DWIDTH 16 0
BBX 14 26 1 -2
BITMAP
0100
0100
0100
0FE0
3FF0
3138
6118
6108
6100
6100
3100
3900
1F80
07E0
0178
0118
011C
010C
010C
C10C
E118
7138
3FF0
0FC0
0100
0100
ENDCHAR
STARTCHAR char37
ENCODING 37
SWIDTH 9 0
DWIDTH 23 0
BBX 21 21 1 0
BITMAP
1E0060
7F80E0
61C1C0
C0C180
C0C380
C0C700
C0CE00
61CC00
7F9C00
1E3800
0073C0
00E7E0
00CC30
01D818
039818
071818
061818
0E1818
1C0C30
380FF0
3003C0
ENDCHAR
STARTCHAR char38
ENCODING 38
SWIDTH 29 0
DWIDTH 19 0
BBX 17 21 1 0
BITMAP
0F0000
1FC000
30C000
306000
206000
306000
30C000
18C000
0D8000
070000
0F0000
198000
30C100
606300
C03600
C01C00
C01C00
E03600
60E300
3FC180
1F0180
ENDCHAR
STARTCHAR char39
ENCODING 39
SWIDTH 13 0
DWIDTH 4 0
BBX 2 6 1 15
BITMAP
C0
C0
C0
C0
C0
C0
ENDCHAR
STARTCHAR char40
ENCODING 40
SWIDTH 23 0
DWIDTH 7 0
BBX 6 27 1 -6
BITMAP
08
1C
18
30
30
30
60
60
60
60
60
E0
E0
C0
C0
C0
60
60
60
60
60
30
30
38
18
1C
08
ENDCHAR
STARTCHAR char41
ENCODING 41
SWIDTH 23 0
DWIDTH 7 0
BBX 5 27 0 -6
BITMAP
C0
E0
60
70
30
30
30
18
18
18
18
18
18
18
18
18
18
18
18
18
30
30
30
70
60
E0
C0
ENDCHAR
STARTCHAR char42
ENCODING 42
SWIDTH 33 0
DWIDTH 10 0
BBX 8 8 1 13
BITMAP
18
18
5B
FF
3C
3C
76
66
ENDCHAR
STARTCHAR char43
ENCODING 43
SWIDTH 16 0
DWIDTH 15 0
BBX 13 13 1 4
BITMAP
0600
0600
0600
0600
0600
0600
FFF8
FFF0
0600
0600
0600
0600
0600
ENDCHAR
STARTCHAR char44
ENCODING 44
SWIDTH 20 0
DWIDTH 6 0
BBX 4 7 1 -4
BITMAP
60
F0
70
70
20
60
40
ENDCHAR
STARTCHAR char45
ENCODING 45
SWIDTH 33 0
DWIDTH 10 0
BBX 8 2 1 6
BITMAP
FF
FF
ENDCHAR
STARTCHAR char46
ENCODING 46
SWIDTH 20 0
DWIDTH 6 0
BBX 3 3 1 0
BITMAP
60
E0
60
ENDCHAR
STARTCHAR char47
ENCODING 47
SWIDTH 9 0
DWIDTH 13 0
BBX 10 23 1 -2
BITMAP
0040
00C0
00C0
01C0
0180
0180
0300
0300
0700
0600
0600
0E00
0C00
1C00
1800
1800
3800
3000
7000
6000
6000
E000
C000
ENDCHAR
STARTCHAR char48
ENCODING 48
SWIDTH 16 0
DWIDTH 15 0
BBX 13 21 1 0
BITMAP
0F80
1FC0
38E0
3070
6030
6030
6038
E018
C018
C018
C018
C018
C018
E018
6038
6030
6030
3070
38E0
1FC0
0F80
ENDCHAR
STARTCHAR char49
ENCODING 49
SWIDTH 33 0
DWIDTH 10 0
BBX 6 21 1 0
BITMAP
0C
7C
FC
4C
0C
0C
0C
0C
0C
0C
0C
0C
0C
0C
0C
0C
0C
0C
0C
0C
04
ENDCHAR
STARTCHAR char50
ENCODING 50
SWIDTH 19 0
DWIDTH 16 0
BBX 12 21 2 0
BITMAP
1F00
3FC0
70E0
E060
C070
C030
C030
0070
0060
00E0
01C0
0180
0300
0700
0E00
1C00
3800
3000
6000
FFF0
FFF0
ENDCHAR
STARTCHAR char51
ENCODING 51
SWIDTH 19 0
DWIDTH 16 0
BBX 13 21 1 0
BITMAP
0780
1FE0
3870
7030
6018
6010
0030
0060
03C0
03E0
0070
0038
0018
4018
C018
6018
6018
6038
3870
1FE0
0FC0
ENDCHAR
STARTCHAR char52
ENCODING 52
SWIDTH 23 0
DWIDTH 17 0
BBX 16 21 0 0
BITMAP
0018
0038
0038
0078
00F8
01D8
0398
0318
0618
0E18
1C18
1818
3018
7018
FFFF
7FFF
0018
0018
0018
0018
0018
ENDCHAR
STARTCHAR char53
ENCODING 53
SWIDTH 23 0
DWIDTH 17 0
BBX 13 21 2 0
BITMAP
7FF0
7FF0
6000
6000
6000
6000
6000
7F80
7FE0
0070
0030
0018
0018
C018
C018
C018
C018
6030
7070
3FE0
0F80
ENDCHAR
STARTCHAR char54
ENCODING 54
SWIDTH 16 0
DWIDTH 15 0
BBX 12 21 2 0
BITMAP
0180
0180
0300
0700
0600
0C00
1C00
1800
3F00
3FC0
70E0
E070
C030
C030
C030
C030
C030
E070
70E0
3FC0
1F80
ENDCHAR
STARTCHAR char55
ENCODING 55
SWIDTH 16 0
DWIDTH 15 0
BBX 13 21 1 0
BITMAP
FFF8
FFF8
0038
0030
0070
0060
00E0
00C0
01C0
0180
0180
0300
0300
0600
0600
0E00
0C00
1C00
1800
3800
3000
ENDCHAR
STARTCHAR char56
ENCODING 56
SWIDTH 19 0
DWIDTH 16 0
BBX 12 21 2 0
BITMAP
0F00
3FC0
70C0
6060
6060
6060
6060
70C0
3FC0
3FC0
70E0
E060
C030
C030
C030
C030
C030
E060
70E0
3FC0
1F00
ENDCHAR
STARTCHAR char57
ENCODING 57
SWIDTH 16 0
DWIDTH 15 0
BBX 13 21 1 0
BITMAP
0F80
3FE0
7070
6030
E030
C018
C018
C018
E030
6030
78E0
3FE0
0FC0
01C0
0180
0300
0700
0600
0E00
1C00
0800
ENDCHAR
STARTCHAR char58
ENCODING 58
SWIDTH 16 0
DWIDTH 5 0
BBX 3 15 1 0
BITMAP
E0
E0
E0
00
00
00
00
00
00
00
00
00
E0
E0
E0
ENDCHAR
STARTCHAR char59
ENCODING 59
SWIDTH 16 0
DWIDTH 5 0
BBX 4 19 1 -4
BITMAP
E0
E0
E0
00
00
00
00
00
00
00
00
00
60
F0
70
70
20
60
40
ENDCHAR
STARTCHAR char60
ENCODING 60
SWIDTH 16 0
DWIDTH 15 0
BBX 13 15 1 2
BITMAP
0038
0070
01E0
03C0
0F00
3C00
7800
E000
7800
3C00
0F00
03C0
01E0
0078
0030
ENDCHAR
STARTCHAR char61
ENCODING 61
SWIDTH 13 0
DWIDTH 14 0
BBX 11 8 1 5
BITMAP
FFE0
FFE0
0000
0000
0000
0000
FFE0
FFE0
ENDCHAR
STARTCHAR char62
ENCODING 62
SWIDTH 16 0
DWIDTH 15 0
BBX 13 15 1 2
BITMAP
C000
F000
7800
1E00
0780
03C0
00F0
0038
00F0
03C0
0780
1E00
7800
F000
C000
ENDCHAR
STARTCHAR char63
ENCODING 63
SWIDTH 16 0
DWIDTH 15 0
BBX 13 21 1 0
BITMAP
0F80
3FE0
7070
6030
C030
C038
C030
0030
0030
0060
00C0
0180
0300
0300
0600
0600
0000
0000
0600
0700
0600
ENDCHAR
STARTCHAR char64
ENCODING 64
SWIDTH 29 0
DWIDTH 29 0
BBX 27 27 1 -6
BITMAP
003FC000
01FFF000
07C07C00
0F000E00
1C000700
38000380
301F0180
707FC0C0
60E0E0C0
61C070E0
C1803060
C1803860
C3001860
C3001860
C3001860
C1803860
C1803860
61C078E0
60E0F8C0
707FD9C0
301F1F80
38000F00
1C000000
0E000000
07C07000
01FFF000
003FC000
ENDCHAR
STARTCHAR char65
ENCODING 65
SWIDTH 29 0
DWIDTH 19 0
BBX 18 21 0 0
BITMAP
004000
00E000
00E000
01F000
01B000
03B000
031800
031800
060C00
060C00
0E0E00
0C0600
1C0600
180300
1FFF00
3FFF80
300180
700180
6000C0
E000C0
4000C0
ENDCHAR
STARTCHAR char66
ENCODING 66
SWIDTH 29 0
DWIDTH 19 0
BBX 14 21 3 0
BITMAP
FFC0
FFE0
C070
C038
C018
C018
C018
C030
C070
FFE0
FFF0
C038
C01C
C00C
C00C
C00C
C00C
C01C
C038
FFF0
FFC0
ENDCHAR
STARTCHAR char67
ENCODING 67
SWIDTH 2 0
DWIDTH 21 0
BBX 17 21 2 0
BITMAP
01F800
07FE00
1E0780
380100
700000
600000
E00000
C00000
C00000
C00000
C00000
C00000
C00000
C00000
E00000
600000
700000
380180
1E0780
07FF00
01F800
ENDCHAR
STARTCHAR char68
ENCODING 68
SWIDTH 2 0
DWIDTH 21 0
BBX 16 21 3 0
BITMAP
FF80
FFE0
C078
C01C
C00C
C00E
C006
C007
C003
C003
C003
C003
C003
C007
C006
C00E
C00C
C01C
C078
FFE0
FF80
ENDCHAR
STARTCHAR char69
ENCODING 69
SWIDTH 26 0
DWIDTH 18 0
BBX 14 21 3 0
BITMAP
FFFC
FFFC
C000
C000
C000
C000
C000
C000
C000
FFE0
FFE0
C000
C000
C000
C000
C000
C000
C000
C000
FFFC
FFFC
ENDCHAR
STARTCHAR char70
ENCODING 70
SWIDTH 23 0
DWIDTH 17 0
BBX 15 21 1 0
BITMAP
FFFE
FFFC
C000
C000
C000
C000
C000
C000
C000
FFE0
FFE0
C000
C000
C000
C000
C000
C000
C000
C000
C000
C000
ENDCHAR
STARTCHAR char71
ENCODING 71
SWIDTH 2 0
DWIDTH 21 0
BBX 17 21 2 0
BITMAP
01F800
07FF00
1E0780
380100
700000
600000
E00000
C00000
C00000
C00000
C03F80
C03F80
C00180
C00180
E00180
600180
700180
380180
1E0780
07FE00
01F800
ENDCHAR
STARTCHAR char72
ENCODING 72
SWIDTH 9 0
DWIDTH 23 0
BBX 17 21 3 0
BITMAP
C00180
C00180
C00180
C00180
C00180
C00180
C00180
C00180
C00180
FFFF80
FFFF80
C00180
C00180
C00180
C00180
C00180
C00180
C00180
C00180
C00180
C00180
ENDCHAR
STARTCHAR char73
ENCODING 73
SWIDTH 23 0
DWIDTH 7 0
BBX 2 21 3 0
BITMAP
C0
C0
C0
C0
C0
C0
C0
C0
C0
C0
C0
C0
C0
C0
C0
C0
C0
C0
C0
C0
C0
ENDCHAR
STARTCHAR char74
ENCODING 74
SWIDTH 19 0
DWIDTH 16 0
BBX 13 21 1 0
BITMAP
0018
0018
0018
0018
0018
0018
0018
0018
0018
0018
0018
0018
0018
0018
C018
C018
E030
6030
7070
3FE0
0F80
ENDCHAR
STARTCHAR char75
ENCODING 75
SWIDTH 23 0
DWIDTH 17 0
BBX 13 21 3 0
BITMAP
C018
C038
C070
C0E0
C1C0
C380
C700
CE00
DC00
FC00
FE00
E600
C700
C380
C180
C0C0
C0E0
C070
C030
C018
C018
ENDCHAR
STARTCHAR char76
ENCODING 76
SWIDTH 23 0
DWIDTH 17 0
BBX 13 21 3 0
BITMAP
C000
C000
C000
C000
C000
C000
C000
C000
C000
C000
C000
C000
C000
C000
C000
C000
C000
C000
C000
FFF8
FFF8
ENDCHAR
STARTCHAR char77
ENCODING 77
SWIDTH 19 0
DWIDTH 26 0
BBX 21 21 3 0
BITMAP
C00010
C00038
E00038
E00078
F00078
F000F8
F800F8
D801B8
DC01B8
CC0338
CC0338
C60638
C60638
C30C38
C30C38
C19838
C19838
C0F038
C0F038
C06038
C06010
ENDCHAR
STARTCHAR char78
ENCODING 78
SWIDTH 5 0
DWIDTH 22 0
BBX 16 21 3 0
BITMAP
C003
C003
E003
F003
F803
D803
CC03
C603
C703
C303
C183
C0C3
C0E3
C063
C033
C01B
C01F
C00F
C007
C003
C003
ENDCHAR
STARTCHAR char79
ENCODING 79
SWIDTH 15 0
DWIDTH 25 0
BBX 21 21 2 0
BITMAP
01FC00
07FF00
1E0380
3801C0
700060
600070
E00030
C00038
C00018
C00018
C00018
C00018
C00018
C00038
E00030
600070
700060
3801C0
1E0380
07FF00
01FC00
ENDCHAR
STARTCHAR char80
ENCODING 80
SWIDTH 19 0
DWIDTH 16 0
BBX 13 21 3 0
BITMAP
FF80
FFE0
C0E0
C030
C030
C018
C018
C018
C030
C030
C0E0
FFC0
FF00
C000
C000
C000
C000
C000
C000
C000
C000
ENDCHAR
STARTCHAR char81
ENCODING 81
SWIDTH 15 0
DWIDTH 25 0
BBX 21 21 2 0
BITMAP
01FC00
07FF00
1E0380
3801C0
700060
600070
E00030
C00038
C00018
C00018
C00018
C00018
C00018
C00C38
E00E30
600770
7003E0
3801C0
1E03E0
07FF70
01FC30
ENDCHAR
STARTCHAR char82
ENCODING 82
SWIDTH 19 0
DWIDTH 16 0
BBX 13 21 3 0
BITMAP
FF00
FFC0
C0E0
C070
C030
C030
C030
C030
C030
C070
C0E0
FFC0
FF00
C180
C1C0
C0C0
C0E0
C060
C030
C038
C018
ENDCHAR
STARTCHAR char83
ENCODING 83
SWIDTH 26 0
DWIDTH 18 0
BBX 14 21 2 0
BITMAP
0FC0
3FF0
7038
6018
C008
C000
E000
6000
3800
1F80
07F0
0078
0018
000C
000C
000C
C00C
C018
7038
3FF0
0FC0
ENDCHAR
STARTCHAR char84
ENCODING 84
SWIDTH 23 0
DWIDTH 17 0
BBX 17 21 0 0
BITMAP
FFFF80
7FFF80
00C000
00C000
00C000
00C000
00C000
00C000
00C000
00C000
00C000
00C000
00C000
00C000
00C000
00C000
00C000
00C000
00C000
00C000
00C000
ENDCHAR
STARTCHAR char85
ENCODING 85
SWIDTH 5 0
DWIDTH 22 0
BBX 16 21 3 0
BITMAP
C003
C003
C003
C003
C003
C003
C003
C003
C003
C003
C003
C003
C003
C003
C003
C003
E007
600E
781C
1FF8
07E0
ENDCHAR
STARTCHAR char86
ENCODING 86
SWIDTH 29 0
DWIDTH 19 0
BBX 18 21 1 0
BITMAP
800080
C001C0
C00180
E00380
600300
700300
300600
300600
180E00
180C00
1C0C00
0C1800
0C1800
063000
063000
037000
036000
036000
01C000
01C000
008000
ENDCHAR
STARTCHAR char87
ENCODING 87
SWIDTH 15 0
DWIDTH 25 0
BBX 23 21 1 0
BITMAP
800002
C03806
C03806
C03806
E0280E
606C0C
606C0C
606C0C
30C418
30C618
30C618
18C630
198330
198330
198330
0D0160
0F01E0
0F01E0
0701C0
0600C0
0600C0
ENDCHAR
STARTCHAR char88
ENCODING 88
SWIDTH 29 0
DWIDTH 19 0
BBX 17 21 1 0
BITMAP
600100
600300
300700
380E00
180C00
0C1800
0E3800
073000
036000
03E000
01C000
03E000
077000
063000
0E3800
1C1C00
180C00
300600
700700
E00380
C00180
ENDCHAR
STARTCHAR char89
ENCODING 89
SWIDTH 23 0
DWIDTH 17 0
BBX 17 21 0 0
BITMAP
C00180
E00180
600300
700700
300600
180E00
1C0C00
0C1800
063800
073000
036000
03E000
01C000
00C000
00C000
00C000
00C000
00C000
00C000
00C000
00C000
ENDCHAR
STARTCHAR char90
ENCODING 90
SWIDTH 29 0
DWIDTH 19 0
BBX 17 21 1 0
BITMAP
FFFF80
7FFF80
000300
000600
000E00
001C00
001800
003000
006000
00E000
01C000
018000
030000
060000
0E0000
0C0000
180000
300000
600000
FFFF80
FFFF80
ENDCHAR
STARTCHAR char91
ENCODING 91
SWIDTH 26 0
DWIDTH 8 0
BBX 6 27 2 -6
BITMAP
FC
FC
C0
C0
C0
C0
C0
C0
C0
C0
C0
C0
C0
C0
C0
C0
C0
C0
C0
C0
C0
C0
C0
C0
C0
FC
FC
ENDCHAR
STARTCHAR char92
ENCODING 92
SWIDTH 9 0
DWIDTH 13 0
BBX 11 23 1 -2
BITMAP
C000
C000
6000
6000
7000
3000
3000
3800
1800
1C00
0C00
0C00
0E00
0600
0700
0300
0300
0380
0180
0180
00C0
00C0
00E0
ENDCHAR
STARTCHAR char93
ENCODING 93
SWIDTH 26 0
DWIDTH 8 0
BBX 6 27 0 -6
BITMAP
FC
FC
0C
0C
0C
0C
0C
0C
0C
0C
0C
0C
0C
0C
0C
0C
0C
0C
0C
0C
0C
0C
0C
0C
0C
FC
FC
ENDCHAR
STARTCHAR char94
ENCODING 94
SWIDTH 9 0
DWIDTH 13 0
BBX 11 9 1 13
BITMAP
0400
0E00
1E00
1F00
3B80
3180
61C0
E0E0
C040
ENDCHAR
STARTCHAR char95
ENCODING 95
SWIDTH 9 0
DWIDTH 13 0
BBX 15 2 -1 -2
BITMAP
FFFE
FFFE
ENDCHAR
STARTCHAR char96
ENCODING 96
SWIDTH 23 0
DWIDTH 7 0
BBX 5 5 1 16
BITMAP
C0
E0
70
38
18
ENDCHAR
STARTCHAR char97
ENCODING 97
SWIDTH 26 0
DWIDTH 18 0
BBX 14 15 2 0
BITMAP
0FC0
3FF0
7838
6018
C00C
C00C
C00C
C00C
C00C
C00C
C00C
601C
783C
3FEC
0FC4
ENDCHAR
STARTCHAR char98
ENCODING 98
SWIDTH 29 0
DWIDTH 19 0
BBX 15 21 2 0
BITMAP
4000
C000
C000
C000
C000
C000
C7E0
CFF0
D838
F00C
E00E
E006
E006
C006
C006
6006
600E
700C
3838
1FF0
07E0
ENDCHAR
STARTCHAR char99
ENCODING 99
SWIDTH 19 0
DWIDTH 16 0
BBX 12 15 2 0
BITMAP
0F80
3FE0
7070
6030
C000
C000
C000
C000
C000
C000
C000
6000
7030
3FE0
0FC0
ENDCHAR
STARTCHAR char100
ENCODING 100
SWIDTH 29 0
DWIDTH 19 0
BBX 14 21 2 0
BITMAP
0004
000C
000C
000C
000C
000C
0F8C
3FEC
783C
601C
C00C
C00C
C00C
C00C
C00C
C00C
C00C
6018
7838
3FF0
0FC0
ENDCHAR
STARTCHAR char101
ENCODING 101
SWIDTH 19 0
DWIDTH 16 0
BBX 13 15 2 0
BITMAP
0F80
3FE0
7070
6038
C018
C018
FFF8
FFF8
C000
C000
C000
6000
7030
3FF0
0FC0
ENDCHAR
STARTCHAR char102
ENCODING 102
SWIDTH 33 0
DWIDTH 10 0
BBX 9 21 1 0
BITMAP
0780
0F80
1C00
1800
3800
3000
3000
FF00
FF00
3000
3000
3000
3000
3000
3000
3000
3000
3000
3000
3000
3000
ENDCHAR
STARTCHAR char103
ENCODING 103
SWIDTH 26 0
DWIDTH 18 0
BBX 14 21 2 -6
BITMAP
0FC0
3FF0
7038
6018
C00C
C00C
C00C
C00C
C00C
C00C
C00C
601C
703C
3FEC
0F8C
000C
400C
E018
7038
3FF0
0FC0
ENDCHAR
STARTCHAR char104
ENCODING 104
SWIDTH 26 0
DWIDTH 18 0
BBX 14 21 2 0
BITMAP
4000
C000
C000
C000
C000
C000
C7C0
DFF0
F838
E018
E01C
C00C
C00C
C00C
C00C
C00C
C00C
C00C
C00C
C00C
400C
ENDCHAR
STARTCHAR char105
ENCODING 105
SWIDTH 26 0
DWIDTH 8 0
BBX 3 21 2 0
BITMAP
60
E0
60
00
00
00
60
60
60
60
60
60
60
60
60
60
60
60
60
60
60
ENDCHAR
STARTCHAR char106
ENCODING 106
SWIDTH 26 0
DWIDTH 8 0
BBX 8 27 -3 -6
BITMAP
03
07
03
00
00
00
03
03
03
03
03
03
03
03
03
03
03
03
03
03
03
03
07
06
0E
7C
F0
ENDCHAR
STARTCHAR char107
ENCODING 107
SWIDTH 16 0
DWIDTH 15 0
BBX 12 21 2 0
BITMAP
4000
C000
C000
C000
C000
C000
C030
C060
C0C0
C380
C700
CE00
DC00
FE00
F600
E300
C180
C1C0
C0E0
C060
4030
ENDCHAR
STARTCHAR char108
ENCODING 108
SWIDTH 26 0
DWIDTH 8 0
BBX 5 21 2 0
BITMAP
C0
C0
C0
C0
C0
C0
C0
C0
C0
C0
C0
C0
C0
C0
C0
C0
C0
C0
C0
78
38
ENDCHAR
STARTCHAR char109
ENCODING 109
SWIDTH 15 0
DWIDTH 25 0
BBX 21 15 2 0
BITMAP
4F87C0
DFCFE0
F0F870
E07038
E03018
C03018
C03018
C03018
C03018
C03018
C03018
C03018
C03018
C03018
403018
ENDCHAR
STARTCHAR char110
ENCODING 110
SWIDTH 26 0
DWIDTH 18 0
BBX 14 15 2 0
BITMAP
47C0
DFF0
F838
E018
E01C
C00C
C00C
C00C
C00C
C00C
C00C
C00C
C00C
C00C
400C
ENDCHAR
STARTCHAR char111
ENCODING 111
SWIDTH 26 0
DWIDTH 18 0
BBX 14 15 2 0
BITMAP
0FC0
3FF0
7838
6018
C00C
C00C
C00C
C00C
C00C
C00C
C00C
6018
7838
3FF0
0FC0
ENDCHAR
STARTCHAR char112
ENCODING 112
SWIDTH 29 0
DWIDTH 19 0
BBX 15 21 2 -6
BITMAP
07E0
1FF0
3838
700C
600E
6006
C006
C006
E006
E006
E00E
F00C
D838
CFF0
C7E0
C000
C000
C000
C000
C000
4000
ENDCHAR
STARTCHAR char113
ENCODING 113
SWIDTH 29 0
DWIDTH 19 0
BBX 14 21 2 -6
BITMAP
0FC0
3FF0
7838
6018
C00C
C00C
C00C
C00C
C00C
C00C
C00C
601C
783C
3FEC
0FCC
000C
000C
000C
000C
000C
0004
ENDCHAR
STARTCHAR char114
ENCODING 114
SWIDTH 6 0
DWIDTH 12 0
BBX 9 15 2 0
BITMAP
4780
DF80
F000
E000
E000
C000
C000
C000
C000
C000
C000
C000
C000
C000
4000
ENDCHAR
STARTCHAR char115
ENCODING 115
SWIDTH 13 0
DWIDTH 14 0
BBX 11 15 2 0
BITMAP
1F00
7FC0
E0E0
C060
C000
E000
7C00
1F80
01C0
0060
0060
8060
E0E0
7FC0
1F00
ENDCHAR
STARTCHAR char116
ENCODING 116
SWIDTH 2 0
DWIDTH 11 0
BBX 9 20 1 0
BITMAP
1000
3000
3000
3000
3000
3000
FF00
FF00
3000
3000
3000
3000
3000
3000
3000
3000
3800
1800
0F80
0780
ENDCHAR
STARTCHAR char117
ENCODING 117
SWIDTH 26 0
DWIDTH 18 0
BBX 14 15 2 0
BITMAP
C008
C00C
C00C
C00C
C00C
C00C
C00C
C00C
C00C
C00C
E01C
601C
707C
3FEC
0F88
ENDCHAR
STARTCHAR char118
ENCODING 118
SWIDTH 16 0
DWIDTH 15 0
BBX 14 15 0 0
BITMAP
4004
E00C
600C
7018
3018
3030
1830
1870
0C60
0CE0
06C0
06C0
0380
0380
0100
ENDCHAR
STARTCHAR char119
ENCODING 119
SWIDTH 33 0
DWIDTH 20 0
BBX 19 15 0 0
BITMAP
C06020
606060
60E060
60F060
30F0C0
30B0C0
3198C0
119980
191980
1B0980
1B0F00
0F0F00
0E0700
0E0600
060600
ENDCHAR
STARTCHAR char120
ENCODING 120
SWIDTH 16 0
DWIDTH 15 0
BBX 13 15 1 0
BITMAP
C010
E030
7070
30E0
18C0
1D80
0F00
0700
0F00
1D80
18C0
30E0
6070
E030
C018
ENDCHAR
STARTCHAR char121
ENCODING 121
SWIDTH 16 0
DWIDTH 15 0
BBX 14 21 0 -6
BITMAP
C004
600C
600C
3018
3018
1830
1830
0C70
0C60
06E0
06C0
07C0
0380
0380
0300
0300
0600
0600
0E00
0C00
0C00
ENDCHAR
STARTCHAR char122
ENCODING 122
SWIDTH 16 0
DWIDTH 15 0
BBX 12 15 2 0
BITMAP
FFE0
FFE0
00E0
01C0
0180
0300
0700
0E00
0C00
1800
3000
7000
6000
FFE0
FFF0
ENDCHAR
STARTCHAR char123
ENCODING 123
SWIDTH 33 0
DWIDTH 10 0
BBX 9 27 1 -6
BITMAP
0780
0F80
0C00
0C00
0C00
0C00
0C00
0C00
0C00
0C00
0C00
1800
7800
F800
1800
1C00
0C00
0C00
0C00
0C00
0C00
0C00
0C00
0C00
0C00
0F80
0780
ENDCHAR
STARTCHAR char124
ENCODING 124
SWIDTH 33 0
DWIDTH 10 0
BBX 2 27 4 -6
BITMAP
C0
C0
C0
C0
C0
C0
C0
C0
C0
C0
C0
C0
C0
C0
C0
C0
C0
C0
C0
C0
C0
C0
C0
C0
C0
C0
C0
ENDCHAR
STARTCHAR char125
ENCODING 125
SWIDTH 33 0
DWIDTH 10 0
BBX 9 27 0 -6
BITMAP
F000
7800
1800
1800
1C00
1C00
1C00
1C00
1C00
1C00
1C00
0C00
0F00
0F80
0C00
0C00
1C00
1C00
1C00
1C00
1C00
1C00
1C00
1800
1800
7800
F000
ENDCHAR
STARTCHAR char126
ENCODING 126
SWIDTH 9 0
DWIDTH 13 0
BBX 11 3 1 8
BITMAP
3C40
FFE0
C7C0
ENDCHAR
STARTCHAR char160
ENCODING 160
SWIDTH 26 0
DWIDTH 8 0
BBX 0 0 0 0
BITMAP
ENDCHAR
STARTCHAR char161
ENCODING 161
SWIDTH 23 0
DWIDTH 7 0
BBX 3 21 3 -6
BITMAP
C0
E0
C0
00
00
C0
C0
C0
C0
C0
C0
C0
C0
C0
C0
C0
C0
C0
C0
C0
C0
ENDCHAR
STARTCHAR char162
ENCODING 162
SWIDTH 19 0
DWIDTH 16 0
BBX 12 20 2 -2
BITMAP
0060
0040
00C0
0FC0
3FE0
71F0
61B0
C100
C300
C200
C600
C600
C400
CC00
6C00
7830
3FE0
1FC0
3000
3000
ENDCHAR
STARTCHAR char163
ENCODING 163
SWIDTH 13 0
DWIDTH 14 0
BBX 13 21 1 0
BITMAP
0F80
1FC0
30E0
7060
6000
6000
6000
3000
3000
3000
FF80
FF80
1800
3800
3800
3000
3000
3018
3038
7FF0
7FF0
ENDCHAR
STARTCHAR char164
ENCODING 164
SWIDTH 9 0
DWIDTH 13 0
BBX 11 11 1 5
BITMAP
C060
FFE0
7FC0
71C0
60C0
60C0
60C0
71C0
7FC0
FFE0
C060
ENDCHAR
STARTCHAR char165
ENCODING 165
SWIDTH 23 0
DWIDTH 17 0
BBX 17 21 0 0
BITMAP
C00180
E00180
600300
300700
380600
180C00
1C0C00
0C1800
063800
073000
036000
0FFC00
1FFC00
00C000
00C000
1FFC00
0FFC00
00C000
00C000
00C000
00C000
ENDCHAR
STARTCHAR char166
ENCODING 166
SWIDTH 20 0
DWIDTH 6 0
BBX 2 30 2 -6
BITMAP
C0
C0
C0
C0
C0
C0
C0
C0
C0
C0
C0
C0
00
00
00
00
00
00
00
C0
C0
C0
C0
C0
C0
C0
C0
C0
C0
C0
ENDCHAR
STARTCHAR char167
ENCODING 167
SWIDTH 9 0
DWIDTH 13 0
BBX 11 27 1 -6
BITMAP
1F00
3F80
61C0
E0C0
C0E0
C040
E000
7000
3F00
3F80
61C0
E0C0
C0E0
C0E0
E0C0
71C0
3F80
1F80
01C0
00C0
C0C0
C0E0
C0C0
E0C0
71C0
3F80
1E00
ENDCHAR
STARTCHAR char168
ENCODING 168
SWIDTH 9 0
DWIDTH 13 0
BBX 9 3 2 17
BITMAP
6300
E380
6300
ENDCHAR
STARTCHAR char169
ENCODING 169
SWIDTH 9 0
DWIDTH 23 0
BBX 21 21 1 0
BITMAP
01FC00
07FF00
0E0380
1C00C0
30F860
73FE30
630730
460218
C60018
CC0018
CC0018
CC0018
C60018
460018
630630
73FE30
30F860
1C00C0
0E0380
07FF00
01FC00
ENDCHAR
STARTCHAR char170
ENCODING 170
SWIDTH 9 0
DWIDTH 13 0
BBX 11 11 1 10
BITMAP
1F00
3F80
61C0
E0C0
C0C0
C060
C0E0
E0E0
61E0
3FE0
1E40
ENDCHAR
STARTCHAR char171
ENCODING 171
SWIDTH 9 0
DWIDTH 13 0
BBX 11 15 1 0
BITMAP
1840
18E0
38C0
31C0
7180
6380
E300
C700
E300
6300
7180
3180
38C0
18E0
1840
ENDCHAR
STARTCHAR char172
ENCODING 172
SWIDTH 16 0
DWIDTH 15 0
BBX 13 6 1 9
BITMAP
FFF0
FFF8
0038
0038
0038
0010
ENDCHAR
STARTCHAR char173
ENCODING 173
SWIDTH 33 0
DWIDTH 10 0
BBX 8 2 1 6
BITMAP
FF
FF
ENDCHAR
STARTCHAR char174
ENCODING 174
SWIDTH 9 0
DWIDTH 23 0
BBX 21 21 1 0
BITMAP
01FC00
07FF00
0E0380
1DF8C0
31FC60
710E30
610630
410618
C10618
C10E18
C1FC18
C1F818
C11818
410C18
610E30
710630
310260
1C00C0
0E0380
07FF00
01FC00
ENDCHAR
STARTCHAR char175
ENCODING 175
SWIDTH 16 0
DWIDTH 15 0
BBX 9 2 3 17
BITMAP
FF80
FF80
ENDCHAR
STARTCHAR char176
ENCODING 176
SWIDTH 9 0
DWIDTH 13 0
BBX 10 11 1 11
BITMAP
1E00
3F80
71C0
E0C0
C0C0
C0C0
C0C0
E0C0
61C0
3F80
1E00
ENDCHAR
STARTCHAR char177
ENCODING 177
SWIDTH 16 0
DWIDTH 15 0
BBX 13 17 1 0
BITMAP
0600
0600
0600
0600
0600
FFF0
FFF8
0600
0600
0600
0600
0600
0600
0000
0000
FFF0
FFF8
ENDCHAR
STARTCHAR char178
ENCODING 178
SWIDTH 33 0
DWIDTH 10 0
BBX 8 11 1 10
BITMAP
3C
7E
C6
C6
86
0C
18
30
60
FE
FF
ENDCHAR
STARTCHAR char179
ENCODING 179
SWIDTH 33 0
DWIDTH 10 0
BBX 7 10 1 11
BITMAP
3C
FE
C6
1C
1C
06
C2
C6
7E
3C
ENDCHAR
STARTCHAR char180
ENCODING 180
SWIDTH 23 0
DWIDTH 7 0
BBX 5 5 1 16
BITMAP
18
38
70
E0
C0
ENDCHAR
STARTCHAR char181
ENCODING 181
SWIDTH 26 0
DWIDTH 18 0
BBX 14 21 2 -6
BITMAP
C008
C00C
C00C
C00C
C00C
C00C
C00C
C00C
C00C
C00C
E01C
E01C
F83C
DFEC
C788
C000
C000
C000
C000
C000
C000
ENDCHAR
STARTCHAR char182
ENCODING 182
SWIDTH 16 0
DWIDTH 15 0
BBX 13 21 1 0
BITMAP
1FF8
3FF8
7E30
FE30
FE30
FE30
FE30
7E30
7E30
3E30
0630
0630
0630
0630
0630
0630
0630
0630
0630
0630
0230
ENDCHAR
STARTCHAR char183
ENCODING 183
SWIDTH 16 0
DWIDTH 5 0
BBX 3 3 1 9
BITMAP
E0
E0
E0
ENDCHAR
STARTCHAR char184
ENCODING 184
SWIDTH 26 0
DWIDTH 8 0
BBX 7 8 1 -6
BITMAP
10
18
30
3C
0E
CE
FC
78
ENDCHAR
STARTCHAR char185
ENCODING 185
SWIDTH 23 0
DWIDTH 7 0
BBX 5 11 1 10
BITMAP
30
F8
D8
18
18
18
18
18
18
18
10
ENDCHAR
STARTCHAR char186
ENCODING 186
SWIDTH 9 0
DWIDTH 13 0
BBX 11 11 1 10
BITMAP
1F00
3F80
61C0
E0C0
C0C0
C060
C0C0
E0C0
61C0
3F80
1F00
ENDCHAR
STARTCHAR char187
ENCODING 187
SWIDTH 9 0
DWIDTH 13 0
BBX 11 15 1 0
BITMAP
C600
C700
6300
6380
3180
31C0
18C0
18E0
18C0
31C0
3180
6380
6300
C700
C200
ENDCHAR
STARTCHAR char188
ENCODING 188
SWIDTH 33 0
DWIDTH 20 0
BBX 18 21 1 0
BITMAP
300100
F80300
D80600
180600
180C00
181800
181800
183000
186000
186000
10C100
018380
018780
030D80
061980
063180
0C3FC0
1C7FC0
180180
300180
300100
ENDCHAR
STARTCHAR char189
ENCODING 189
SWIDTH 5 0
DWIDTH 22 0
BBX 20 21 1 0
BITMAP
3000C0
F801C0
D80180
180300
180700
180600
180C00
181C00
181800
183000
1033C0
0067E0
00CC60
00CC20
018460
0300C0
030180
060100
0C0300
0C07F0
1807F0
ENDCHAR
STARTCHAR char190
ENCODING 190
SWIDTH 5 0
DWIDTH 22 0
BBX 20 21 1 0
BITMAP
3C00C0
FE0180
C60180
1C0300
1C0600
060600
C20C00
C61800
7E1800
3C3000
0060C0
0060C0
00C140
018340
018640
030C40
061FF0
061FF0
0C0040
180040
180040
ENDCHAR
STARTCHAR char191
ENCODING 191
SWIDTH 16 0
DWIDTH 15 0
BBX 12 22 1 -5
BITMAP
0600
0700
0600
0000
0000
0600
0600
0600
0E00
0C00
1800
3000
6000
E000
C000
C030
C030
C030
6030
70E0
3FC0
0F80
ENDCHAR
STARTCHAR char192
ENCODING 192
SWIDTH 29 0
DWIDTH 19 0
BBX 18 28 0 0
BITMAP
020000
070000
038000
01C000
00C000
000000
000000
004000
00E000
00E000
01F000
01B000
03B000
031800
031800
060C00
060C00
0E0E00
0C0600
1C0600
180300
1FFF00
3FFF80
300180
700180
6000C0
E000C0
4000C0
ENDCHAR
STARTCHAR char193
ENCODING 193
SWIDTH 29 0
DWIDTH 19 0
BBX 18 28 0 0
BITMAP
001800
003800
007000
00E000
00C000
000000
000000
004000
00E000
00E000
01F000
01B000
03B000
031800
031800
060C00
060C00
0E0E00
0C0600
1C0600
180300
1FFF00
3FFF80
300180
700180
6000C0
E000C0
4000C0
ENDCHAR
STARTCHAR char194
ENCODING 194
SWIDTH 29 0
DWIDTH 19 0
BBX 18 27 0 0
BITMAP
00E000
01F000
07B800
061C00
000000
000000
004000
00E000
00E000
01F000
01B000
03B000
031800
031800
060C00
060C00
0E0E00
0C0600
1C0600
180300
1FFF00
3FFF80
300180
700180
6000C0
E000C0
4000C0
ENDCHAR
STARTCHAR char195
ENCODING 195
SWIDTH 29 0
DWIDTH 19 0
BBX 18 27 0 0
BITMAP
038800
03D800
067800
063000
000000
000000
004000
00E000
00E000
01F000
01B000
03B000
031800
031800
060C00
060C00
0E0E00
0C0600
1C0600
180300
1FFF00
3FFF80
300180
700180
6000C0
E000C0
4000C0
ENDCHAR
STARTCHAR char196
ENCODING 196
SWIDTH 29 0
DWIDTH 19 0
BBX 18 27 0 0
BITMAP
031800
071C00
031800
000000
000000
000000
004000
00E000
00E000
01F000
01B000
03B000
031800
031800
060C00
060C00
0E0E00
0C0600
1C0600
180300
1FFF00
3FFF80
300180
700180
6000C0
E000C0
4000C0
ENDCHAR
STARTCHAR char197
ENCODING 197
SWIDTH 29 0
DWIDTH 19 0
BBX 18 27 0 0
BITMAP
00E000
013000
011000
013000
00E000
000000
004000
00E000
00E000
01F000
01B000
03B000
031800
031800
060C00
060C00
0E0E00
0C0600
1C0600
180300
1FFF00
3FFF80
300180
700180
6000C0
E000C0
4000C0
ENDCHAR
STARTCHAR char198
ENCODING 198
SWIDTH 19 0
DWIDTH 26 0
BBX 24 21 0 0
BITMAP
000FFF
001FFF
001C00
003C00
003C00
006C00
00EC00
00CC00
018C00
018FF8
030FF8
070C00
060C00
0E0C00
0FFC00
1FFC00
380C00
300C00
700C00
600FFF
C00FFF
ENDCHAR
STARTCHAR char199
ENCODING 199
SWIDTH 2 0
DWIDTH 21 0
BBX 17 27 2 -6
BITMAP
01F800
07FE00
1E0780
380100
300000
600000
E00000
C00000
C00000
C00000
C00000
C00000
C00000
C00000
E00000
600000
700000
380180
1E0780
07FF00
01FC00
006000
007000
001800
011800
03F800
01F000
ENDCHAR
STARTCHAR char200
ENCODING 200
SWIDTH 26 0
DWIDTH 18 0
BBX 14 28 3 0
BITMAP
1800
1C00
0E00
0700
0300
0000
0000
FFFC
FFFC
C000
C000
C000
C000
C000
C000
C000
FFE0
FFE0
C000
C000
C000
C000
C000
C000
C000
C000
FFFC
FFFC
ENDCHAR
STARTCHAR char201
ENCODING 201
SWIDTH 26 0
DWIDTH 18 0
BBX 14 28 3 0
BITMAP
0060
00E0
01C0
0380
0300
0000
0000
FFFC
FFFC
C000
C000
C000
C000
C000
C000
C000
FFE0
FFE0
C000
C000
C000
C000
C000
C000
C000
C000
FFFC
FFFC
ENDCHAR
STARTCHAR char202
ENCODING 202
SWIDTH 26 0
DWIDTH 18 0
BBX 14 27 3 0
BITMAP
0300
07C0
1EE0
1860
0000
0000
FFFC
FFFC
C000
C000
C000
C000
C000
C000
C000
FFE0
FFE0
C000
C000
C000
C000
C000
C000
C000
C000
FFFC
FFFC
ENDCHAR
STARTCHAR char203
ENCODING 203
SWIDTH 26 0
DWIDTH 18 0
BBX 14 27 3 0
BITMAP
1860
1CE0
1860
0000
0000
0000
FFFC
FFFC
C000
C000
C000
C000
C000
C000
C000
FFE0
FFE0
C000
C000
C000
C000
C000
C000
C000
C000
FFFC
FFFC
ENDCHAR
STARTCHAR char204
ENCODING 204
SWIDTH 23 0
DWIDTH 7 0
BBX 5 28 0 0
BITMAP
C0
E0
70
38
18
00
00
18
18
18
18
18
18
18
18
18
18
18
18
18
18
18
18
18
18
18
18
18
ENDCHAR
STARTCHAR char205
ENCODING 205
SWIDTH 23 0
DWIDTH 7 0
BBX 5 28 2 0
BITMAP
08
18
30
E0
40
00
00
60
60
60
60
60
60
60
60
60
60
60
60
60
60
60
60
60
60
60
60
60
ENDCHAR
STARTCHAR char206
ENCODING 206
SWIDTH 23 0
DWIDTH 7 0
BBX 8 27 0 0
BITMAP
18
7C
EF
C3
00
00
18
18
18
18
18
18
18
18
18
18
18
18
18
18
18
18
18
18
18
18
18
ENDCHAR
STARTCHAR char207
ENCODING 207
SWIDTH 23 0
DWIDTH 7 0
BBX 9 27 -1 0
BITMAP
6380
E380
6380
0000
0000
0000
0C00
0C00
0C00
0C00
0C00
0C00
0C00
0C00
0C00
0C00
0C00
0C00
0C00
0C00
0C00
0C00
0C00
0C00
0C00
0C00
0C00
ENDCHAR
STARTCHAR char208
ENCODING 208
SWIDTH 2 0
DWIDTH 21 0
BBX 19 21 0 0
BITMAP
1FF000
1FFC00
180F00
180380
180180
1801C0
1800C0
1800E0
180060
FFC060
FFC060
180060
180060
1800E0
1800C0
1801C0
180180
180380
180F00
1FFC00
1FF000
ENDCHAR
STARTCHAR char209
ENCODING 209
SWIDTH 5 0
DWIDTH 22 0
BBX 16 26 3 0
BITMAP
0788
1FFC
1878
0000
0000
C003
C003
E003
F003
F803
D803
CC03
C603
C703
C303
C183
C0C3
C0E3
C063
C033
C01B
C01F
C00F
C007
C003
C003
ENDCHAR
STARTCHAR char210
ENCODING 210
SWIDTH 15 0
DWIDTH 25 0
BBX 21 28 2 0
BITMAP
030000
038000
01C000
00E000
006000
000000
000000
01FC00
07FF00
1E0380
3801C0
700060
600070
E00030
C00038
C00018
C00018
C00018
C00018
C00018
C00038
E00030
600070
700060
3801C0
1E0380
07FF00
01FC00
ENDCHAR
STARTCHAR char211
ENCODING 211
SWIDTH 15 0
DWIDTH 25 0
BBX 21 28 2 0
BITMAP
000C00
001C00
003800
007000
006000
000000
000000
01FC00
07FF00
1E0380
3801C0
700060
600070
E00030
C00038
C00018
C00018
C00018
C00018
C00018
C00038
E00030
600070
700060
3801C0
1E0380
07FF00
01FC00
ENDCHAR
STARTCHAR char212
ENCODING 212
SWIDTH 15 0
DWIDTH 25 0
BBX 21 27 2 0
BITMAP
006000
00F800
03DC00
030C00
000000
000000
01FC00
07FF00
1E0380
3801C0
700060
600070
E00030
C00038
C00018
C00018
C00018
C00018
C00018
C00038
E00030
600070
700060
3801C0
1E0380
07FF00
01FC00
ENDCHAR
STARTCHAR char213
ENCODING 213
SWIDTH 15 0
DWIDTH 25 0
BBX 21 26 2 0
BITMAP
01E100
03FF00
061E00
000000
000000
01FC00
07FF00
1E0380
3801C0
700060
600070
E00030
C00038
C00018
C00018
C00018
C00018
C00018
C00038
E00030
600070
700060
3801C0
1E0380
07FF00
01FC00
ENDCHAR
STARTCHAR char214
ENCODING 214
SWIDTH 15 0
DWIDTH 25 0
BBX 21 27 2 0
BITMAP
038C00
038E00
038C00
000000
000000
000000
01FC00
07FF00
1E0380
3801C0
700060
600070
E00030
C00038
C00018
C00018
C00018
C00018
C00018
C00038
E00030
600070
700060
3801C0
1E0380
07FF00
01FC00
ENDCHAR
STARTCHAR char215
ENCODING 215
SWIDTH 9 0
DWIDTH 13 0
BBX 10 11 1 4
BITMAP
C040
E0C0
71C0
3B80
1F00
0E00
1F00
3B80
71C0
E0C0
C0C0
ENDCHAR
STARTCHAR char216
ENCODING 216
SWIDTH 12 0
DWIDTH 24 0
BBX 21 21 2 0
BITMAP
01FC18
07FF38
1E07F0
3801E0
7001E0
600370
E00630
C00C38
C01818
C03018
C06018
C0C018
C18018
C30038
E60030
6C0070
780060
3801C0
7E0380
C7FF00
81FC00
ENDCHAR
STARTCHAR char217
ENCODING 217
SWIDTH 5 0
DWIDTH 22 0
BBX 16 28 3 0
BITMAP
0C00
0E00
0700
0380
0180
0000
0000
C003
C003
C003
C003
C003
C003
C003
C003
C003
C003
C003
C003
C003
C003
C003
C003
E007
600E
781C
1FF8
07E0
ENDCHAR
STARTCHAR char218
ENCODING 218
SWIDTH 5 0
DWIDTH 22 0
BBX 16 28 3 0
BITMAP
0030
0070
00E0
01C0
0180
0000
0000
C003
C003
C003
C003
C003
C003
C003
C003
C003
C003
C003
C003
C003
C003
C003
C003
E007
600E
781C
1FF8
07E0
ENDCHAR
STARTCHAR char219
ENCODING 219
SWIDTH 5 0
DWIDTH 22 0
BBX 16 27 3 0
BITMAP
0180
07E0
0EF0
0C30
0000
0000
C003
C003
C003
C003
C003
C003
C003
C003
C003
C003
C003
C003
C003
C003
C003
C003
E007
600E
781C
1FF8
07E0
ENDCHAR
STARTCHAR char220
ENCODING 220
SWIDTH 5 0
DWIDTH 22 0
BBX 16 27 3 0
BITMAP
0C30
0E70
0C30
0000
0000
0000
C003
C003
C003
C003
C003
C003
C003
C003
C003
C003
C003
C003
C003
C003
C003
C003
E007
600E
781C
1FF8
07E0
ENDCHAR
STARTCHAR char221
ENCODING 221
SWIDTH 23 0
DWIDTH 17 0
BBX 17 28 0 0
BITMAP
003000
007000
00E000
01C000
008000
000000
000000
C00180
E00180
600300
700700
300600
180E00
1C0C00
0C1800
063800
073000
036000
03E000
01C000
00C000
00C000
00C000
00C000
00C000
00C000
00C000
00C000
ENDCHAR
STARTCHAR char222
ENCODING 222
SWIDTH 19 0
DWIDTH 16 0
BBX 13 21 3 0
BITMAP
C000
C000
C000
FF80
FFC0
C0E0
C030
C030
C018
C018
C018
C038
C030
C0F0
FFE0
FF80
C000
C000
C000
C000
C000
ENDCHAR
STARTCHAR char223
ENCODING 223
SWIDTH 16 0
DWIDTH 15 0
BBX 13 21 1 0
BITMAP
0F00
3FC0
70E0
6060
E060
C060
C060
C0C0
C180
C180
C180
C1C0
C0E0
C070
C030
C018
C018
C038
CC30
CFE0
47C0
ENDCHAR
STARTCHAR char224
ENCODING 224
SWIDTH 26 0
DWIDTH 18 0
BBX 14 22 2 0
BITMAP
1800
1C00
0E00
0700
0300
0000
0000
0FC0
3FF0
7838
6018
C00C
C00C
C00C
C00C
C00C
C00C
C00C
601C
783C
3FEC
0FC4
ENDCHAR
STARTCHAR char225
ENCODING 225
SWIDTH 26 0
DWIDTH 18 0
BBX 14 22 2 0
BITMAP
0060
00E0
01C0
0380
0300
0000
0000
0FC0
3FF0
7838
6018
C00C
C00C
C00C
C00C
C00C
C00C
C00C
601C
783C
3FEC
0FC4
ENDCHAR
STARTCHAR char226
ENCODING 226
SWIDTH 26 0
DWIDTH 18 0
BBX 14 21 2 0
BITMAP
0300
0FC0
1EE0
1860
0000
0000
0FC0
3FF0
7838
6018
C00C
C00C
C00C
C00C
C00C
C00C
C00C
601C
783C
3FEC
0FC4
ENDCHAR
STARTCHAR char227
ENCODING 227
SWIDTH 26 0
DWIDTH 18 0
BBX 14 20 2 0
BITMAP
0F18
3FF8
30F0
0000
0000
0FC0
3FF0
7838
6018
C00C
C00C
C00C
C00C
C00C
C00C
C00C
601C
783C
3FEC
0FC4
ENDCHAR
STARTCHAR char228
ENCODING 228
SWIDTH 26 0
DWIDTH 18 0
BBX 14 21 2 0
BITMAP
1860
1CE0
1860
0000
0000
0000
0FC0
3FF0
7838
6018
C00C
C00C
C00C
C00C
C00C
C00C
C00C
601C
783C
3FEC
0FC4
ENDCHAR
STARTCHAR char229
ENCODING 229
SWIDTH 26 0
DWIDTH 18 0
BBX 14 21 2 0
BITMAP
0780
0480
0CC0
0480
0780
0000
0FC0
3FF0
7838
6018
C00C
C00C
C00C
C00C
C00C
C00C
C00C
601C
783C
3FEC
0FC4
ENDCHAR
STARTCHAR char230
ENCODING 230
SWIDTH 29 0
DWIDTH 29 0
BBX 26 15 2 0
BITMAP
0FC07C00
3FF1FF00
783B8380
601B0180
C00E00C0
C00E00C0
C00FFFC0
C00FFFC0
C00C0000
C00E0000
C00E0000
601F0000
783F8380
3FEDFF00
0F847C00
ENDCHAR
STARTCHAR char231
ENCODING 231
SWIDTH 19 0
DWIDTH 16 0
BBX 12 21 2 -6
BITMAP
0F80
3FE0
7070
6030
C000
C000
C000
C000
C000
C000
C000
6000
7870
1FE0
0780
0700
0780
01C0
18C0
1F80
0F00
ENDCHAR
STARTCHAR char232
ENCODING 232
SWIDTH 19 0
DWIDTH 16 0
BBX 13 22 2 0
BITMAP
1000
3800
1C00
0600
0200
0000
0000
0F80
3FE0
7070
6038
C018
C018
FFF8
FFF8
C000
C000
C000
6000
7030
3FF0
0FC0
ENDCHAR
STARTCHAR char233
ENCODING 233
SWIDTH 19 0
DWIDTH 16 0
BBX 13 22 2 0
BITMAP
00C0
01C0
0380
0700
0600
0000
0000
0F80
3FE0
7070
6038
C018
C018
FFF8
FFF8
C000
C000
C000
6000
7030
3FF0
0FC0
ENDCHAR
STARTCHAR char234
ENCODING 234
SWIDTH 19 0
DWIDTH 16 0
BBX 13 21 2 0
BITMAP
0700
0F80
1DC0
3060
0000
0000
0F80
3FE0
7070
6038
C018
C018
FFF8
FFF8
C000
C000
C000
6000
7030
3FF0
0FC0
ENDCHAR
STARTCHAR char235
ENCODING 235
SWIDTH 19 0
DWIDTH 16 0
BBX 13 21 2 0
BITMAP
18C0
38E0
18C0
0000
0000
0000
0F80
3FE0
7070
6038
C018
C018
FFF8
FFF8
C000
C000
C000
6000
7030
3FF0
0FC0
ENDCHAR
STARTCHAR char236
ENCODING 236
SWIDTH 26 0
DWIDTH 8 0
BBX 5 22 0 0
BITMAP
C0
E0
70
38
18
00
00
18
18
18
18
18
18
18
18
18
18
18
18
18
18
18
ENDCHAR
STARTCHAR char237
ENCODING 237
SWIDTH 26 0
DWIDTH 8 0
BBX 5 22 3 0
BITMAP
10
38
70
E0
C0
00
00
C0
C0
C0
C0
C0
C0
C0
C0
C0
C0
C0
C0
C0
C0
C0
ENDCHAR
STARTCHAR char238
ENCODING 238
SWIDTH 26 0
DWIDTH 8 0
BBX 8 21 0 0
BITMAP
18
7C
E7
C2
00
00
18
18
18
18
18
18
18
18
18
18
18
18
18
18
18
ENDCHAR
STARTCHAR char239
ENCODING 239
SWIDTH 26 0
DWIDTH 8 0
BBX 8 21 0 0
BITMAP
C6
E7
C6
00
00
00
18
18
18
18
18
18
18
18
18
18
18
18
18
18
18
ENDCHAR
STARTCHAR char240
ENCODING 240
SWIDTH 26 0
DWIDTH 18 0
BBX 14 23 2 0
BITMAP
0100
0100
1F00
0F00
07C0
04E0
0C30
0018
0018
0F88
3FEC
707C
E01C
C01C
C00C
C00C
C00C
C00C
C018
E018
7070
3FE0
0F80
ENDCHAR
STARTCHAR char241
ENCODING 241
SWIDTH 26 0
DWIDTH 18 0
BBX 14 20 2 0
BITMAP
0F18
3FF8
30F0
0000
0000
47C0
DFF0
F838
E018
E01C
C00C
C00C
C00C
C00C
C00C
C00C
C00C
C00C
C00C
400C
ENDCHAR
STARTCHAR char242
ENCODING 242
SWIDTH 26 0
DWIDTH 18 0
BBX 14 22 2 0
BITMAP
1800
1C00
0E00
0700
0300
0000
0000
0FC0
3FF0
7838
6018
C00C
C00C
C00C
C00C
C00C
C00C
C00C
6018
7838
3FF0
0FC0
ENDCHAR
STARTCHAR char243
ENCODING 243
SWIDTH 26 0
DWIDTH 18 0
BBX 14 22 2 0
BITMAP
0060
00E0
01C0
0380
0300
0000
0000
0FC0
3FF0
7838
6018
C00C
C00C
C00C
C00C
C00C
C00C
C00C
6018
7838
3FF0
0FC0
ENDCHAR
STARTCHAR char244
ENCODING 244
SWIDTH 26 0
DWIDTH 18 0
BBX 14 21 2 0
BITMAP
0300
0FC0
1EE0
1860
0000
0000
0FC0
3FF0
7838
6018
C00C
C00C
C00C
C00C
C00C
C00C
C00C
6018
7838
3FF0
0FC0
ENDCHAR
STARTCHAR char245
ENCODING 245
SWIDTH 26 0
DWIDTH 18 0
BBX 14 20 2 0
BITMAP
0F18
3FF8
30F0
0000
0000
0FC0
3FF0
7838
6018
C00C
C00C
C00C
C00C
C00C
C00C
C00C
6018
7838
3FF0
0FC0
ENDCHAR
STARTCHAR char246
ENCODING 246
SWIDTH 26 0
DWIDTH 18 0
BBX 14 21 2 0
BITMAP
1860
1CE0
1860
0000
0000
0000
0FC0
3FF0
7838
6018
C00C
C00C
C00C
C00C
C00C
C00C
C00C
6018
7838
3FF0
0FC0
ENDCHAR
STARTCHAR char247
ENCODING 247
SWIDTH 9 0
DWIDTH 13 0
BBX 10 11 1 4
BITMAP
0C00
0E00
0C00
0000
0000
FFC0
FFC0
0000
0C00
0E00
0C00
ENDCHAR
STARTCHAR char248
ENCODING 248
SWIDTH 29 0
DWIDTH 19 0
BBX 15 15 2 0
BITMAP
07C6
1FFE
383C
701C
603C
C066
C0C6
C186
C306
C606
6C0C
781C
7838
FFF0
87C0
ENDCHAR
STARTCHAR char249
ENCODING 249
SWIDTH 26 0
DWIDTH 18 0
BBX 14 22 2 0
BITMAP
1800
1C00
0E00
0700
0300
0000
0000
C008
C00C
C00C
C00C
C00C
C00C
C00C
C00C
C00C
C00C
E01C
601C
707C
3FEC
0F88
ENDCHAR
STARTCHAR char250
ENCODING 250
SWIDTH 26 0
DWIDTH 18 0
BBX 14 22 2 0
BITMAP
0060
00E0
01C0
0380
0300
0000
0000
C008
C00C
C00C
C00C
C00C
C00C
C00C
C00C
C00C
C00C
E01C
601C
707C
3FEC
0F88
ENDCHAR
STARTCHAR char251
ENCODING 251
SWIDTH 26 0
DWIDTH 18 0
BBX 14 21 2 0
BITMAP
0300
0FC0
1EE0
1860
0000
0000
C008
C00C
C00C
C00C
C00C
C00C
C00C
C00C
C00C
C00C
E01C
601C
707C
3FEC
0F88
ENDCHAR
STARTCHAR char252
ENCODING 252
SWIDTH 26 0
DWIDTH 18 0
BBX 14 21 2 0
BITMAP
1860
1CE0
1860
0000
0000
0000
C008
C00C
C00C
C00C
C00C
C00C
C00C
C00C
C00C
C00C
E01C
601C
707C
3FEC
0F88
ENDCHAR
STARTCHAR char253
ENCODING 253
SWIDTH 16 0
DWIDTH 15 0
BBX 14 28 0 -6
BITMAP
0060
00E0
01C0
0380
0300
0000
0000
C004
600C
600C
3018
3018
1830
1830
0C70
0C60
06E0
06C0
07C0
0380
0380
0300
0300
0600
0600
0E00
0C00
0C00
ENDCHAR
STARTCHAR char254
ENCODING 254
SWIDTH 29 0
DWIDTH 19 0
BBX 15 27 2 -6
BITMAP
4000
C000
C000
C000
C000
C000
C3E0
CFF8
D83C
F00C
E00E
E006
C006
C006
C006
E006
E00E
F00C
D83C
CFF8
C7E0
C000
C000
C000
C000
C000
4000
ENDCHAR
STARTCHAR char255
ENCODING 255
SWIDTH 16 0
DWIDTH 15 0
BBX 14 27 0 -6
BITMAP
0C60
1C70
0C60
0000
0000
0000
C004
600C
600C
3018
3018
1830
1830
0C70
0C60
06E0
06C0
07C0
0380
0380
0300
0300
0600
0600
0E00
0C00
0C00
ENDCHAR
STARTCHAR char256
ENCODING 256
SWIDTH 29 0
DWIDTH 19 0
BBX 18 26 0 0
BITMAP
07FC00
07FC00
000000
000000
000000
004000
00E000
00E000
01F000
01B000
03B000
031800
031800
060C00
060C00
0E0E00
0C0600
1C0600
180300
1FFF00
3FFF80
300180
700180
6000C0
E000C0
4000C0
ENDCHAR
STARTCHAR char257
ENCODING 257
SWIDTH 26 0
DWIDTH 18 0
BBX 14 20 2 0
BITMAP
1FE0
1FF0
0000
0000
0000
0FC0
3FF0
7838
6018
C00C
C00C
C00C
C00C
C00C
C00C
C00C
601C
783C
3FEC
0FC4
ENDCHAR
STARTCHAR char258
ENCODING 258
SWIDTH 29 0
DWIDTH 19 0
BBX 18 27 0 0
BITMAP
060800
071C00
03F800
01F000
000000
000000
004000
00E000
00E000
01F000
01B000
03B000
031800
031800
060C00
060C00
0E0E00
0C0600
1C0600
180300
1FFF00
3FFF80
300180
700180
6000C0
E000C0
4000C0
ENDCHAR
STARTCHAR char259
ENCODING 259
SWIDTH 26 0
DWIDTH 18 0
BBX 14 21 2 0
BITMAP
1860
1860
1FE0
0780
0000
0000
0FC0
3FF0
7838
6018
C00C
C00C
C00C
C00C
C00C
C00C
C00C
601C
783C
3FEC
0FC4
ENDCHAR
STARTCHAR char260
ENCODING 260
SWIDTH 29 0
DWIDTH 19 0
BBX 20 27 0 -6
BITMAP
004000
00E000
00E000
01F000
01B000
03B000
031800
031800
060C00
060C00
0E0E00
0C0600
1C0600
180300
1FFF00
3FFF80
300180
700180
6000C0
E000C0
4000C0
0000C0
0001C0
000300
000330
0001F0
0000E0
ENDCHAR
STARTCHAR char261
ENCODING 261
SWIDTH 26 0
DWIDTH 18 0
BBX 17 22 2 -7
BITMAP
0FC000
3FF000
783800
601800
C00C00
C00C00
C00C00
C00C00
C00C00
C00C00
C00C00
601C00
783C00
3FEC00
0FC400
000600
000E00
001C00
001800
001980
000F80
000F00
ENDCHAR
STARTCHAR char262
ENCODING 262
SWIDTH 2 0
DWIDTH 21 0
BBX 17 28 2 0
BITMAP
000C00
001C00
003800
007000
006000
000000
000000
01F800
07FE00
1E0780
380100
700000
600000
E00000
C00000
C00000
C00000
C00000
C00000
C00000
C00000
E00000
600000
700000
380180
1E0780
07FF00
01F800
ENDCHAR
STARTCHAR char263
ENCODING 263
SWIDTH 19 0
DWIDTH 16 0
BBX 12 22 2 0
BITMAP
00C0
01C0
0380
0700
0200
0000
0000
0F80
3FE0
7070
6030
C000
C000
C000
C000
C000
C000
C000
6000
7030
3FE0
0FC0
ENDCHAR
STARTCHAR char264
ENCODING 264
SWIDTH 2 0
DWIDTH 21 0
BBX 17 27 2 0
BITMAP
006000
01F000
03BC00
030C00
000000
000000
01F800
07FE00
1E0780
380100
700000
600000
E00000
C00000
C00000
C00000
C00000
C00000
C00000
C00000
E00000
600000
700000
380180
1E0780
07FF00
01F800
ENDCHAR
STARTCHAR char265
ENCODING 265
SWIDTH 19 0
DWIDTH 16 0
BBX 12 21 2 0
BITMAP
0300
0F80
1DE0
3860
0000
0000
0F80
3FE0
7070
6030
C000
C000
C000
C000
C000
C000
C000
6000
7030
3FE0
0FC0
ENDCHAR
STARTCHAR char266
ENCODING 266
SWIDTH 2 0
DWIDTH 21 0
BBX 17 27 2 0
BITMAP
006000
00E000
006000
000000
000000
000000
01F800
07FE00
1E0780
380100
700000
600000
E00000
C00000
C00000
C00000
C00000
C00000
C00000
C00000
E00000
600000
700000
380180
1E0780
07FF00
01F800
ENDCHAR
STARTCHAR char267
ENCODING 267
SWIDTH 19 0
DWIDTH 16 0
BBX 12 21 2 0
BITMAP
0300
0700
0300
0000
0000
0000
0F80
3FE0
7070
6030
C000
C000
C000
C000
C000
C000
C000
6000
7030
3FE0
0FC0
ENDCHAR
STARTCHAR char268
ENCODING 268
SWIDTH 2 0
DWIDTH 21 0
BBX 17 27 2 0
BITMAP
030C00
039C00
01F000
006000
000000
000000
01F800
07FE00
1E0780
380100
700000
600000
E00000
C00000
C00000
C00000
C00000
C00000
C00000
C00000
E00000
600000
700000
380180
1E0780
07FF00
01F800
ENDCHAR
STARTCHAR char269
ENCODING 269
SWIDTH 19 0
DWIDTH 16 0
BBX 12 21 2 0
BITMAP
3060
1DC0
0F80
0300
0000
0000
0F80
3FE0
7070
6030
C000
C000
C000
C000
C000
C000
C000
6000
7030
3FE0
0FC0
ENDCHAR
STARTCHAR char270
ENCODING 270
SWIDTH 2 0
DWIDTH 21 0
BBX 16 27 3 0
BITMAP
1820
1EE0
07C0
0300
0000
0000
FF80
FFE0
C078
C01C
C00C
C00E
C006
C007
C003
C003
C003
C003
C003
C007
C006
C00E
C00C
C01C
C078
FFE0
FF80
ENDCHAR
STARTCHAR char271
ENCODING 271
SWIDTH 2 0
DWIDTH 21 0
BBX 19 21 2 0
BITMAP
000460
000C60
000C60
000C60
000C60
000CC0
0F8C80
3FEC00
783C00
601C00
C00C00
C00C00
C00C00
C00C00
C00C00
C00C00
C00C00
601800
783800
3FF000
0FC000
ENDCHAR
STARTCHAR char272
ENCODING 272
SWIDTH 2 0
DWIDTH 21 0
BBX 19 21 0 0
BITMAP
1FF000
1FFC00
180F00
180380
180180
1801C0
1800C0
1800E0
180060
FFC060
FFC060
180060
180060
1800E0
1800C0
1801C0
180180
180380
180F00
1FFC00
1FF000
ENDCHAR
STARTCHAR char273
ENCODING 273
SWIDTH 29 0
DWIDTH 19 0
BBX 17 21 2 0
BITMAP
000C00
000C00
01FF80
01FF80
000C00
000C00
0F8C00
3FEC00
783C00
601C00
C00C00
C00C00
C00C00
C00C00
C00C00
C00C00
C00C00
601800
783800
3FF000
0FC000
ENDCHAR
STARTCHAR char274
ENCODING 274
SWIDTH 26 0
DWIDTH 18 0
BBX 14 26 3 0
BITMAP
1FE0
1FF0
0000
0000
0000
FFFC
FFFC
C000
C000
C000
C000
C000
C000
C000
FFE0
FFE0
C000
C000
C000
C000
C000
C000
C000
C000
FFFC
FFFC
ENDCHAR
STARTCHAR char275
ENCODING 275
SWIDTH 19 0
DWIDTH 16 0
BBX 13 20 2 0
BITMAP
3FE0
3FE0
0000
0000
0000
0F80
3FE0
7070
6038
C018
C018
FFF8
FFF8
C000
C000
C000
6000
7030
3FF0
0FC0
ENDCHAR
STARTCHAR char276
ENCODING 276
SWIDTH 26 0
DWIDTH 18 0
BBX 14 27 3 0
BITMAP
1860
1860
0FE0
0780
0000
0000
FFFC
FFFC
C000
C000
C000
C000
C000
C000
C000
FFE0
FFE0
C000
C000
C000
C000
C000
C000
C000
C000
FFFC
FFFC
ENDCHAR
STARTCHAR char277
ENCODING 277
SWIDTH 19 0
DWIDTH 16 0
BBX 13 21 2 0
BITMAP
3040
38E0
1FC0
0F80
0000
0000
0F80
3FE0
7070
6038
C018
C018
FFF8
FFF8
C000
C000
C000
6000
7030
3FF0
0FC0
ENDCHAR
STARTCHAR char278
ENCODING 278
SWIDTH 26 0
DWIDTH 18 0
BBX 14 27 3 0
BITMAP
0300
0380
0300
0000
0000
0000
FFFC
FFFC
C000
C000
C000
C000
C000
C000
C000
FFE0
FFE0
C000
C000
C000
C000
C000
C000
C000
C000
FFFC
FFFC
ENDCHAR
STARTCHAR char279
ENCODING 279
SWIDTH 19 0
DWIDTH 16 0
BBX 13 21 2 0
BITMAP
0700
0700
0700
0000
0000
0000
0F80
3FE0
7070
6038
C018
C018
FFF8
FFF8
C000
C000
C000
6000
7030
3FF0
0FC0
ENDCHAR
STARTCHAR char280
ENCODING 280
SWIDTH 26 0
DWIDTH 18 0
BBX 17 28 3 -7
BITMAP
FFFC00
FFFC00
C00000
C00000
C00000
C00000
C00000
C00000
C00000
FFE000
FFE000
C00000
C00000
C00000
C00000
C00000
C00000
C00000
C00000
FFFC00
FFFC00
000600
000E00
001C00
001800
001980
001F80
000E00
ENDCHAR
STARTCHAR char281
ENCODING 281
SWIDTH 19 0
DWIDTH 16 0
BBX 13 20 2 -5
BITMAP
0F80
3FE0
7070
6038
C018
C018
FFF8
FFF8
C000
C000
C000
6000
7030
3FF0
0FC0
0380
0300
0330
03F0
01E0
ENDCHAR
STARTCHAR char282
ENCODING 282
SWIDTH 26 0
DWIDTH 18 0
BBX 14 27 3 0
BITMAP
1860
1CE0
07C0
0300
0000
0000
FFFC
FFFC
C000
C000
C000
C000
C000
C000
C000
FFE0
FFE0
C000
C000
C000
C000
C000
C000
C000
C000
FFFC
FFFC
ENDCHAR
STARTCHAR char283
ENCODING 283
SWIDTH 19 0
DWIDTH 16 0
BBX 13 21 2 0
BITMAP
3060
1DC0
0F80
0700
0000
0000
0F80
3FE0
7070
6038
C018
C018
FFF8
FFF8
C000
C000
C000
6000
7030
3FF0
0FC0
ENDCHAR
STARTCHAR char284
ENCODING 284
SWIDTH 2 0
DWIDTH 21 0
BBX 17 27 2 0
BITMAP
006000
01F000
03BC00
030C00
000000
000000
01F800
07FF00
1E0780
380100
700000
600000
E00000
C00000
C00000
C00000
C03F80
C03F80
C00180
C00180
E00180
600180
700180
380180
1E0780
07FE00
01F800
ENDCHAR
STARTCHAR char285
ENCODING 285
SWIDTH 26 0
DWIDTH 18 0
BBX 14 27 2 -6
BITMAP
0300
0FC0
1EE0
1860
0000
0000
0FC0
3FF0
7038
6018
C00C
C00C
C00C
C00C
C00C
C00C
C00C
601C
703C
3FEC
0F8C
000C
400C
E018
7038
3FF0
0FC0
ENDCHAR
STARTCHAR char286
ENCODING 286
SWIDTH 2 0
DWIDTH 21 0
BBX 17 27 2 0
BITMAP
020C00
030C00
03F800
01F000
000000
000000
01F800
07FF00
1E0780
380100
700000
600000
E00000
C00000
C00000
C00000
C03F80
C03F80
C00180
C00180
E00180
600180
700180
380180
1E0780
07FE00
01F800
ENDCHAR
STARTCHAR char287
ENCODING 287
SWIDTH 26 0
DWIDTH 18 0
BBX 14 27 2 -6
BITMAP
1860
1860
1FE0
0780
0000
0000
0FC0
3FF0
7038
6018
C00C
C00C
C00C
C00C
C00C
C00C
C00C
601C
703C
3FEC
0F8C
000C
400C
E018
7038
3FF0
0FC0
ENDCHAR
STARTCHAR char288
ENCODING 288
SWIDTH 2 0
DWIDTH 21 0
BBX 17 27 2 0
BITMAP
006000
00E000
006000
000000
000000
000000
01F800
07FF00
1E0780
380100
700000
600000
E00000
C00000
C00000
C00000
C03F80
C03F80
C00180
C00180
E00180
600180
700180
380180
1E0780
07FE00
01F800
ENDCHAR
STARTCHAR char289
ENCODING 289
SWIDTH 26 0
DWIDTH 18 0
BBX 14 27 2 -6
BITMAP
0300
0300
0300
0000
0000
0000
0FC0
3FF0
7038
6018
C00C
C00C
C00C
C00C
C00C
C00C
C00C
601C
703C
3FEC
0F8C
000C
400C
E018
7038
3FF0
0FC0
ENDCHAR
STARTCHAR char290
ENCODING 290
SWIDTH 2 0
DWIDTH 21 0
BBX 17 27 2 -6
BITMAP
01F800
07FF00
1E0780
380100
700000
600000
E00000
C00000
C00000
C00000
C03F80
C03F80
C00180
C00180
E00180
600180
700180
380180
1E0780
07FE00
01F800
006000
00F000
001800
031800
01F800
00F000
ENDCHAR
STARTCHAR char291
ENCODING 291
SWIDTH 26 0
DWIDTH 18 0
BBX 14 31 2 -6
BITMAP
0100
0300
0300
0700
0700
0780
0300
0000
0000
0000
0FC0
3FF0
7038
6018
C00C
C00C
C00C
C00C
C00C
C00C
C00C
601C
703C
3FEC
0F8C
000C
400C
E018
7038
3FF0
0FC0
ENDCHAR
STARTCHAR char292
ENCODING 292
SWIDTH 9 0
DWIDTH 23 0
BBX 17 27 3 0
BITMAP
018000
03E000
0F7000
0C3000
000000
000000
C00180
C00180
C00180
C00180
C00180
C00180
C00180
C00180
C00180
FFFF80
FFFF80
C00180
C00180
C00180
C00180
C00180
C00180
C00180
C00180
C00180
C00180
ENDCHAR
STARTCHAR char293
ENCODING 293
SWIDTH 26 0
DWIDTH 18 0
BBX 17 27 -1 0
BITMAP
1C0000
3E0000
F78000
C30000
000000
000000
080000
180000
180000
180000
180000
180000
18F800
1BFE00
1F0700
1C0300
1C0380
180180
180180
180180
180180
180180
180180
180180
180180
180180
080180
ENDCHAR
STARTCHAR char294
ENCODING 294
SWIDTH 9 0
DWIDTH 23 0
BBX 21 21 1 0
BITMAP
300060
300060
300060
FFFFF8
FFFFF8
300060
300060
300060
300060
3FFFE0
3FFFE0
300060
300060
300060
300060
300060
300060
300060
300060
300060
300060
ENDCHAR
STARTCHAR char295
ENCODING 295
SWIDTH 26 0
DWIDTH 18 0
BBX 16 21 0 0
BITMAP
3000
3000
FFC0
FFC0
3000
3000
31F0
37FC
3E0E
3806
3807
3003
3003
3003
3003
3003
3003
3003
3003
3003
1003
ENDCHAR
STARTCHAR char296
ENCODING 296
SWIDTH 23 0
DWIDTH 7 0
BBX 9 27 -1 0
BITMAP
3100
7980
CF00
4600
0000
0000
0C00
0C00
0C00
0C00
0C00
0C00
0C00
0C00
0C00
0C00
0C00
0C00
0C00
0C00
0C00
0C00
0C00
0C00
0C00
0C00
0C00
ENDCHAR
STARTCHAR char297
ENCODING 297
SWIDTH 26 0
DWIDTH 8 0
BBX 8 21 0 0
BITMAP
71
FB
DE
8E
00
00
18
18
18
18
18
18
18
18
18
18
18
18
18
18
18
ENDCHAR
STARTCHAR char298
ENCODING 298
SWIDTH 23 0
DWIDTH 7 0
BBX 9 26 -1 0
BITMAP
FF80
FF80
0000
0000
0000
0C00
0C00
0C00
0C00
0C00
0C00
0C00
0C00
0C00
0C00
0C00
0C00
0C00
0C00
0C00
0C00
0C00
0C00
0C00
0C00
0C00
ENDCHAR
STARTCHAR char299
ENCODING 299
SWIDTH 26 0
DWIDTH 8 0
BBX 7 20 0 0
BITMAP
FE
FE
00
00
00
18
18
18
18
18
18
18
18
18
18
18
18
18
18
18
ENDCHAR
STARTCHAR char300
ENCODING 300
SWIDTH 23 0
DWIDTH 7 0
BBX 8 27 0 0
BITMAP
83
C3
FE
7C
00
00
18
18
18
18
18
18
18
18
18
18
18
18
18
18
18
18
18
18
18
18
18
ENDCHAR
STARTCHAR char301
ENCODING 301
SWIDTH 26 0
DWIDTH 8 0
BBX 8 21 0 0
BITMAP
C2
C7
7E
3C
00
00
18
18
18
18
18
18
18
18
18
18
18
18
18
18
18
ENDCHAR
STARTCHAR char302
ENCODING 302
SWIDTH 23 0
DWIDTH 7 0
BBX 6 28 1 -7
BITMAP
30
30
30
30
30
30
30
30
30
30
30
30
30
30
30
30
30
30
30
30
30
30
70
E0
C0
CC
FC
70
ENDCHAR
STARTCHAR char303
ENCODING 303
SWIDTH 26 0
DWIDTH 8 0
BBX 6 28 1 -7
BITMAP
30
70
30
00
00
00
30
30
30
30
30
30
30
30
30
30
30
30
30
30
30
30
70
E0
C0
CC
FC
70
ENDCHAR
STARTCHAR char304
ENCODING 304
SWIDTH 23 0
DWIDTH 7 0
BBX 3 27 2 0
BITMAP
60
E0
60
00
00
00
60
60
60
60
60
60
60
60
60
60
60
60
60
60
60
60
60
60
60
60
60
ENDCHAR
STARTCHAR char305
ENCODING 305
SWIDTH 26 0
DWIDTH 8 0
BBX 2 15 3 0
BITMAP
C0
C0
C0
C0
C0
C0
C0
C0
C0
C0
C0
C0
C0
C0
C0
ENDCHAR
STARTCHAR char306
ENCODING 306
SWIDTH 23 0
DWIDTH 17 0
BBX 11 21 3 0
BITMAP
C060
C060
C060
C060
C060
C060
C060
C060
C060
C060
C060
C060
C060
0060
0060
C060
C060
C0E0
E1C0
7F80
1F00
ENDCHAR
STARTCHAR char307
ENCODING 307
SWIDTH 16 0
DWIDTH 15 0
BBX 11 27 2 -6
BITMAP
60C0
E0E0
60E0
0000
0000
0000
6040
60C0
60C0
60C0
60C0
60C0
60C0
60C0
60C0
60C0
60C0
60C0
60C0
60C0
60C0
00C0
00C0
00C0
0180
1F00
1E00
ENDCHAR
STARTCHAR char308
ENCODING 308
SWIDTH 19 0
DWIDTH 16 0
BBX 16 27 1 0
BITMAP
0018
007C
00EF
00C3
0000
0000
0018
0018
0018
0018
0018
0018
0018
0018
0018
0018
0018
0018
0018
0018
C018
C018
E030
6030
7070
3FE0
0F80
ENDCHAR
STARTCHAR char309
ENCODING 309
SWIDTH 26 0
DWIDTH 8 0
BBX 10 27 -3 -6
BITMAP
0300
0F80
1DC0
1840
0000
0000
0300
0300
0300
0300
0300
0300
0300
0300
0300
0300
0300
0300
0300
0300
0300
0300
0700
0600
0E00
7C00
F000
ENDCHAR
STARTCHAR char310
ENCODING 310
SWIDTH 23 0
DWIDTH 17 0
BBX 13 27 3 -6
BITMAP
C018
C038
C070
C0E0
C1C0
C380
C700
CE00
DC00
FC00
FE00
E600
C700
C380
C180
C0C0
C0E0
C070
C030
C018
C018
0700
0780
0180
1180
1F80
0F00
ENDCHAR
STARTCHAR char311
ENCODING 311
SWIDTH 16 0
DWIDTH 15 0
BBX 12 27 2 -6
BITMAP
4000
C000
C000
C000
C000
C000
C030
C060
C0C0
C380
C700
CE00
DC00
FE00
F600
E300
C180
C1C0
C0E0
C060
4030
0600
0F00
0180
3180
1F80
0F00
ENDCHAR
STARTCHAR char312
ENCODING 312
SWIDTH 16 0
DWIDTH 15 0
BBX 12 15 2 0
BITMAP
4030
C060
C1C0
C380
C700
CE00
DC00
FE00
F700
E300
C180
C1C0
C0E0
C060
4030
ENDCHAR
STARTCHAR char313
ENCODING 313
SWIDTH 23 0
DWIDTH 17 0
BBX 14 28 2 0
BITMAP
0800
1800
3000
E000
4000
0000
0000
6000
6000
6000
6000
6000
6000
6000
6000
6000
6000
6000
6000
6000
6000
6000
6000
6000
6000
6000
7FFC
7FFC
ENDCHAR
STARTCHAR char314
ENCODING 314
SWIDTH 26 0
DWIDTH 8 0
BBX 5 26 2 0
BITMAP
10
38
70
E0
C0
80
00
80
C0
C0
C0
C0
C0
C0
C0
C0
C0
C0
C0
C0
C0
C0
C0
C0
78
38
ENDCHAR
STARTCHAR char315
ENCODING 315
SWIDTH 23 0
DWIDTH 17 0
BBX 13 27 3 -6
BITMAP
C000
C000
C000
C000
C000
C000
C000
C000
C000
C000
C000
C000
C000
C000
C000
C000
C000
C000
C000
FFF8
FFF8
0700
0F80
0180
1180
1F80
0F00
ENDCHAR
STARTCHAR char316
ENCODING 316
SWIDTH 26 0
DWIDTH 8 0
BBX 7 27 2 -6
BITMAP
C0
C0
C0
C0
C0
C0
C0
C0
C0
C0
C0
C0
C0
C0
C0
C0
C0
C0
C0
78
38
18
3E
06
C6
7E
3C
ENDCHAR
STARTCHAR char317
ENCODING 317
SWIDTH 23 0
DWIDTH 17 0
BBX 13 21 3 0
BITMAP
C0C0
C1C0
C0C0
C0C0
C080
C180
C100
C000
C000
C000
C000
C000
C000
C000
C000
C000
C000
C000
C000
FFF8
FFF8
ENDCHAR
STARTCHAR char318
ENCODING 318
SWIDTH 33 0
DWIDTH 10 0
BBX 8 21 2 0
BITMAP
C6
C7
C3
C3
C6
C6
CC
C0
C0
C0
C0
C0
C0
C0
C0
C0
C0
C0
C0
78
38
ENDCHAR
STARTCHAR char319
ENCODING 319
SWIDTH 19 0
DWIDTH 16 0
BBX 13 21 3 0
BITMAP
C000
C000
C000
C000
C000
C000
C000
C000
C000
C0C0
C1C0
C0C0
C000
C000
C000
C000
C000
C000
C000
FFF8
FFF8
ENDCHAR
STARTCHAR char320
ENCODING 320
SWIDTH 30 0
DWIDTH 9 0
BBX 7 21 2 0
BITMAP
C0
C0
C0
C0
C0
C0
C0
C0
C0
C6
CE
C6
C0
C0
C0
C0
C0
C0
C0
78
38
ENDCHAR
STARTCHAR char321
ENCODING 321
SWIDTH 26 0
DWIDTH 18 0
BBX 17 21 0 0
BITMAP
180000
180000
180000
180000
180000
18C000
19C000
1B8000
1F0000
1E0000
1C0000
380000
780000
F80000
180000
180000
180000
180000
180000
1FFF80
1FFF80
ENDCHAR
STARTCHAR char322
ENCODING 322
SWIDTH 30 0
DWIDTH 9 0
BBX 8 21 0 0
BITMAP
18
18
18
18
18
18
1B
1F
1E
1C
1C
38
78
F8
18
18
18
18
18
1E
1E
ENDCHAR
STARTCHAR char323
ENCODING 323
SWIDTH 5 0
DWIDTH 22 0
BBX 16 28 3 0
BITMAP
0030
0070
00E0
01C0
0180
0000
0000
C003
C003
E003
F003
F803
D803
CC03
C603
C703
C303
C183
C0C3
C0E3
C063
C033
C01B
C01F
C00F
C007
C003
C003
ENDCHAR
STARTCHAR char324
ENCODING 324
SWIDTH 26 0
DWIDTH 18 0
BBX 14 22 2 0
BITMAP
0060
00E0
01C0
0380
0300
0000
0000
47C0
DFF0
F838
E018
E01C
C00C
C00C
C00C
C00C
C00C
C00C
C00C
C00C
C00C
400C
ENDCHAR
STARTCHAR char325
ENCODING 325
SWIDTH 5 0
DWIDTH 22 0
BBX 16 27 3 -6
BITMAP
C003
C003
E003
F003
F803
D803
CC03
C603
C703
C303
C183
C0C3
C0E3
C063
C033
C01B
C01F
C00F
C007
C003
C003
01C0
01E0
0020
0620
07E0
03C0
ENDCHAR
STARTCHAR char326
ENCODING 326
SWIDTH 26 0
DWIDTH 18 0
BBX 14 21 2 -6
BITMAP
47C0
DFF0
F838
E018
E01C
C00C
C00C
C00C
C00C
C00C
C00C
C00C
C00C
C00C
400C
0380
03C0
0040
0C40
0FC0
0780
ENDCHAR
STARTCHAR char327
ENCODING 327
SWIDTH 5 0
DWIDTH 22 0
BBX 16 27 3 0
BITMAP
0C30
0E70
03E0
0180
0000
0000
C003
C003
E003
F003
F803
D803
CC03
C603
C703
C303
C183
C0C3
C0E3
C063
C033
C01B
C01F
C00F
C007
C003
C003
ENDCHAR
STARTCHAR char328
ENCODING 328
SWIDTH 26 0
DWIDTH 18 0
BBX 14 21 2 0
BITMAP
1860
1CE0
07C0
0300
0000
0000
47C0
DFF0
F838
E018
E01C
C00C
C00C
C00C
C00C
C00C
C00C
C00C
C00C
C00C
400C
ENDCHAR
STARTCHAR char330
ENCODING 330
SWIDTH 29 0
DWIDTH 19 0
BBX 14 21 3 0
BITMAP
CFC0
DFE0
F070
E018
C01C
C00C
C00C
C00C
C00C
C00C
C00C
C00C
C00C
C00C
C00C
C00C
C00C
C818
CC38
CFF0
C3E0
ENDCHAR
STARTCHAR char331
ENCODING 331
SWIDTH 26 0
DWIDTH 18 0
BBX 14 21 2 -6
BITMAP
47C0
DFF0
F878
E018
E01C
C00C
C00C
C00C
C00C
C00C
C00C
C00C
C00C
C00C
400C
001C
0018
1818
0C30
0FF0
03C0
ENDCHAR
STARTCHAR char332
ENCODING 332
SWIDTH 15 0
DWIDTH 25 0
BBX 21 26 2 0
BITMAP
03FE00
03FE00
000000
000000
000000
01FC00
07FF00
1E0380
3801C0
700060
600070
E00030
C00038
C00018
C00018
C00018
C00018
C00018
C00038
E00030
600070
700060
3801C0
1E0380
07FF00
01FC00
ENDCHAR
STARTCHAR char333
ENCODING 333
SWIDTH 26 0
DWIDTH 18 0
BBX 14 20 2 0
BITMAP
1FE0
1FF0
0000
0000
0000
0FC0
3FF0
7838
6018
C00C
C00C
C00C
C00C
C00C
C00C
C00C
6018
7838
3FF0
0FC0
ENDCHAR
STARTCHAR char334
ENCODING 334
SWIDTH 15 0
DWIDTH 25 0
BBX 21 27 2 0
BITMAP
030400
030C00
01FC00
00F800
000000
000000
01FC00
07FF00
1E0380
3801C0
700060
600070
E00030
C00038
C00018
C00018
C00018
C00018
C00018
C00038
E00030
600070
700060
3801C0
1E0380
07FF00
01FC00
ENDCHAR
STARTCHAR char335
ENCODING 335
SWIDTH 26 0
DWIDTH 18 0
BBX 14 21 2 0
BITMAP
1860
1860
1FE0
0780
0000
0000
0FC0
3FF0
7838
6018
C00C
C00C
C00C
C00C
C00C
C00C
C00C
6018
7838
3FF0
0FC0
ENDCHAR
STARTCHAR char336
ENCODING 336
SWIDTH 15 0
DWIDTH 25 0
BBX 21 29 2 0
BITMAP
004400
006600
00CC00
00CC00
008800
019800
000000
000000
01FC00
07FF00
1E0380
3801C0
700060
600070
E00030
C00038
C00018
C00018
C00018
C00018
C00018
C00038
E00030
600070
700060
3801C0
1E0380
07FF00
01FC00
ENDCHAR
STARTCHAR char337
ENCODING 337
SWIDTH 26 0
DWIDTH 18 0
BBX 14 23 2 0
BITMAP
0220
0660
0660
0660
0CC0
0CC0
0000
0000
0FC0
3FF0
7838
6018
C00C
C00C
C00C
C00C
C00C
C00C
C00C
6018
7838
3FF0
0FC0
ENDCHAR
STARTCHAR char338
ENCODING 338
SWIDTH 1 0
DWIDTH 31 0
BBX 28 21 2 0
BITMAP
01FFFFF0
07FFFFE0
1E030000
38030000
70030000
60030000
E0030000
C0030000
C0030000
C003FF00
C003FF00
C0030000
C0030000
C0030000
E0030000
60030000
70030000
38030000
1E030000
07FFFFE0
01FFFFF0
ENDCHAR
STARTCHAR char339
ENCODING 339
SWIDTH 29 0
DWIDTH 29 0
BBX 26 15 2 0
BITMAP
0FC07C00
3FF1FF00
703B8380
601F0180
C00E00C0
C00E00C0
C00FFFC0
C00FFFC0
C00C0000
C00E0000
C00E0000
601B0000
703B8380
3FF1FF00
0FC07C00
ENDCHAR
STARTCHAR char340
ENCODING 340
SWIDTH 19 0
DWIDTH 16 0
BBX 13 28 3 0
BITMAP
0180
0380
0700
0E00
0400
0000
0000
FF00
FFC0
C0E0
C070
C030
C030
C030
C030
C030
C070
C0E0
FFC0
FF00
C180
C1C0
C0C0
C0E0
C060
C030
C038
C018
ENDCHAR
STARTCHAR char341
ENCODING 341
SWIDTH 6 0
DWIDTH 12 0
BBX 9 22 2 0
BITMAP
0100
0380
0700
0E00
0C00
0000
0000
4780
DF80
F000
E000
E000
C000
C000
C000
C000
C000
C000
C000
C000
C000
4000
ENDCHAR
STARTCHAR char342
ENCODING 342
SWIDTH 19 0
DWIDTH 16 0
BBX 13 27 3 -6
BITMAP
FF00
FFC0
C0E0
C070
C030
C030
C030
C030
C030
C070
C0E0
FFC0
FF00
C180
C1C0
C0C0
C0E0
C060
C030
C038
C018
0600
0F80
0180
1180
1F80
0F00
ENDCHAR
STARTCHAR char343
ENCODING 343
SWIDTH 6 0
DWIDTH 12 0
BBX 11 21 0 -6
BITMAP
11E0
37E0
3C00
3800
3800
3000
3000
3000
3000
3000
3000
3000
3000
3000
1000
3800
3C00
0600
C600
FC00
7800
ENDCHAR
STARTCHAR char344
ENCODING 344
SWIDTH 19 0
DWIDTH 16 0
BBX 13 27 3 0
BITMAP
60C0
3B80
1F00
0600
0000
0000
FF00
FFC0
C0E0
C070
C030
C030
C030
C030
C030
C070
C0E0
FFC0
FF00
C180
C1C0
C0C0
C0E0
C060
C030
C038
C018
ENDCHAR
STARTCHAR char345
ENCODING 345
SWIDTH 6 0
DWIDTH 12 0
BBX 9 21 2 0
BITMAP
6180
7380
3E00
0C00
0000
0000
4780
DF80
F000
E000
E000
C000
C000
C000
C000
C000
C000
C000
C000
C000
4000
ENDCHAR
STARTCHAR char346
ENCODING 346
SWIDTH 26 0
DWIDTH 18 0
BBX 14 28 2 0
BITMAP
0040
00E0
01C0
0380
0300
0000
0000
0FC0
3FF0
7038
6018
C008
C000
E000
6000
3800
1F80
07F0
0078
0018
000C
000C
000C
C00C
C018
7038
3FF0
0FC0
ENDCHAR
STARTCHAR char347
ENCODING 347
SWIDTH 13 0
DWIDTH 14 0
BBX 11 22 2 0
BITMAP
0180
0380
0700
0E00
0C00
0000
0000
1F00
7FC0
E0E0
C060
C000
E000
7C00
1F80
01C0
0060
0060
8060
E0E0
7FC0
1F00
ENDCHAR
STARTCHAR char348
ENCODING 348
SWIDTH 26 0
DWIDTH 18 0
BBX 14 27 2 0
BITMAP
0300
0F80
1DE0
1860
0000
0000
0FC0
3FF0
7038
6018
C008
C000
E000
6000
3800
1F80
07F0
0078
0018
000C
000C
000C
C00C
C018
7038
3FF0
0FC0
ENDCHAR
STARTCHAR char349
ENCODING 349
SWIDTH 13 0
DWIDTH 14 0
BBX 11 21 2 0
BITMAP
0E00
1F00
7B80
61C0
0000
0000
1F00
7FC0
E0E0
C060
C000
E000
7C00
1F80
01C0
0060
0060
8060
E0E0
7FC0
1F00
ENDCHAR
STARTCHAR char350
ENCODING 350
SWIDTH 26 0
DWIDTH 18 0
BBX 14 27 2 -6
BITMAP
0FC0
3FF0
7038
6018
C008
C000
E000
6000
3800
1F80
07F0
0078
0018
000C
000C
000C
C00C
C01C
7038
3FF0
0FC0
0300
03C0
00C0
08C0
1FC0
0780
ENDCHAR
STARTCHAR char351
ENCODING 351
SWIDTH 13 0
DWIDTH 14 0
BBX 11 21 2 -6
BITMAP
1F00
7FC0
E0E0
C060
C000
E000
7C00
1F80
01C0
0060
0060
C060
E0E0
7FC0
1F00
0E00
0700
0180
3180
3F80
1E00
ENDCHAR
STARTCHAR char352
ENCODING 352
SWIDTH 26 0
DWIDTH 18 0
BBX 14 27 2 0
BITMAP
1860
1CE0
0F80
0300
0000
0000
0FC0
3FF0
7038
6018
C008
C000
E000
6000
3800
1F80
07F0
0078
0018
000C
000C
000C
C00C
C018
7038
3FF0
0FC0
ENDCHAR
STARTCHAR char353
ENCODING 353
SWIDTH 13 0
DWIDTH 14 0
BBX 11 21 2 0
BITMAP
60C0
3B80
1F00
0C00
0000
0000
1F00
7FC0
E0E0
C060
C000
E000
7C00
1F80
01C0
0060
0060
8060
E0E0
7FC0
1F00
ENDCHAR
STARTCHAR char354
ENCODING 354
SWIDTH 23 0
DWIDTH 17 0
BBX 17 27 0 -6
BITMAP
FFFF80
7FFF80
00C000
00C000
00C000
00C000
00C000
00C000
00C000
00C000
00C000
00C000
00C000
00C000
00C000
00C000
00C000
00C000
00C000
00C000
00C000
00C000
00F000
003000
063000
03F000
01E000
ENDCHAR
STARTCHAR char355
ENCODING 355
SWIDTH 2 0
DWIDTH 11 0
BBX 9 26 1 -6
BITMAP
3000
3000
3000
3000
3000
FF00
FF00
3000
3000
3000
3000
3000
3000
3000
3000
3000
3800
1800
0F80
0F80
0C00
0E00
0300
2300
3F00
1E00
ENDCHAR
STARTCHAR char356
ENCODING 356
SWIDTH 23 0
DWIDTH 17 0
BBX 17 27 0 0
BITMAP
061800
077800
03E000
00C000
000000
000000
FFFF80
7FFF80
00C000
00C000
00C000
00C000
00C000
00C000
00C000
00C000
00C000
00C000
00C000
00C000
00C000
00C000
00C000
00C000
00C000
00C000
00C000
ENDCHAR
STARTCHAR char357
ENCODING 357
SWIDTH 2 0
DWIDTH 11 0
BBX 9 23 1 0
BITMAP
0300
0380
0180
1180
3300
3300
3600
3000
3000
FF00
FF00
3000
3000
3000
3000
3000
3000
3000
3000
3800
1800
0F80
0780
ENDCHAR
STARTCHAR char358
ENCODING 358
SWIDTH 23 0
DWIDTH 17 0
BBX 17 21 0 0
BITMAP
FFFF80
7FFF80
00C000
00C000
00C000
00C000
00C000
00C000
00C000
0FFC00
0FFC00
00C000
00C000
00C000
00C000
00C000
00C000
00C000
00C000
00C000
00C000
ENDCHAR
STARTCHAR char359
ENCODING 359
SWIDTH 2 0
DWIDTH 11 0
BBX 9 20 1 0
BITMAP
1000
3000
3000
3000
3000
3000
FF00
FF00
3000
3000
FF00
FF00
3000
3000
3000
3000
3800
1800
0F80
0780
ENDCHAR
STARTCHAR char360
ENCODING 360
SWIDTH 5 0
DWIDTH 22 0
BBX 16 26 3 0
BITMAP
0788
1FFC
1878
0000
0000
C003
C003
C003
C003
C003
C003
C003
C003
C003
C003
C003
C003
C003
C003
C003
C003
E007
600E
781C
1FF8
07E0
ENDCHAR
STARTCHAR char361
ENCODING 361
SWIDTH 26 0
DWIDTH 18 0
BBX 14 20 2 0
BITMAP
0F18
3FF8
30F0
0000
0000
C008
C00C
C00C
C00C
C00C
C00C
C00C
C00C
C00C
C00C
E01C
601C
707C
3FEC
0F88
ENDCHAR
STARTCHAR char362
ENCODING 362
SWIDTH 5 0
DWIDTH 22 0
BBX 16 26 3 0
BITMAP
0FF0
1FF0
0000
0000
0000
C003
C003
C003
C003
C003
C003
C003
C003
C003
C003
C003
C003
C003
C003
C003
C003
E007
600E
781C
1FF8
07E0
ENDCHAR
STARTCHAR char363
ENCODING 363
SWIDTH 26 0
DWIDTH 18 0
BBX 14 20 2 0
BITMAP
1FE0
1FF0
0000
0000
0000
C008
C00C
C00C
C00C
C00C
C00C
C00C
C00C
C00C
C00C
E01C
601C
707C
3FEC
0F88
ENDCHAR
STARTCHAR char364
ENCODING 364
SWIDTH 5 0
DWIDTH 22 0
BBX 16 27 3 0
BITMAP
0C30
0C30
0FF0
03C0
0000
0000
C003
C003
C003
C003
C003
C003
C003
C003
C003
C003
C003
C003
C003
C003
C003
C003
E007
600E
781C
1FF8
07E0
ENDCHAR
STARTCHAR char365
ENCODING 365
SWIDTH 26 0
DWIDTH 18 0
BBX 14 21 2 0
BITMAP
1860
1860
1FE0
0780
0000
0000
C008
C00C
C00C
C00C
C00C
C00C
C00C
C00C
C00C
C00C
E01C
601C
707C
3FEC
0F88
ENDCHAR
STARTCHAR char366
ENCODING 366
SWIDTH 5 0
DWIDTH 22 0
BBX 16 27 3 0
BITMAP
03C0
0640
0660
0640
03C0
0000
C003
C003
C003
C003
C003
C003
C003
C003
C003
C003
C003
C003
C003
C003
C003
C003
E007
600E
781C
1FF8
07E0
ENDCHAR
STARTCHAR char367
ENCODING 367
SWIDTH 26 0
DWIDTH 18 0
BBX 14 21 2 0
BITMAP
0780
0480
0CC0
0480
0780
0000
C008
C00C
C00C
C00C
C00C
C00C
C00C
C00C
C00C
C00C
E01C
601C
707C
3FEC
0F88
ENDCHAR
STARTCHAR char368
ENCODING 368
SWIDTH 5 0
DWIDTH 22 0
BBX 16 29 3 0
BITMAP
0110
0330
0330
0330
0660
0660
0000
0000
C003
C003
C003
C003
C003
C003
C003
C003
C003
C003
C003
C003
C003
C003
C003
C003
E007
600E
781C
1FF8
07E0
ENDCHAR
STARTCHAR char369
ENCODING 369
SWIDTH 26 0
DWIDTH 18 0
BBX 14 23 2 0
BITMAP
0220
0660
0660
0660
0CC0
0CC0
0000
0000
C008
C00C
C00C
C00C
C00C
C00C
C00C
C00C
C00C
C00C
E01C
601C
707C
3FEC
0F88
ENDCHAR
STARTCHAR char370
ENCODING 370
SWIDTH 5 0
DWIDTH 22 0
BBX 16 26 3 -5
BITMAP
C003
C003
C003
C003
C003
C003
C003
C003
C003
C003
C003
C003
C003
C003
C003
C003
E007
600E
781C
1FF8
07F0
00E0
01C0
01C8
00FC
0070
ENDCHAR
STARTCHAR char371
ENCODING 371
SWIDTH 26 0
DWIDTH 18 0
BBX 16 22 2 -7
BITMAP
C00C
C00C
C00C
C00C
C00C
C00C
C00C
C00C
C00C
C00C
E01C
601C
707C
3FEC
0F88
001C
0038
0038
0070
0073
003E
001C
ENDCHAR
STARTCHAR char372
ENCODING 372
SWIDTH 15 0
DWIDTH 25 0
BBX 23 27 1 0
BITMAP
003800
007C00
00EE00
018300
000000
000000
800002
C03806
C03806
C03806
E0280E
606C0C
606C0C
606C0C
30C418
30C618
30C618
18C630
198330
198330
198330
0D0160
0F01E0
0F01E0
0701C0
0600C0
0600C0
ENDCHAR
STARTCHAR char373
ENCODING 373
SWIDTH 33 0
DWIDTH 20 0
BBX 19 21 0 0
BITMAP
006000
01F000
03BC00
030C00
000000
000000
C06020
606060
60E060
60F060
30F0C0
30B0C0
3198C0
119980
191980
1B0980
1B0F00
0F0F00
0E0700
0E0600
060600
ENDCHAR
STARTCHAR char374
ENCODING 374
SWIDTH 23 0
DWIDTH 17 0
BBX 17 27 0 0
BITMAP
00C000
03E000
077800
0E1800
000000
000000
C00180
E00180
600300
700700
300600
180E00
1C0C00
0C1800
063800
073000
036000
03E000
01C000
00C000
00C000
00C000
00C000
00C000
00C000
00C000
00C000
ENDCHAR
STARTCHAR char375
ENCODING 375
SWIDTH 16 0
DWIDTH 15 0
BBX 14 27 0 -6
BITMAP
0380
07C0
0EE0
1830
0000
0000
C004
600C
600C
3018
3018
1830
1830
0C70
0C60
06E0
06C0
07C0
0380
0380
0300
0300
0600
0600
0E00
0C00
0C00
ENDCHAR
STARTCHAR char376
ENCODING 376
SWIDTH 23 0
DWIDTH 17 0
BBX 17 27 0 0
BITMAP
063800
0E3800
063800
000000
000000
000000
C00180
E00180
600300
700700
300600
180E00
1C0C00
0C1800
063800
073000
036000
03E000
01C000
00C000
00C000
00C000
00C000
00C000
00C000
00C000
00C000
ENDCHAR
STARTCHAR char377
ENCODING 377
SWIDTH 29 0
DWIDTH 19 0
BBX 17 28 1 0
BITMAP
003000
007000
00E000
01C000
008000
000000
000000
FFFF80
7FFF80
000300
000600
000E00
001C00
001800
003000
006000
00E000
01C000
018000
030000
060000
0E0000
0C0000
180000
300000
600000
FFFF80
FFFF80
ENDCHAR
STARTCHAR char378
ENCODING 378
SWIDTH 16 0
DWIDTH 15 0
BBX 12 22 2 0
BITMAP
0180
0380
0700
0E00
0400
0000
0000
FFE0
FFE0
00E0
01C0
0180
0300
0700
0E00
0C00
1800
3000
7000
6000
FFE0
FFF0
ENDCHAR
STARTCHAR char379
ENCODING 379
SWIDTH 29 0
DWIDTH 19 0
BBX 17 27 1 0
BITMAP
00C000
01C000
00C000
000000
000000
000000
FFFF80
7FFF80
000300
000600
000E00
001C00
001800
003000
006000
00E000
01C000
018000
030000
060000
0E0000
0C0000
180000
300000
600000
FFFF80
FFFF80
ENDCHAR
STARTCHAR char380
ENCODING 380
SWIDTH 16 0
DWIDTH 15 0
BBX 12 21 2 0
BITMAP
0E00
0E00
0E00
0000
0000
0000
FFE0
FFE0
00E0
01C0
0180
0300
0700
0E00
0C00
1800
3000
7000
6000
FFE0
FFF0
ENDCHAR
STARTCHAR char381
ENCODING 381
SWIDTH 29 0
DWIDTH 19 0
BBX 17 27 1 0
BITMAP
0C1800
077800
03E000
00C000
000000
000000
FFFF80
7FFF80
000300
000600
000E00
001C00
001800
003000
006000
00E000
01C000
018000
030000
060000
0E0000
0C0000
180000
300000
600000
FFFF80
FFFF80
ENDCHAR
STARTCHAR char382
ENCODING 382
SWIDTH 16 0
DWIDTH 15 0
BBX 12 21 2 0
BITMAP
60C0
3B80
1F00
0600
0000
0000
FFE0
FFE0
00E0
01C0
0180
0300
0700
0E00
0C00
1800
3000
7000
6000
FFE0
FFF0
ENDCHAR
STARTCHAR char383
ENCODING 383
SWIDTH 26 0
DWIDTH 8 0
BBX 6 21 2 0
BITMAP
1C
7C
E0
C0
C0
C0
C0
C0
C0
C0
C0
C0
C0
C0
C0
C0
C0
C0
C0
C0
C0
ENDCHAR
STARTCHAR char399
ENCODING 399
SWIDTH 5 0
DWIDTH 22 0
BBX 19 21 2 0
BITMAP
07F000
1FFC00
780E00
200700
000180
0001C0
0000C0
0000C0
000060
FFFFE0
FFFFE0
C00060
C000E0
C000C0
C000C0
6001C0
700180
380380
1C0F00
0FFC00
03F000
ENDCHAR
STARTCHAR char402
ENCODING 402
SWIDTH 9 0
DWIDTH 13 0
BBX 13 27 0 -6
BITMAP
00F8
01F0
0380
0300
0700
0600
0600
1FE0
1FE0
0600
0600
0600
0600
0600
0600
0600
0600
0600
0600
0600
0600
0600
0600
0600
0C00
FC00
F000
ENDCHAR
STARTCHAR char416
ENCODING 416
SWIDTH 15 0
DWIDTH 25 0
BBX 21 24 2 0
BITMAP
000020
000020
000030
01FC60
07FFE0
1E03C0
3801C0
700060
600070
E00030
C00038
C00018
C00018
C00018
C00018
C00018
C00038
E00030
600070
700060
3801C0
1E0380
07FF00
01FC00
ENDCHAR
STARTCHAR char417
ENCODING 417
SWIDTH 26 0
DWIDTH 18 0
BBX 15 18 2 0
BITMAP
0004
0006
0006
0FCC
3FFC
7838
6018
C00C
C00C
C00C
C00C
C00C
C00C
C00C
6018
7838
3FF0
0FC0
ENDCHAR
STARTCHAR char431
ENCODING 431
SWIDTH 5 0
DWIDTH 22 0
BBX 19 25 3 0
BITMAP
000020
000060
000060
000060
C003E0
C003C0
C00300
C00300
C00300
C00300
C00300
C00300
C00300
C00300
C00300
C00300
C00300
C00300
C00300
C00300
E00700
600E00
781C00
1FF800
07E000
ENDCHAR
STARTCHAR char432
ENCODING 432
SWIDTH 26 0
DWIDTH 18 0
BBX 17 18 2 0
BITMAP
000180
000180
000180
C00F00
C00E00
C00C00
C00C00
C00C00
C00C00
C00C00
C00C00
C00C00
C00C00
E01C00
601C00
707C00
3FEC00
0F8800
ENDCHAR
STARTCHAR char486
ENCODING 486
SWIDTH 2 0
DWIDTH 21 0
BBX 17 27 2 0
BITMAP
030C00
03BC00
01F000
006000
000000
000000
01F800
07FF00
1E0780
380100
700000
600000
E00000
C00000
C00000
C00000
C03F80
C03F80
C00180
C00180
E00180
600180
700180
380180
1E0780
07FE00
01F800
ENDCHAR
STARTCHAR char487
ENCODING 487
SWIDTH 26 0
DWIDTH 18 0
BBX 14 27 2 -6
BITMAP
1860
1CE0
07C0
0300
0000
0000
0FC0
3FF0
7038
6018
C00C
C00C
C00C
C00C
C00C
C00C
C00C
601C
703C
3FEC
0F8C
000C
400C
E018
7038
3FF0
0FC0
ENDCHAR
STARTCHAR char490
ENCODING 490
SWIDTH 15 0
DWIDTH 25 0
BBX 21 28 2 -7
BITMAP
01FC00
07FF00
1E0380
3801C0
700060
600070
E00030
C00038
C00018
C00018
C00018
C00018
C00018
C00038
E00030
600070
700060
3801E0
1E03C0
0FFF00
03FC00
006000
00E000
01C000
018000
019800
00F800
007000
ENDCHAR
STARTCHAR char491
ENCODING 491
SWIDTH 26 0
DWIDTH 18 0
BBX 14 21 2 -6
BITMAP
0FC0
3FF0
7838
6018
C00C
C00C
C00C
C00C
C00C
C00C
C00C
6018
7838
3FF0
0FE0
01C0
01C0
0380
0398
01F0
00E0
ENDCHAR
STARTCHAR char506
ENCODING 506
SWIDTH 29 0
DWIDTH 19 0
BBX 18 34 0 0
BITMAP
001800
003800
007000
00E000
00C000
000000
000000
00E000
013000
011000
013000
00E000
000000
004000
00E000
00E000
01F000
01B000
03B000
031800
031800
060C00
060C00
0E0E00
0C0600
1C0600
180300
1FFF00
3FFF80
300180
700180
6000C0
E000C0
4000C0
ENDCHAR
STARTCHAR char507
ENCODING 507
SWIDTH 26 0
DWIDTH 18 0
BBX 14 27 2 0
BITMAP
0060
00E0
01C0
0380
0300
0000
0780
0480
0CC0
0480
0780
0000
0FC0
3FF0
7838
6018
C00C
C00C
C00C
C00C
C00C
C00C
C00C
601C
783C
3FEC
0FC4
ENDCHAR
STARTCHAR char508
ENCODING 508
SWIDTH 19 0
DWIDTH 26 0
BBX 24 28 0 0
BITMAP
000030
000070
0000E0
0001C0
000180
000000
000000
000FFF
001FFF
001C00
003C00
003C00
006C00
00EC00
00CC00
018C00
018FF8
030FF8
070C00
060C00
0E0C00
0FFC00
1FFC00
380C00
300C00
700C00
600FFF
C00FFF
ENDCHAR
STARTCHAR char509
ENCODING 509
SWIDTH 29 0
DWIDTH 29 0
BBX 26 22 2 0
BITMAP
00018000
00038000
00070000
000E0000
000C0000
00000000
00000000
0FC07C00
3FF1FF00
783B8380
601B0180
C00E00C0
C00E00C0
C00FFFC0
C00FFFC0
C00C0000
C00E0000
C00E0000
601F0000
783F8380
3FEDFF00
0F847C00
ENDCHAR
STARTCHAR char510
ENCODING 510
SWIDTH 12 0
DWIDTH 24 0
BBX 21 28 2 0
BITMAP
000C00
001C00
003800
007000
006000
000000
000000
01FC18
07FF38
1E07F0
3801E0
7001E0
600370
E00630
C00C38
C01818
C03018
C06018
C0C018
C18018
C30038
E60030
6C0070
780060
3801C0
7E0380
C7FF00
81FC00
ENDCHAR
STARTCHAR char511
ENCODING 511
SWIDTH 29 0
DWIDTH 19 0
BBX 15 22 2 0
BITMAP
0060
00E0
01C0
0380
0300
0000
0000
07C6
1FFE
383C
701C
603C
C066
C0C6
C186
C306
C606
6C0C
781C
7838
FFF0
87C0
ENDCHAR
STARTCHAR char512
ENCODING 512
SWIDTH 29 0
DWIDTH 19 0
BBX 18 29 0 0
BITMAP
022000
033000
033000
011800
019800
018800
000000
000000
004000
00E000
00E000
01F000
01B000
03B000
031800
031800
060C00
060C00
0E0E00
0C0600
1C0600
180300
1FFF00
3FFF80
300180
700180
6000C0
E000C0
4000C0
ENDCHAR
STARTCHAR char513
ENCODING 513
SWIDTH 26 0
DWIDTH 18 0
BBX 14 23 2 0
BITMAP
0880
1DC0
0CC0
0CC0
0440
0660
0000
0000
0FC0
3FF0
7838
6018
C00C
C00C
C00C
C00C
C00C
C00C
C00C
601C
783C
3FEC
0FC4
ENDCHAR
STARTCHAR char514
ENCODING 514
SWIDTH 29 0
DWIDTH 19 0
BBX 18 28 0 0
BITMAP
01E000
03F800
071800
060C00
000000
000000
000000
004000
00E000
00E000
01F000
01B000
03B000
031800
031800
060C00
060C00
0E0E00
0C0600
1C0600
180300
1FFF00
3FFF80
300180
700180
6000C0
E000C0
4000C0
ENDCHAR
STARTCHAR char515
ENCODING 515
SWIDTH 26 0
DWIDTH 18 0
BBX 14 22 2 0
BITMAP
0780
0FC0
1860
1860
0000
0000
0000
0FC0
3FF0
7838
6018
C00C
C00C
C00C
C00C
C00C
C00C
C00C
601C
783C
3FEC
0FC4
ENDCHAR
STARTCHAR char516
ENCODING 516
SWIDTH 26 0
DWIDTH 18 0
BBX 14 29 3 0
BITMAP
0880
0CC0
0CC0
0CC0
0660
0660
0000
0000
FFFC
FFFC
C000
C000
C000
C000
C000
C000
C000
FFE0
FFE0
C000
C000
C000
C000
C000
C000
C000
C000
FFFC
FFFC
ENDCHAR
STARTCHAR char517
ENCODING 517
SWIDTH 19 0
DWIDTH 16 0
BBX 13 23 2 0
BITMAP
1100
1980
1980
0CC0
0CC0
0440
0000
0000
0F80
3FE0
7070
6038
C018
C018
FFF8
FFF8
C000
C000
C000
6000
7030
3FF0
0FC0
ENDCHAR
STARTCHAR char518
ENCODING 518
SWIDTH 26 0
DWIDTH 18 0
BBX 14 28 3 0
BITMAP
0780
0FE0
1C60
1860
0000
0000
0000
FFFC
FFFC
C000
C000
C000
C000
C000
C000
C000
FFE0
FFE0
C000
C000
C000
C000
C000
C000
C000
C000
FFFC
FFFC
ENDCHAR
STARTCHAR char519
ENCODING 519
SWIDTH 19 0
DWIDTH 16 0
BBX 13 22 2 0
BITMAP
0F00
1FC0
38C0
3060
0000
0000
0000
0F80
3FE0
7070
6038
C018
C018
FFF8
FFF8
C000
C000
C000
6000
7030
3FF0
0FC0
ENDCHAR
STARTCHAR char520
ENCODING 520
SWIDTH 23 0
DWIDTH 7 0
BBX 7 29 0 0
BITMAP
44
CC
CE
66
66
22
00
00
18
18
18
18
18
18
18
18
18
18
18
18
18
18
18
18
18
18
18
18
18
ENDCHAR
STARTCHAR char521
ENCODING 521
SWIDTH 26 0
DWIDTH 8 0
BBX 7 23 0 0
BITMAP
44
CC
66
66
62
22
00
00
18
18
18
18
18
18
18
18
18
18
18
18
18
18
18
ENDCHAR
STARTCHAR char522
ENCODING 522
SWIDTH 23 0
DWIDTH 7 0
BBX 8 28 0 0
BITMAP
3C
FE
C7
C3
00
00
00
18
18
18
18
18
18
18
18
18
18
18
18
18
18
18
18
18
18
18
18
18
ENDCHAR
STARTCHAR char523
ENCODING 523
SWIDTH 26 0
DWIDTH 8 0
BBX 8 21 0 0
BITMAP
3C
7E
C7
C3
00
00
18
18
18
18
18
18
18
18
18
18
18
18
18
18
18
ENDCHAR
STARTCHAR char524
ENCODING 524
SWIDTH 15 0
DWIDTH 25 0
BBX 21 29 2 0
BITMAP
011000
019800
019800
019800
00CC00
00CC00
000000
000000
01FC00
07FF00
1E0380
3801C0
700060
600070
E00030
C00038
C00018
C00018
C00018
C00018
C00018
C00038
E00030
600070
700060
3801C0
1E0380
07FF00
01FC00
ENDCHAR
STARTCHAR char525
ENCODING 525
SWIDTH 26 0
DWIDTH 18 0
BBX 14 23 2 0
BITMAP
0880
1DC0
0CC0
0CC0
0440
0660
0000
0000
0FC0
3FF0
7838
6018
C00C
C00C
C00C
C00C
C00C
C00C
C00C
6018
7838
3FF0
0FC0
ENDCHAR
STARTCHAR char526
ENCODING 526
SWIDTH 15 0
DWIDTH 25 0
BBX 21 28 2 0
BITMAP
00F000
01FC00
038C00
030C00
000000
000000
000000
01FC00
07FF00
1E0380
3801C0
700060
600070
E00030
C00038
C00018
C00018
C00018
C00018
C00018
C00038
E00030
600070
700060
3801C0
1E0380
07FF00
01FC00
ENDCHAR
STARTCHAR char527
ENCODING 527
SWIDTH 26 0
DWIDTH 18 0
BBX 14 22 2 0
BITMAP
0780
0FC0
1860
1860
0000
0000
0000
0FC0
3FF0
7838
6018
C00C
C00C
C00C
C00C
C00C
C00C
C00C
6018
7838
3FF0
0FC0
ENDCHAR
STARTCHAR char528
ENCODING 528
SWIDTH 19 0
DWIDTH 16 0
BBX 13 29 3 0
BITMAP
2100
3300
3300
1980
1980
0880
0000
0000
FF00
FFC0
C0E0
C070
C030
C030
C030
C030
C030
C070
C0E0
FFC0
FF00
C180
C1C0
C0C0
C0E0
C060
C030
C038
C018
ENDCHAR
STARTCHAR char529
ENCODING 529
SWIDTH 6 0
DWIDTH 12 0
BBX 9 23 2 0
BITMAP
2200
6600
3300
3300
3100
1100
0000
0000
4780
DF80
F000
E000
E000
C000
C000
C000
C000
C000
C000
C000
C000
C000
4000
ENDCHAR
STARTCHAR char530
ENCODING 530
SWIDTH 19 0
DWIDTH 16 0
BBX 13 28 3 0
BITMAP
0F00
3F80
31C0
60C0
0000
0000
0000
FF00
FFC0
C0E0
C070
C030
C030
C030
C030
C030
C070
C0E0
FFC0
FF00
C180
C1C0
C0C0
C0E0
C060
C030
C038
C018
ENDCHAR
STARTCHAR char531
ENCODING 531
SWIDTH 6 0
DWIDTH 12 0
BBX 9 22 2 0
BITMAP
1E00
7F00
6380
6180
0000
0000
0000
4780
DF80
F000
E000
E000
C000
C000
C000
C000
C000
C000
C000
C000
C000
4000
ENDCHAR
STARTCHAR char532
ENCODING 532
SWIDTH 5 0
DWIDTH 22 0
BBX 16 29 3 0
BITMAP
0440
0CC0
0660
0660
0220
0330
0000
0000
C003
C003
C003
C003
C003
C003
C003
C003
C003
C003
C003
C003
C003
C003
C003
C003
E007
600E
781C
1FF8
07E0
ENDCHAR
STARTCHAR char533
ENCODING 533
SWIDTH 26 0
DWIDTH 18 0
BBX 14 23 2 0
BITMAP
0880
1DC0
0CC0
0CC0
0440
0660
0000
0000
C008
C00C
C00C
C00C
C00C
C00C
C00C
C00C
C00C
C00C
E01C
601C
707C
3FEC
0F88
ENDCHAR
STARTCHAR char534
ENCODING 534
SWIDTH 5 0
DWIDTH 22 0
BBX 16 28 3 0
BITMAP
03C0
0FE0
0C30
0C30
0000
0000
0000
C003
C003
C003
C003
C003
C003
C003
C003
C003
C003
C003
C003
C003
C003
C003
C003
E007
600E
781C
1FF8
07E0
ENDCHAR
STARTCHAR char535
ENCODING 535
SWIDTH 26 0
DWIDTH 18 0
BBX 14 22 2 0
BITMAP
0780
0FC0
1860
1860
0000
0000
0000
C008
C00C
C00C
C00C
C00C
C00C
C00C
C00C
C00C
C00C
E01C
601C
707C
3FEC
0F88
ENDCHAR
STARTCHAR char536
ENCODING 536
SWIDTH 26 0
DWIDTH 18 0
BBX 14 27 2 -6
BITMAP
0FC0
3FF0
7038
6018
C008
C000
E000
6000
3800
1F80
07F0
0078
0018
000C
000C
000C
C00C
C018
7038
3FF0
0FC0
0380
03C0
00C0
0C40
0FC0
0780
ENDCHAR
STARTCHAR char537
ENCODING 537
SWIDTH 13 0
DWIDTH 14 0
BBX 11 21 2 -6
BITMAP
1F00
7FC0
E0E0
C060
C000
E000
7C00
1F80
01C0
0060
0060
8060
E0E0
7FC0
1F00
0E00
0F00
0180
3180
3F00
1E00
ENDCHAR
STARTCHAR char538
ENCODING 538
SWIDTH 23 0
DWIDTH 17 0
BBX 17 27 0 -6
BITMAP
FFFF80
7FFF80
00C000
00C000
00C000
00C000
00C000
00C000
00C000
00C000
00C000
00C000
00C000
00C000
00C000
00C000
00C000
00C000
00C000
00C000
00C000
00E000
00F000
003000
023000
03F000
01E000
ENDCHAR
STARTCHAR char539
ENCODING 539
SWIDTH 2 0
DWIDTH 11 0
BBX 9 26 1 -6
BITMAP
1000
3000
3000
3000
3000
3000
FF00
FF00
3000
3000
3000
3000
3000
3000
3000
3000
3800
1800
0F80
0780
0E00
0F00
0100
3100
3F00
1E00
ENDCHAR
STARTCHAR char554
ENCODING 554
SWIDTH 15 0
DWIDTH 25 0
BBX 21 31 2 0
BITMAP
03FE00
03FE00
000000
000000
038C00
038E00
038C00
000000
000000
000000
01FC00
07FF00
1E0380
3801C0
700060
600070
E00030
C00038
C00018
C00018
C00018
C00018
C00018
C00038
E00030
600070
700060
3801C0
1E0380
07FF00
01FC00
ENDCHAR
STARTCHAR char555
ENCODING 555
SWIDTH 26 0
DWIDTH 18 0
BBX 14 25 2 0
BITMAP
1FE0
1FF0
0000
0000
1860
1CE0
1860
0000
0000
0000
0FC0
3FF0
7838
6018
C00C
C00C
C00C
C00C
C00C
C00C
C00C
6018
7838
3FF0
0FC0
ENDCHAR
STARTCHAR char556
ENCODING 556
SWIDTH 15 0
DWIDTH 25 0
BBX 21 31 2 0
BITMAP
03FE00
03FE00
000000
000000
000000
01E100
03FF00
061E00
000000
000000
01FC00
07FF00
1E0380
3801C0
700060
600070
E00030
C00038
C00018
C00018
C00018
C00018
C00018
C00038
E00030
600070
700060
3801C0
1E0380
07FF00
01FC00
ENDCHAR
STARTCHAR char557
ENCODING 557
SWIDTH 26 0
DWIDTH 18 0
BBX 14 24 2 0
BITMAP
1FF0
1FF0
0000
0000
0F18
3FF8
30F0
0000
0000
0FC0
3FF0
7838
6018
C00C
C00C
C00C
C00C
C00C
C00C
C00C
6018
7838
3FF0
0FC0
ENDCHAR
STARTCHAR char560
ENCODING 560
SWIDTH 15 0
DWIDTH 25 0
BBX 21 31 2 0
BITMAP
03FE00
03FE00
000000
000000
006000
007000
006000
000000
000000
000000
01FC00
07FF00
1E0380
3801C0
700060
600070
E00030
C00038
C00018
C00018
C00018
C00018
C00018
C00038
E00030
600070
700060
3801C0
1E0380
07FF00
01FC00
ENDCHAR
STARTCHAR char561
ENCODING 561
SWIDTH 26 0
DWIDTH 18 0
BBX 14 24 2 0
BITMAP
1FE0
1FF0
0000
0300
0300
0300
0000
0000
0000
0FC0
3FF0
7838
6018
C00C
C00C
C00C
C00C
C00C
C00C
C00C
6018
7838
3FF0
0FC0
ENDCHAR
STARTCHAR char562
ENCODING 562
SWIDTH 23 0
DWIDTH 17 0
BBX 17 26 0 0
BITMAP
0FF800
0FF800
000000
000000
000000
C00180
E00180
600300
700700
300600
180E00
1C0C00
0C1800
063800
073000
036000
03E000
01C000
00C000
00C000
00C000
00C000
00C000
00C000
00C000
00C000
ENDCHAR
STARTCHAR char563
ENCODING 563
SWIDTH 16 0
DWIDTH 15 0
BBX 14 26 0 -6
BITMAP
1FF0
1FF0
0000
0000
0000
C004
600C
600C
3018
3018
1830
1830
0C70
0C60
06E0
06C0
07C0
0380
0380
0300
0300
0600
0600
0E00
0C00
0C00
ENDCHAR
STARTCHAR char567
ENCODING 567
SWIDTH 26 0
DWIDTH 8 0
BBX 8 21 -3 -6
BITMAP
03
03
03
03
03
03
03
03
03
03
03
03
03
03
03
03
07
06
0E
7C
F0
ENDCHAR
STARTCHAR char601
ENCODING 601
SWIDTH 19 0
DWIDTH 16 0
BBX 14 15 1 0
BITMAP
0F80
3FE0
7070
0038
0018
001C
000C
FFFC
FFFC
C00C
C018
6018
7070
3FE0
0F80
ENDCHAR
STARTCHAR char700
ENCODING 700
SWIDTH 16 0
DWIDTH 5 0
BBX 4 7 -2 14
BITMAP
60
60
70
60
60
60
C0
ENDCHAR
STARTCHAR char710
ENCODING 710
SWIDTH 33 0
DWIDTH 10 0
BBX 8 4 1 17
BITMAP
18
3E
F7
C3
ENDCHAR
STARTCHAR char711
ENCODING 711
SWIDTH 33 0
DWIDTH 10 0
BBX 8 4 1 17
BITMAP
C3
E7
3E
18
ENDCHAR
STARTCHAR char713
ENCODING 713
SWIDTH 33 0
DWIDTH 10 0
BBX 8 2 1 17
BITMAP
FF
FF
ENDCHAR
STARTCHAR char728
ENCODING 728
SWIDTH 33 0
DWIDTH 10 0
BBX 8 4 1 17
BITMAP
C3
C3
7F
3C
ENDCHAR
STARTCHAR char729
ENCODING 729
SWIDTH 16 0
DWIDTH 5 0
BBX 3 3 1 17
BITMAP
E0
E0
E0
ENDCHAR
STARTCHAR char730
ENCODING 730
SWIDTH 23 0
DWIDTH 7 0
BBX 5 5 1 16
BITMAP
70
C8
88
C8
70
ENDCHAR
STARTCHAR char731
ENCODING 731
SWIDTH 26 0
DWIDTH 8 0
BBX 6 8 1 -6
BITMAP
10
30
70
E0
C0
CC
7C
78
ENDCHAR
STARTCHAR char732
ENCODING 732
SWIDTH 9 0
DWIDTH 13 0
BBX 11 3 1 17
BITMAP
3C40
FFE0
C7C0
ENDCHAR
STARTCHAR char733
ENCODING 733
SWIDTH 30 0
DWIDTH 9 0
BBX 7 6 1 16
BITMAP
22
66
66
66
CC
CC
ENDCHAR
STARTCHAR char768
ENCODING 768
SWIDTH 0 0
DWIDTH 0 0
BBX 5 5 -6 17
BITMAP
C0
E0
70
38
18
ENDCHAR
STARTCHAR char769
ENCODING 769
SWIDTH 0 0
DWIDTH 0 0
BBX 5 5 -6 17
BITMAP
18
38
70
E0
C0
ENDCHAR
STARTCHAR char770
ENCODING 770
SWIDTH 0 0
DWIDTH 0 0
BBX 8 4 -9 17
BITMAP
18
7C
EF
C3
ENDCHAR
STARTCHAR char771
ENCODING 771
SWIDTH 0 0
DWIDTH 0 0
BBX 10 3 -11 17
BITMAP
7840
FFC0
8780
ENDCHAR
STARTCHAR char772
ENCODING 772
SWIDTH 0 0
DWIDTH 0 0
BBX 9 2 -12 18
BITMAP
FF80
FF80
ENDCHAR
STARTCHAR char774
ENCODING 774
SWIDTH 0 0
DWIDTH 0 0
BBX 8 4 -9 17
BITMAP
83
C3
FE
7C
ENDCHAR
STARTCHAR char775
ENCODING 775
SWIDTH 0 0
DWIDTH 0 0
BBX 3 3 -5 18
BITMAP
C0
E0
C0
ENDCHAR
STARTCHAR char776
ENCODING 776
SWIDTH 0 0
DWIDTH 0 0
BBX 9 3 -11 18
BITMAP
6300
E380
6300
ENDCHAR
STARTCHAR char777
ENCODING 777
SWIDTH 0 0
DWIDTH 0 0
BBX 6 7 -7 17
BITMAP
70
F8
8C
0C
18
70
60
ENDCHAR
STARTCHAR char778
ENCODING 778
SWIDTH 0 0
DWIDTH 0 0
BBX 5 5 -6 16
BITMAP
70
98
88
98
70
ENDCHAR
STARTCHAR char779
ENCODING 779
SWIDTH 0 0
DWIDTH 0 0
BBX 7 6 -8 17
BITMAP
44
66
E6
CC
CC
88
ENDCHAR
STARTCHAR char780
ENCODING 780
SWIDTH 0 0
DWIDTH 0 0
BBX 8 4 -9 17
BITMAP
C3
EF
7C
18
ENDCHAR
STARTCHAR char783
ENCODING 783
SWIDTH 0 0
DWIDTH 0 0
BBX 7 6 -8 17
BITMAP
88
CC
CC
46
66
62
ENDCHAR
STARTCHAR char785
ENCODING 785
SWIDTH 0 0
DWIDTH 0 0
BBX 9 4 -10 18
BITMAP
1C00
7F00
E300
C180
ENDCHAR
STARTCHAR char786
ENCODING 786
SWIDTH 0 0
DWIDTH 0 0
BBX 4 7 -5 18
BITMAP
20
60
40
E0
E0
F0
60
ENDCHAR
STARTCHAR char795
ENCODING 795
SWIDTH 0 0
DWIDTH 0 0
BBX 5 5 -6 13
BITMAP
10
18
18
F0
E0
ENDCHAR
STARTCHAR char803
ENCODING 803
SWIDTH 0 0
DWIDTH 0 0
BBX 3 3 -4 -6
BITMAP
C0
E0
C0
ENDCHAR
STARTCHAR char804
ENCODING 804
SWIDTH 0 0
DWIDTH 0 0
BBX 9 3 -10 -5
BITMAP
6300
E380
6300
ENDCHAR
STARTCHAR char806
ENCODING 806
SWIDTH 0 0
DWIDTH 0 0
BBX 6 6 -7 -6
BITMAP
38
3C
0C
C4
FC
78
ENDCHAR
STARTCHAR char807
ENCODING 807
SWIDTH 0 0
DWIDTH 0 0
BBX 7 8 -8 -6
BITMAP
08
18
18
1E
06
46
FE
3C
ENDCHAR
STARTCHAR char808
ENCODING 808
SWIDTH 0 0
DWIDTH 0 0
BBX 6 8 -7 -6
BITMAP
20
30
70
E0
C0
CC
FC
70
ENDCHAR
STARTCHAR char814
ENCODING 814
SWIDTH 0 0
DWIDTH 0 0
BBX 8 4 -9 -6
BITMAP
C3
C3
FE
7C
ENDCHAR
STARTCHAR char817
ENCODING 817
SWIDTH 0 0
DWIDTH 0 0
BBX 9 2 -10 -4
BITMAP
FF00
FF80
ENDCHAR
STARTCHAR char821
ENCODING 821
SWIDTH 0 0
DWIDTH 0 0
BBX 10 2 -12 8
BITMAP
FFC0
FFC0
ENDCHAR
STARTCHAR char822
ENCODING 822
SWIDTH 0 0
DWIDTH 0 0
BBX 22 2 -23 8
BITMAP
FFFFFC
FFFFFC
ENDCHAR
STARTCHAR char900
ENCODING 900
SWIDTH 23 0
DWIDTH 7 0
BBX 5 5 1 18
BITMAP
18
38
70
E0
C0
ENDCHAR
STARTCHAR char901
ENCODING 901
SWIDTH 13 0
DWIDTH 14 0
BBX 11 6 1 17
BITMAP
0100
0300
4760
E660
6C60
0C00
ENDCHAR
STARTCHAR char902
ENCODING 902
SWIDTH 29 0
DWIDTH 19 0
BBX 18 22 1 0
BITMAP
180000
388000
71C000
E1C000
C3E000
036000
037000
063000
063000
0C1800
0C1800
1C1C00
180C00
180C00
300600
3FFE00
7FFF00
600300
600380
C00180
C001C0
C00080
ENDCHAR
STARTCHAR char903
ENCODING 903
SWIDTH 16 0
DWIDTH 5 0
BBX 3 3 1 12
BITMAP
E0
E0
E0
ENDCHAR
STARTCHAR char904
ENCODING 904
SWIDTH 5 0
DWIDTH 22 0
BBX 21 22 0 0
BITMAP
180000
39FFF8
73FFF8
E30000
C30000
030000
030000
030000
030000
030000
03FFC0
03FFC0
030000
030000
030000
030000
030000
030000
030000
030000
03FFF8
01FFF8
ENDCHAR
STARTCHAR char905
ENCODING 905
SWIDTH 19 0
DWIDTH 26 0
BBX 23 22 0 0
BITMAP
180000
3B0006
730006
E30006
C30006
030006
030006
030006
030006
030006
03FFFE
03FFFE
030006
030006
030006
030006
030006
030006
030006
030006
030006
030006
ENDCHAR
STARTCHAR char906
ENCODING 906
SWIDTH 2 0
DWIDTH 11 0
BBX 8 22 0 0
BITMAP
18
3B
73
E3
C3
03
03
03
03
03
03
03
03
03
03
03
03
03
03
03
03
03
ENDCHAR
STARTCHAR char908
ENCODING 908
SWIDTH 19 0
DWIDTH 26 0
BBX 24 22 0 0
BITMAP
180000
383F80
70FFE0
E3C078
C7001C
06000C
0C0006
0C0006
180003
180003
180003
180003
180003
180003
180003
0C0006
0C0006
06000C
07001C
03C078
00FFE0
003F80
ENDCHAR
STARTCHAR char910
ENCODING 910
SWIDTH 9 0
DWIDTH 23 0
BBX 23 22 0 0
BITMAP
180000
3B0006
73000E
E3800C
C18018
00C038
00E030
006070
003060
0030C0
0019C0
001D80
000F00
000700
000600
000600
000600
000600
000600
000600
000600
000600
ENDCHAR
STARTCHAR char911
ENCODING 911
SWIDTH 19 0
DWIDTH 26 0
BBX 24 22 0 0
BITMAP
180000
383F80
70FFE0
E1E070
C38038
07000C
0E000E
0C0006
0C0007
1C0003
180003
180003
180003
180003
1C0003
0C0007
0C0006
06000E
07000C
038018
1FE0FF
1FF0FF
ENDCHAR
STARTCHAR char912
ENCODING 912
SWIDTH 26 0
DWIDTH 8 0
BBX 11 23 -1 0
BITMAP
0200
0700
C640
CEE0
DCC0
1800
0000
0000
0C00
0C00
0C00
0C00
0C00
0C00
0C00
0C00
0C00
0C00
0C00
0C00
0C00
0C00
0C00
ENDCHAR
STARTCHAR char913
ENCODING 913
SWIDTH 29 0
DWIDTH 19 0
BBX 18 21 0 0
BITMAP
004000
00E000
00E000
01F000
01B000
03B000
031800
031800
060C00
060C00
0E0E00
0C0600
1C0600
180300
1FFF00
3FFF80
300180
700180
6000C0
E000C0
4000C0
ENDCHAR
STARTCHAR char914
ENCODING 914
SWIDTH 29 0
DWIDTH 19 0
BBX 14 21 3 0
BITMAP
FFC0
FFE0
C070
C038
C018
C018
C018
C030
C070
FFE0
FFF0
C038
C01C
C00C
C00C
C00C
C00C
C01C
C038
FFF0
FFC0
ENDCHAR
STARTCHAR char915
ENCODING 915
SWIDTH 23 0
DWIDTH 17 0
BBX 15 21 1 0
BITMAP
FFFE
FFFC
C000
C000
C000
C000
C000
C000
C000
C000
C000
C000
C000
C000
C000
C000
C000
C000
C000
C000
C000
ENDCHAR
STARTCHAR char916
ENCODING 916
SWIDTH 29 0
DWIDTH 19 0
BBX 17 21 1 0
BITMAP
008000
01C000
01C000
03E000
036000
076000
067000
063000
0E3800
0C1800
1C1C00
180C00
180C00
300E00
300600
700700
600300
E00300
C00180
FFFF80
FFFF80
ENDCHAR
STARTCHAR char917
ENCODING 917
SWIDTH 26 0
DWIDTH 18 0
BBX 14 21 3 0
BITMAP
FFFC
FFFC
C000
C000
C000
C000
C000
C000
C000
FFE0
FFE0
C000
C000
C000
C000
C000
C000
C000
C000
FFFC
FFFC
ENDCHAR
STARTCHAR char918
ENCODING 918
SWIDTH 29 0
DWIDTH 19 0
BBX 17 21 1 0
BITMAP
FFFF80
7FFF80
000300
000600
000E00
001C00
001800
003000
006000
00E000
01C000
018000
030000
060000
0E0000
0C0000
180000
300000
600000
FFFF80
FFFF80
ENDCHAR
STARTCHAR char919
ENCODING 919
SWIDTH 9 0
DWIDTH 23 0
BBX 17 21 3 0
BITMAP
C00180
C00180
C00180
C00180
C00180
C00180
C00180
C00180
C00180
FFFF80
FFFF80
C00180
C00180
C00180
C00180
C00180
C00180
C00180
C00180
C00180
C00180
ENDCHAR
STARTCHAR char920
ENCODING 920
SWIDTH 15 0
DWIDTH 25 0
BBX 21 21 2 0
BITMAP
01FC00
07FF00
1E0780
3801C0
700060
600070
E00030
C00038
C00018
C7FE18
C7FF18
C00018
C00018
C00038
E00030
600070
700060
3801C0
1E0380
07FF00
01FC00
ENDCHAR
STARTCHAR char921
ENCODING 921
SWIDTH 23 0
DWIDTH 7 0
BBX 2 21 3 0
BITMAP
C0
C0
C0
C0
C0
C0
C0
C0
C0
C0
C0
C0
C0
C0
C0
C0
C0
C0
C0
C0
C0
ENDCHAR
STARTCHAR char922
ENCODING 922
SWIDTH 23 0
DWIDTH 17 0
BBX 13 21 3 0
BITMAP
C018
C038
C070
C0E0
C1C0
C380
C700
CE00
DC00
FC00
FE00
E600
C700
C380
C180
C0C0
C0E0
C070
C030
C018
C018
ENDCHAR
STARTCHAR char923
ENCODING 923
SWIDTH 29 0
DWIDTH 19 0
BBX 18 21 0 0
BITMAP
004000
00E000
00E000
01F000
01B000
03B000
031800
031800
060C00
060C00
0E0E00
0C0600
0C0600
180300
180300
380380
300180
700180
6000C0
E000C0
400040
ENDCHAR
STARTCHAR char924
ENCODING 924
SWIDTH 19 0
DWIDTH 26 0
BBX 21 21 3 0
BITMAP
C00010
C00038
E00038
E00078
F00078
F000F8
F800F8
D801B8
DC01B8
CC0338
CC0338
C60638
C60638
C30C38
C30C38
C19838
C19838
C0F038
C0F038
C06038
C06010
ENDCHAR
STARTCHAR char925
ENCODING 925
SWIDTH 5 0
DWIDTH 22 0
BBX 16 21 3 0
BITMAP
C003
C003
E003
F003
F803
D803
CC03
C603
C703
C303
C183
C0C3
C0E3
C063
C033
C01B
C01F
C00F
C007
C003
C003
ENDCHAR
STARTCHAR char926
ENCODING 926
SWIDTH 23 0
DWIDTH 17 0
BBX 15 21 1 0
BITMAP
FFFE
FFFC
0000
0000
0000
0000
0000
0000
0000
7FF8
7FFC
0000
0000
0000
0000
0000
0000
0000
0000
FFFC
FFFE
ENDCHAR
STARTCHAR char927
ENCODING 927
SWIDTH 15 0
DWIDTH 25 0
BBX 21 21 2 0
BITMAP
01FC00
07FF00
1E0780
3801C0
700060
600070
E00030
C00038
C00018
C00018
C00018
C00018
C00018
C00038
E00030
600070
700060
3801C0
1E0380
07FF00
01FC00
ENDCHAR
STARTCHAR char928
ENCODING 928
SWIDTH 26 0
DWIDTH 18 0
BBX 16 21 1 0
BITMAP
FFFF
FFFF
C003
C003
C003
C003
C003
C003
C003
C003
C003
C003
C003
C003
C003
C003
C003
C003
C003
C003
C003
ENDCHAR
STARTCHAR char929
ENCODING 929
SWIDTH 19 0
DWIDTH 16 0
BBX 13 21 3 0
BITMAP
FF80
FFE0
C0E0
C030
C030
C018
C018
C018
C030
C030
C0E0
FFC0
FF00
C000
C000
C000
C000
C000
C000
C000
C000
ENDCHAR
STARTCHAR char931
ENCODING 931
SWIDTH 23 0
DWIDTH 17 0
BBX 15 21 1 0
BITMAP
FFFE
FFFC
7000
3000
3800
1C00
0E00
0600
0300
0380
0180
0380
0300
0600
0E00
1C00
3800
3000
7000
FFFC
FFFE
ENDCHAR
STARTCHAR char932
ENCODING 932
SWIDTH 23 0
DWIDTH 17 0
BBX 17 21 0 0
BITMAP
FFFF80
7FFF80
00C000
00C000
00C000
00C000
00C000
00C000
00C000
00C000
00C000
00C000
00C000
00C000
00C000
00C000
00C000
00C000
00C000
00C000
00C000
ENDCHAR
STARTCHAR char933
ENCODING 933
SWIDTH 23 0
DWIDTH 17 0
BBX 17 21 0 0
BITMAP
C00180
E00180
600300
700700
300600
180E00
1C0C00
0C1800
063800
063000
036000
03E000
01C000
00C000
00C000
00C000
00C000
00C000
00C000
00C000
00C000
ENDCHAR
STARTCHAR char934
ENCODING 934
SWIDTH 9 0
DWIDTH 23 0
BBX 19 21 2 0
BITMAP
004000
00C000
00E000
0FFE00
1ECF00
38C380
60C0C0
E0C0E0
C0C060
C0C060
C0C060
C0C060
C0C060
E0C060
60C0C0
78C3C0
3ECF00
0FFE00
01F000
00C000
004000
ENDCHAR
STARTCHAR char935
ENCODING 935
SWIDTH 29 0
DWIDTH 19 0
BBX 17 21 1 0
BITMAP
600100
600300
300700
380E00
180C00
0C1800
0E3800
073000
036000
03E000
01C000
03E000
077000
063000
0E3800
1C1C00
180C00
300600
700700
E00380
C00180
ENDCHAR
STARTCHAR char936
ENCODING 936
SWIDTH 29 0
DWIDTH 19 0
BBX 17 21 1 0
BITMAP
C18180
C18180
C18180
C18180
C18180
C18180
C18180
C18380
C18300
618300
718700
398E00
1FBC00
0FF800
03C000
018000
018000
018000
018000
018000
018000
ENDCHAR
STARTCHAR char937
ENCODING 937
SWIDTH 12 0
DWIDTH 24 0
BBX 20 21 2 0
BITMAP
01F800
07FE00
1E0780
3801C0
3000E0
600060
E00070
C00030
C00030
C00030
C00030
C00030
C00030
C00030
C00030
E00070
600060
3000E0
1801C0
FF0FF0
FF0FF0
ENDCHAR
STARTCHAR char938
ENCODING 938
SWIDTH 23 0
DWIDTH 7 0
BBX 9 27 -1 0
BITMAP
6380
E380
6380
0000
0000
0000
0C00
0C00
0C00
0C00
0C00
0C00
0C00
0C00
0C00
0C00
0C00
0C00
0C00
0C00
0C00
0C00
0C00
0C00
0C00
0C00
0C00
ENDCHAR
STARTCHAR char939
ENCODING 939
SWIDTH 23 0
DWIDTH 17 0
BBX 17 27 0 0
BITMAP
063800
0E3800
063800
000000
000000
000000
C00180
E00180
600300
700700
300600
180E00
1C0C00
0C1800
063800
063000
036000
03E000
01C000
00C000
00C000
00C000
00C000
00C000
00C000
00C000
00C000
ENDCHAR
STARTCHAR char940
ENCODING 940
SWIDTH 29 0
DWIDTH 19 0
BBX 17 23 1 0
BITMAP
006000
00E000
01C000
038000
030000
000000
000000
000000
07C180
1FF380
383B00
701B00
600F00
C00F00
C00600
C00600
C00600
C00E00
600F00
701F00
383B00
1FF380
07C180
ENDCHAR
STARTCHAR char941
ENCODING 941
SWIDTH 2 0
DWIDTH 11 0
BBX 10 23 1 0
BITMAP
0600
0E00
1C00
3800
3000
0000
0000
0000
3E00
7F80
E1C0
C080
C000
E000
7C00
7C00
E000
C000
C000
C0C0
E3C0
7F00
3E00
ENDCHAR
STARTCHAR char942
ENCODING 942
SWIDTH 26 0
DWIDTH 18 0
BBX 14 29 2 -6
BITMAP
00C0
01C0
0380
0700
0600
0000
0000
0000
47C0
DFF0
F838
E018
E01C
C00C
C00C
C00C
C00C
C00C
C00C
C00C
C00C
C00C
400C
000C
000C
000C
000C
000C
000C
ENDCHAR
STARTCHAR char943
ENCODING 943
SWIDTH 26 0
DWIDTH 8 0
BBX 5 23 1 0
BITMAP
18
38
70
E0
C0
00
00
00
30
30
30
30
30
30
30
30
30
30
30
30
30
30
30
ENDCHAR
STARTCHAR char944
ENCODING 944
SWIDTH 19 0
DWIDTH 16 0
BBX 14 23 1 0
BITMAP
0080
01C0
3190
33B8
3730
0600
0000
0000
C008
C00C
C00C
C00C
C00C
C00C
C00C
C00C
C01C
C018
E018
6038
3870
1FE0
0F80
ENDCHAR
STARTCHAR char945
ENCODING 945
SWIDTH 29 0
DWIDTH 19 0
BBX 17 15 1 0
BITMAP
07C180
1FF380
383B00
701B00
600F00
C00F00
C00600
C00600
C00600
C00E00
600F00
701F00
383B00
1FF380
07C180
ENDCHAR
STARTCHAR char946
ENCODING 946
SWIDTH 16 0
DWIDTH 15 0
BBX 13 27 1 -6
BITMAP
1F00
3F80
71C0
E0C0
C0E0
C0C0
C0C0
C1C0
CF80
CFC0
C0E0
C070
C030
C038
C038
C038
C030
E070
F0E0
FFC0
CF80
C000
C000
C000
C000
C000
C000
ENDCHAR
STARTCHAR char947
ENCODING 947
SWIDTH 19 0
DWIDTH 16 0
BBX 14 21 1 -6
BITMAP
C008
C01C
E018
6038
7030
3070
3860
18E0
1CC0
0CC0
0D80
0780
0780
0300
0300
0300
0300
0300
0300
0300
0300
ENDCHAR
STARTCHAR char948
ENCODING 948
SWIDTH 23 0
DWIDTH 17 0
BBX 15 21 1 0
BITMAP
7FF8
7FF8
3C00
1E00
0700
0380
03C0
1FE0
3EF8
7038
601C
E00C
C00E
C006
C00E
C00C
600C
701C
3838
1FF0
07C0
ENDCHAR
STARTCHAR char949
ENCODING 949
SWIDTH 2 0
DWIDTH 11 0
BBX 10 15 1 0
BITMAP
3E00
7F80
E1C0
C080
C000
E000
7C00
7C00
E000
C000
C000
C0C0
E3C0
7F00
3E00
ENDCHAR
STARTCHAR char950
ENCODING 950
SWIDTH 16 0
DWIDTH 15 0
BBX 13 27 1 -6
BITMAP
FFF0
FFF8
00E0
03C0
0780
0E00
1C00
3800
7000
6000
E000
C000
C000
C000
C000
E000
6000
7000
3C00
1FC0
07F0
0030
0038
0038
0030
00F0
01C0
ENDCHAR
STARTCHAR char951
ENCODING 951
SWIDTH 26 0
DWIDTH 18 0
BBX 14 21 2 -6
BITMAP
47C0
DFF0
F838
E018
E01C
C00C
C00C
C00C
C00C
C00C
C00C
C00C
C00C
C00C
400C
000C
000C
000C
000C
000C
000C
ENDCHAR
STARTCHAR char952
ENCODING 952
SWIDTH 16 0
DWIDTH 15 0
BBX 13 21 1 0
BITMAP
0F80
1FC0
30E0
7060
6030
6030
C030
C030
C030
FFF8
FFF8
C038
C030
C030
E030
6030
6070
7060
38E0
1FC0
0F80
ENDCHAR
STARTCHAR char953
ENCODING 953
SWIDTH 26 0
DWIDTH 8 0
BBX 2 15 3 0
BITMAP
C0
C0
C0
C0
C0
C0
C0
C0
C0
C0
C0
C0
C0
C0
C0
ENDCHAR
STARTCHAR char954
ENCODING 954
SWIDTH 16 0
DWIDTH 15 0
BBX 13 15 1 0
BITMAP
C030
C078
C0E0
C3C0
C700
DE00
FC00
FE00
C700
C380
C1C0
C0E0
C070
C038
C010
ENDCHAR
STARTCHAR char955
ENCODING 955
SWIDTH 16 0
DWIDTH 15 0
BBX 13 21 1 0
BITMAP
1800
1800
1800
0C00
0C00
0E00
0600
0600
0700
0F00
0F80
1D80
19C0
18C0
38C0
30E0
7060
6070
6030
C038
C010
ENDCHAR
STARTCHAR char956
ENCODING 956
SWIDTH 26 0
DWIDTH 18 0
BBX 14 20 2 -5
BITMAP
C008
C00C
C00C
C00C
C00C
C00C
C00C
C00C
C00C
C00C
E01C
E01C
F07C
FFEC
CF88
C000
C000
C000
C000
C000
ENDCHAR
STARTCHAR char957
ENCODING 957
SWIDTH 16 0
DWIDTH 15 0
BBX 14 15 0 0
BITMAP
4004
E00C
600C
7018
3018
3030
1830
1870
0C60
0CE0
06C0
06C0
0380
0380
0100
ENDCHAR
STARTCHAR char958
ENCODING 958
SWIDTH 9 0
DWIDTH 13 0
BBX 11 27 1 -6
BITMAP
0F80
3F80
7000
6000
6000
6000
7000
3F80
3F80
7800
6000
E000
C000
C000
C000
C000
E000
6000
3800
1F80
0FC0
00E0
0060
0060
00E0
03C0
0380
ENDCHAR
STARTCHAR char959
ENCODING 959
SWIDTH 26 0
DWIDTH 18 0
BBX 14 15 2 0
BITMAP
0FC0
3FF0
7838
6018
C00C
C00C
C00C
C00C
C00C
C00C
C00C
6018
7838
3FF0
0FC0
ENDCHAR
STARTCHAR char960
ENCODING 960
SWIDTH 23 0
DWIDTH 17 0
BBX 15 15 1 0
BITMAP
FFFE
FFFC
3038
3038
3038
3038
3038
3038
3038
3038
3038
3038
3038
3038
3010
ENDCHAR
STARTCHAR char961
ENCODING 961
SWIDTH 29 0
DWIDTH 19 0
BBX 15 21 2 -6
BITMAP
07E0
1FF0
3838
700C
600E
6006
C006
C006
E006
E006
E00E
F00C
D838
CFF0
C7E0
C000
C000
C000
C000
C000
4000
ENDCHAR
STARTCHAR char962
ENCODING 962
SWIDTH 13 0
DWIDTH 14 0
BBX 12 21 1 -6
BITMAP
07C0
1FF0
3820
7000
6000
C000
C000
C000
C000
C000
6000
7000
3800
1F80
07E0
0060
0060
0070
0060
01E0
0380
ENDCHAR
STARTCHAR char963
ENCODING 963
SWIDTH 26 0
DWIDTH 18 0
BBX 15 15 2 0
BITMAP
0FFE
3FFE
7838
6018
C00C
C00C
C00C
C00C
C00C
C00C
C00C
6018
7838
3FF0
0FC0
ENDCHAR
STARTCHAR char964
ENCODING 964
SWIDTH 16 0
DWIDTH 15 0
BBX 13 15 1 0
BITMAP
FFF8
FFF0
0600
0600
0600
0600
0600
0600
0600
0600
0600
0600
0600
0600
0600
ENDCHAR
STARTCHAR char965
ENCODING 965
SWIDTH 19 0
DWIDTH 16 0
BBX 14 15 1 0
BITMAP
C008
C00C
C00C
C00C
C00C
C00C
C00C
C00C
C01C
C018
E018
6038
3870
1FE0
0F80
ENDCHAR
STARTCHAR char966
ENCODING 966
SWIDTH 23 0
DWIDTH 17 0
BBX 15 21 1 -6
BITMAP
18E0
39F0
7338
631C
E30C
C30C
C306
C306
C30E
E30C
631C
7318
3FF0
1FE0
0380
0300
0300
0300
0300
0300
0300
ENDCHAR
STARTCHAR char967
ENCODING 967
SWIDTH 16 0
DWIDTH 15 0
BBX 13 21 1 -6
BITMAP
C010
C038
6030
7060
30E0
38C0
19C0
1D80
0F80
0F00
0700
0700
0F80
1D80
19C0
38C0
30E0
7060
6070
E038
C010
ENDCHAR
STARTCHAR char968
ENCODING 968
SWIDTH 29 0
DWIDTH 19 0
BBX 17 21 1 -6
BITMAP
C08180
C18180
C18180
C18180
C18180
C18180
C18180
C18380
C18300
618300
718700
398E00
1FBC00
0FF800
03C000
018000
018000
018000
018000
018000
018000
ENDCHAR
STARTCHAR char969
ENCODING 969
SWIDTH 29 0
DWIDTH 19 0
BBX 17 15 1 0
BITMAP
300400
300600
700600
608700
618300
E18300
C18300
C18380
C18180
C18180
C18180
C1C380
63E700
7F7E00
1E3C00
ENDCHAR
STARTCHAR char970
ENCODING 970
SWIDTH 26 0
DWIDTH 8 0
BBX 8 21 0 0
BITMAP
C3
E7
C3
00
00
00
18
18
18
18
18
18
18
18
18
18
18
18
18
18
18
ENDCHAR
STARTCHAR char971
ENCODING 971
SWIDTH 19 0
DWIDTH 16 0
BBX 14 21 1 0
BITMAP
1860
1CE0
1860
0000
0000
0000
C008
C00C
C00C
C00C
C00C
C00C
C00C
C00C
C01C
C018
E018
6038
3870
1FE0
0F80
ENDCHAR
STARTCHAR char972
ENCODING 972
SWIDTH 26 0
DWIDTH 18 0
BBX 14 23 2 0
BITMAP
0080
01C0
0300
0600
0400
0000
0000
0000
0FC0
3FF0
7838
6018
C00C
C00C
C00C
C00C
C00C
C00C
C00C
6018
7838
3FF0
0FC0
ENDCHAR
STARTCHAR char973
ENCODING 973
SWIDTH 19 0
DWIDTH 16 0
BBX 14 23 1 0
BITMAP
0180
0380
0700
0E00
0C00
0000
0000
0000
C008
C00C
C00C
C00C
C00C
C00C
C00C
C00C
C01C
C018
E018
6038
3870
1FE0
0F80
ENDCHAR
STARTCHAR char974
ENCODING 974
SWIDTH 29 0
DWIDTH 19 0
BBX 17 23 1 0
BITMAP
006000
00E000
01C000
038000
030000
000000
000000
000000
300400
300600
700600
608700
618300
E18300
C18300
C18380
C18180
C18180
C18180
C1C380
63E700
7F7E00
1E3C00
ENDCHAR
STARTCHAR char1024
ENCODING 1024
SWIDTH 26 0
DWIDTH 18 0
BBX 14 28 3 0
BITMAP
1800
1C00
0E00
0700
0300
0000
0000
FFFC
FFFC
C000
C000
C000
C000
C000
C000
C000
FFE0
FFE0
C000
C000
C000
C000
C000
C000
C000
C000
FFFC
FFFC
ENDCHAR
STARTCHAR char1025
ENCODING 1025
SWIDTH 26 0
DWIDTH 18 0
BBX 14 27 3 0
BITMAP
1860
1CE0
1860
0000
0000
0000
FFFC
FFFC
C000
C000
C000
C000
C000
C000
C000
FFE0
FFE0
C000
C000
C000
C000
C000
C000
C000
C000
FFFC
FFFC
ENDCHAR
STARTCHAR char1026
ENCODING 1026
SWIDTH 2 0
DWIDTH 21 0
BBX 20 21 0 0
BITMAP
FFFF00
7FFF00
030000
030000
030000
030000
033E00
03FF80
03C1C0
0300E0
030060
030060
030060
030070
030060
030060
030060
0300C0
0301C0
031F80
021E00
ENDCHAR
STARTCHAR char1027
ENCODING 1027
SWIDTH 19 0
DWIDTH 16 0
BBX 13 28 3 0
BITMAP
00C0
01C0
0380
0700
0600
0000
0000
FFF8
FFF8
C000
C000
C000
C000
C000
C000
C000
C000
C000
C000
C000
C000
C000
C000
C000
C000
C000
C000
C000
ENDCHAR
STARTCHAR char1028
ENCODING 1028
SWIDTH 2 0
DWIDTH 21 0
BBX 17 21 2 0
BITMAP
01F800
07FF00
1E0780
380100
700000
600000
E00000
C00000
C00000
FFF000
FFF000
C00000
C00000
C00000
E00000
600000
700000
380180
1E0780
07FF00
01FC00
ENDCHAR
STARTCHAR char1029
ENCODING 1029
SWIDTH 26 0
DWIDTH 18 0
BBX 14 21 2 0
BITMAP
0FC0
3FF0
7038
6018
C008
C000
E000
6000
3800
1F80
07F0
0078
0018
000C
000C
000C
C00C
C018
7038
3FF0
0FC0
ENDCHAR
STARTCHAR char1030
ENCODING 1030
SWIDTH 23 0
DWIDTH 7 0
BBX 2 21 3 0
BITMAP
C0
C0
C0
C0
C0
C0
C0
C0
C0
C0
C0
C0
C0
C0
C0
C0
C0
C0
C0
C0
C0
ENDCHAR
STARTCHAR char1031
ENCODING 1031
SWIDTH 23 0
DWIDTH 7 0
BBX 9 27 -1 0
BITMAP
6380
E380
6380
0000
0000
0000
0C00
0C00
0C00
0C00
0C00
0C00
0C00
0C00
0C00
0C00
0C00
0C00
0C00
0C00
0C00
0C00
0C00
0C00
0C00
0C00
0C00
ENDCHAR
STARTCHAR char1032
ENCODING 1032
SWIDTH 19 0
DWIDTH 16 0
BBX 13 21 1 0
BITMAP
0018
0018
0018
0018
0018
0018
0018
0018
0018
0018
0018
0018
0018
0018
C018
C018
E030
6030
7070
3FE0
0F80
ENDCHAR
STARTCHAR char1033
ENCODING 1033
SWIDTH 22 0
DWIDTH 27 0
BBX 26 21 0 0
BITMAP
00400000
00E00000
00E00000
01B00000
01B00000
03B80000
03180000
03180000
060FFC00
060FFF00
0E0E0380
0C060180
0C0600C0
180300C0
180300C0
380380C0
300180C0
70018180
6000C380
E000FF00
40007C00
ENDCHAR
STARTCHAR char1034
ENCODING 1034
SWIDTH 1 0
DWIDTH 31 0
BBX 27 21 3 0
BITMAP
C0030000
C0030000
C0030000
C0030000
C0030000
C0030000
C0030000
C0030000
C003FE00
FFFFFF80
FFFF01C0
C00300C0
C0030060
C0030060
C0030060
C0030060
C0030060
C00300C0
C00301C0
C003FF80
C003FE00
ENDCHAR
STARTCHAR char1035
ENCODING 1035
SWIDTH 9 0
DWIDTH 23 0
BBX 21 21 0 0
BITMAP
FFFF80
7FFF80
030000
030000
030000
030000
030000
031F80
037FC0
03C0E0
038070
030030
030018
030018
030018
030018
030018
030018
030018
030018
030018
ENDCHAR
STARTCHAR char1036
ENCODING 1036
SWIDTH 26 0
DWIDTH 18 0
BBX 15 28 3 0
BITMAP
00C0
01C0
0380
0700
0600
0000
0000
C00C
C01C
C038
C070
C060
C0C0
C180
C380
C700
FE00
FE00
C700
C380
C1C0
C0C0
C060
C070
C038
C01C
C00E
C004
ENDCHAR
STARTCHAR char1037
ENCODING 1037
SWIDTH 9 0
DWIDTH 23 0
BBX 17 28 3 0
BITMAP
0C0000
0E0000
070000
038000
018000
000000
000000
C00180
C00380
C00780
C00780
C00D80
C01980
C03980
C03180
C06180
C0C180
C18180
C38180
C30180
C60180
CC0180
DC0180
D80180
F00180
E00180
C00180
C00180
ENDCHAR
STARTCHAR char1038
ENCODING 1038
SWIDTH 29 0
DWIDTH 19 0
BBX 18 27 0 0
BITMAP
060C00
060C00
061C00
03F800
01F000
000000
C000C0
C00180
600180
700300
300300
380600
180600
0C0E00
0C0C00
061C00
071800
031800
01B000
01B000
00E000
00E000
00C000
00C000
018000
3F0000
1E0000
ENDCHAR
STARTCHAR char1039
ENCODING 1039
SWIDTH 5 0
DWIDTH 22 0
BBX 16 25 3 -4
BITMAP
C003
C003
C003
C003
C003
C003
C003
C003
C003
C003
C003
C003
C003
C003
C003
C003
C003
C003
C003
FFFF
FFFF
0180
0180
0180
0180
ENDCHAR
STARTCHAR char1040
ENCODING 1040
SWIDTH 29 0
DWIDTH 19 0
BBX 18 21 0 0
BITMAP
004000
00E000
00E000
01F000
01B000
03B000
031800
031800
060C00
060C00
0E0E00
0C0600
1C0600
180300
1FFF00
3FFF80
300180
700180
6000C0
E000C0
4000C0
ENDCHAR
STARTCHAR char1041
ENCODING 1041
SWIDTH 29 0
DWIDTH 19 0
BBX 15 21 3 0
BITMAP
FFF8
FFF8
C000
C000
C000
C000
C000
C000
FFE0
FFF0
C038
C00C
C00C
C006
C006
C006
C00E
C00C
C01C
FFF8
FFE0
ENDCHAR
STARTCHAR char1042
ENCODING 1042
SWIDTH 29 0
DWIDTH 19 0
BBX 14 21 3 0
BITMAP
FFC0
FFE0
C070
C038
C018
C018
C018
C030
C070
FFE0
FFF0
C038
C01C
C00C
C00C
C00C
C00C
C01C
C038
FFF0
FFC0
ENDCHAR
STARTCHAR char1043
ENCODING 1043
SWIDTH 19 0
DWIDTH 16 0
BBX 13 21 3 0
BITMAP
FFF8
FFF8
C000
C000
C000
C000
C000
C000
C000
C000
C000
C000
C000
C000
C000
C000
C000
C000
C000
C000
C000
ENDCHAR
STARTCHAR char1044
ENCODING 1044
SWIDTH 5 0
DWIDTH 22 0
BBX 21 26 1 -5
BITMAP
006000
006000
00F000
00F000
00D800
019800
019800
030C00
030C00
030600
060600
060700
0C0300
0C0300
1C0180
180180
1801C0
3000C0
3000C0
FFFFF0
FFFFF8
C00018
C00018
C00018
C00018
C00018
ENDCHAR
STARTCHAR char1045
ENCODING 1045
SWIDTH 26 0
DWIDTH 18 0
BBX 14 21 3 0
BITMAP
FFFC
FFFC
C000
C000
C000
C000
C000
C000
C000
FFE0
FFE0
C000
C000
C000
C000
C000
C000
C000
C000
FFFC
FFFC
ENDCHAR
STARTCHAR char1046
ENCODING 1046
SWIDTH 22 0
DWIDTH 27 0
BBX 26 21 1 0
BITMAP
400C0180
600C0380
300C0300
380C0600
180C0C00
0C0C1C00
060C3800
070C3000
030C6000
01FFE000
01FFE000
030C6000
070C3000
0E0C3800
0C0C1C00
180C0E00
380C0600
700C0300
600C0380
C00C0180
C00C00C0
ENDCHAR
STARTCHAR char1047
ENCODING 1047
SWIDTH 23 0
DWIDTH 17 0
BBX 14 21 1 0
BITMAP
0FC0
3FF0
7038
6018
0018
0018
0018
0018
0030
07E0
03F0
0038
000C
000C
000C
000C
000C
E01C
7038
3FF0
0FC0
ENDCHAR
STARTCHAR char1048
ENCODING 1048
SWIDTH 9 0
DWIDTH 23 0
BBX 17 21 3 0
BITMAP
C00180
C00380
C00780
C00780
C00D80
C01980
C03980
C03180
C06180
C0C180
C18180
C38180
C30180
C60180
CC0180
DC0180
D80180
F00180
E00180
C00180
C00180
ENDCHAR
STARTCHAR char1049
ENCODING 1049
SWIDTH 9 0
DWIDTH 23 0
BBX 17 27 3 0
BITMAP
081800
0C1800
0C3800
07F000
03C000
000000
C00180
C00380
C00780
C00780
C00D80
C01980
C03980
C03180
C06180
C0C180
C18180
C38180
C30180
C60180
CC0180
DC0180
D80180
F00180
E00180
C00180
C00180
ENDCHAR
STARTCHAR char1050
ENCODING 1050
SWIDTH 26 0
DWIDTH 18 0
BBX 15 21 3 0
BITMAP
C00C
C01C
C038
C070
C060
C0C0
C180
C380
C700
FE00
FE00
C700
C380
C1C0
C0C0
C060
C070
C038
C01C
C00E
C004
ENDCHAR
STARTCHAR char1051
ENCODING 1051
SWIDTH 29 0
DWIDTH 19 0
BBX 18 21 0 0
BITMAP
004000
00E000
00E000
01F000
01B000
03B000
031800
031800
060C00
060C00
0E0E00
0C0600
0C0600
180300
180300
380380
300180
700180
6000C0
E000C0
400040
ENDCHAR
STARTCHAR char1052
ENCODING 1052
SWIDTH 19 0
DWIDTH 26 0
BBX 21 21 3 0
BITMAP
C00010
C00038
E00038
E00078
F00078
F000F8
F800F8
D801B8
DC01B8
CC0338
CC0338
C60638
C60638
C30C38
C30C38
C19838
C19838
C0F038
C0F038
C06038
C06010
ENDCHAR
STARTCHAR char1053
ENCODING 1053
SWIDTH 9 0
DWIDTH 23 0
BBX 17 21 3 0
BITMAP
C00180
C00180
C00180
C00180
C00180
C00180
C00180
C00180
C00180
FFFF80
FFFF80
C00180
C00180
C00180
C00180
C00180
C00180
C00180
C00180
C00180
C00180
ENDCHAR
STARTCHAR char1054
ENCODING 1054
SWIDTH 15 0
DWIDTH 25 0
BBX 21 21 2 0
BITMAP
01FC00
07FF00
1E0380
3801C0
700060
600070
E00030
C00038
C00018
C00018
C00018
C00018
C00018
C00038
E00030
600070
700060
3801C0
1E0380
07FF00
01FC00
ENDCHAR
STARTCHAR char1055
ENCODING 1055
SWIDTH 5 0
DWIDTH 22 0
BBX 16 21 3 0
BITMAP
FFFF
FFFF
C003
C003
C003
C003
C003
C003
C003
C003
C003
C003
C003
C003
C003
C003
C003
C003
C003
C003
C003
ENDCHAR
STARTCHAR char1056
ENCODING 1056
SWIDTH 19 0
DWIDTH 16 0
BBX 13 21 3 0
BITMAP
FF80
FFE0
C0E0
C030
C030
C018
C018
C018
C030
C030
C0E0
FFC0
FF00
C000
C000
C000
C000
C000
C000
C000
C000
ENDCHAR
STARTCHAR char1057
ENCODING 1057
SWIDTH 2 0
DWIDTH 21 0
BBX 17 21 2 0
BITMAP
01F800
07FE00
1E0780
380100
700000
600000
E00000
C00000
C00000
C00000
C00000
C00000
C00000
C00000
E00000
600000
700000
380180
1E0780
07FF00
01F800
ENDCHAR
STARTCHAR char1058
ENCODING 1058
SWIDTH 23 0
DWIDTH 17 0
BBX 17 21 0 0
BITMAP
FFFF80
7FFF80
00C000
00C000
00C000
00C000
00C000
00C000
00C000
00C000
00C000
00C000
00C000
00C000
00C000
00C000
00C000
00C000
00C000
00C000
00C000
ENDCHAR
STARTCHAR char1059
ENCODING 1059
SWIDTH 29 0
DWIDTH 19 0
BBX 18 21 0 0
BITMAP
C000C0
C00180
600180
700300
300300
380600
180600
0C0E00
0C0C00
061C00
071800
031800
01B000
01B000
00E000
00E000
00C000
00C000
018000
3F0000
1E0000
ENDCHAR
STARTCHAR char1060
ENCODING 1060
SWIDTH 9 0
DWIDTH 23 0
BBX 19 21 2 0
BITMAP
004000
00C000
00E000
0FFE00
1ECF00
38C380
60C0C0
E0C0E0
C0C060
C0C060
C0C060
C0C060
C0C060
E0C060
60C0C0
78C3C0
3ECF00
0FFE00
01F000
00C000
004000
ENDCHAR
STARTCHAR char1061
ENCODING 1061
SWIDTH 29 0
DWIDTH 19 0
BBX 17 21 1 0
BITMAP
600100
600300
300700
380E00
180C00
0C1800
0E3800
073000
036000
03E000
01C000
03E000
077000
063000
0E3800
1C1C00
180C00
300600
700700
E00380
C00180
ENDCHAR
STARTCHAR char1062
ENCODING 1062
SWIDTH 9 0
DWIDTH 23 0
BBX 19 25 3 -4
BITMAP
C00300
C00300
C00300
C00300
C00300
C00300
C00300
C00300
C00300
C00300
C00300
C00300
C00300
C00300
C00300
C00300
C00300
C00300
C00300
FFFFC0
FFFFE0
000060
000060
000060
000060
ENDCHAR
STARTCHAR char1063
ENCODING 1063
SWIDTH 33 0
DWIDTH 20 0
BBX 16 21 2 0
BITMAP
C002
C007
C007
C007
C007
C007
C007
C007
E007
6007
7007
381F
1FFF
07E7
0007
0007
0007
0007
0007
0007
0002
ENDCHAR
STARTCHAR char1064
ENCODING 1064
SWIDTH 29 0
DWIDTH 29 0
BBX 23 21 3 0
BITMAP
C03006
C03006
C03006
C03006
C03006
C03006
C03006
C03006
C03006
C03006
C03006
C03006
C03006
C03006
C03006
C03006
C03006
C03006
C03006
FFFFFE
FFFFFE
ENDCHAR
STARTCHAR char1065
ENCODING 1065
SWIDTH 32 0
DWIDTH 30 0
BBX 26 25 3 -4
BITMAP
C0300600
C0300600
C0300600
C0300600
C0300600
C0300600
C0300600
C0300600
C0300600
C0300600
C0300600
C0300600
C0300600
C0300600
C0300600
C0300600
C0300600
C0300600
C0300600
FFFFFF80
FFFFFFC0
000001C0
000001C0
000001C0
000001C0
ENDCHAR
STARTCHAR char1066
ENCODING 1066
SWIDTH 9 0
DWIDTH 23 0
BBX 21 21 0 0
BITMAP
FF8000
7F8000
018000
018000
018000
018000
018000
018000
01FF80
01FFE0
018070
018038
018018
018018
018018
018018
018018
018038
018070
01FFE0
01FF80
ENDCHAR
STARTCHAR char1067
ENCODING 1067
SWIDTH 15 0
DWIDTH 25 0
BBX 19 21 3 0
BITMAP
C00060
C00060
C00060
C00060
C00060
C00060
C00060
C00060
FF8060
FFE060
C07060
C03860
C01860
C01860
C01860
C01860
C01860
C03860
C07060
FFE060
FFC060
ENDCHAR
STARTCHAR char1068
ENCODING 1068
SWIDTH 29 0
DWIDTH 19 0
BBX 14 21 3 0
BITMAP
C000
C000
C000
C000
C000
C000
C000
C000
FFC0
FFF0
C038
C01C
C00C
C00C
C00C
C00C
C00C
C01C
C038
FFF0
FFC0
ENDCHAR
STARTCHAR char1069
ENCODING 1069
SWIDTH 2 0
DWIDTH 21 0
BBX 17 21 2 0
BITMAP
1FC000
7FF000
E03800
C01C00
000600
000700
000300
000300
000180
07FF80
0FFF80
000180
000180
000300
000300
000700
000E00
C01C00
E03800
7FF000
1FC000
ENDCHAR
STARTCHAR char1070
ENCODING 1070
SWIDTH 1 0
DWIDTH 31 0
BBX 27 21 3 0
BITMAP
C007F000
C01FFC00
C0781E00
C0E00700
C0C00380
C1C001C0
C18000C0
C38000C0
C30000C0
FF000060
FF000060
C3000060
C30000C0
C38000C0
C18000C0
C1800180
C0C00380
C0600700
C0781E00
C01FFC00
C007F000
ENDCHAR
STARTCHAR char1071
ENCODING 1071
SWIDTH 29 0
DWIDTH 19 0
BBX 14 21 2 0
BITMAP
0FFC
3FFC
700C
600C
C00C
C00C
C00C
C00C
C00C
600C
300C
1FFC
07FC
0E0C
1C0C
180C
380C
700C
600C
E00C
C00C
ENDCHAR
STARTCHAR char1072
ENCODING 1072
SWIDTH 26 0
DWIDTH 18 0
BBX 14 15 2 0
BITMAP
0FC0
3FF0
7838
6018
C00C
C00C
C00C
C00C
C00C
C00C
C00C
601C
783C
3FEC
0FC4
ENDCHAR
STARTCHAR char1073
ENCODING 1073
SWIDTH 26 0
DWIDTH 18 0
BBX 14 23 2 0
BITMAP
0010
0078
01F0
07C0
1E00
3800
3000
6000
6000
C7C0
DFF0
F078
E018
C01C
C00C
C00C
C00C
C00C
C01C
6018
7078
3FF0
0FC0
ENDCHAR
STARTCHAR char1074
ENCODING 1074
SWIDTH 19 0
DWIDTH 16 0
BBX 13 15 2 0
BITMAP
7FC0
FFE0
C030
C030
C030
C030
FFE0
FFE0
C030
C018
C018
C018
C030
FFF0
7FC0
ENDCHAR
STARTCHAR char1075
ENCODING 1075
SWIDTH 13 0
DWIDTH 14 0
BBX 12 15 1 0
BITMAP
1F80
7FC0
E0E0
4060
0060
00E0
03C0
1F80
7800
6000
C000
C020
6070
7FE0
1F80
ENDCHAR
STARTCHAR char1076
ENCODING 1076
SWIDTH 26 0
DWIDTH 18 0
BBX 14 21 2 -6
BITMAP
0FC0
3FF0
7038
6018
C00C
C00C
C00C
C00C
C00C
C00C
C00C
601C
703C
3FEC
0F8C
000C
400C
E018
7038
3FF0
0FC0
ENDCHAR
STARTCHAR char1077
ENCODING 1077
SWIDTH 19 0
DWIDTH 16 0
BBX 13 15 2 0
BITMAP
0F80
3FE0
7070
6038
C018
C018
FFF8
FFF8
C000
C000
C000
6000
7030
3FF0
0FC0
ENDCHAR
STARTCHAR char1078
ENCODING 1078
SWIDTH 2 0
DWIDTH 21 0
BBX 19 15 1 0
BITMAP
404060
E0E0C0
60E0C0
30E180
38E380
18E300
0CE600
0FFE00
0FFE00
1CE700
38E380
30E180
60E0C0
E0E0E0
C04060
ENDCHAR
STARTCHAR char1079
ENCODING 1079
SWIDTH 13 0
DWIDTH 14 0
BBX 12 15 1 0
BITMAP
1F80
3FC0
60E0
4060
0060
00E0
07C0
0FC0
00E0
0060
0030
C070
E0E0
7FC0
1F80
ENDCHAR
STARTCHAR char1080
ENCODING 1080
SWIDTH 26 0
DWIDTH 18 0
BBX 14 15 2 0
BITMAP
C008
C00C
C00C
C00C
C00C
C00C
C00C
C00C
C00C
C00C
E01C
601C
707C
3FEC
0F88
ENDCHAR
STARTCHAR char1081
ENCODING 1081
SWIDTH 26 0
DWIDTH 18 0
BBX 14 21 2 0
BITMAP
1020
3030
1860
1FE0
0780
0000
C008
C00C
C00C
C00C
C00C
C00C
C00C
C00C
C00C
C00C
E01C
601C
707C
3FEC
0F88
ENDCHAR
STARTCHAR char1082
ENCODING 1082
SWIDTH 16 0
DWIDTH 15 0
BBX 12 15 2 0
BITMAP
4030
C070
C0E0
C0C0
C180
C300
C700
FE00
FE00
C700
C380
C1C0
C0E0
C070
4030
ENDCHAR
STARTCHAR char1083
ENCODING 1083
SWIDTH 19 0
DWIDTH 16 0
BBX 14 15 1 0
BITMAP
0300
0300
0780
0780
0DC0
0CC0
18C0
1860
3860
3030
7030
6018
6018
C01C
C00C
ENDCHAR
STARTCHAR char1084
ENCODING 1084
SWIDTH 2 0
DWIDTH 21 0
BBX 17 15 2 0
BITMAP
400300
E00380
F00780
F00F80
D80F80
CC1B80
CC3B80
C63380
C36380
C3E380
C1C380
C08380
C00380
C00380
400100
ENDCHAR
STARTCHAR char1085
ENCODING 1085
SWIDTH 26 0
DWIDTH 18 0
BBX 14 15 2 0
BITMAP
400C
C00C
C00C
C00C
C00C
C00C
C00C
FFFC
FFFC
C00C
C00C
C00C
C00C
C00C
400C
ENDCHAR
STARTCHAR char1086
ENCODING 1086
SWIDTH 26 0
DWIDTH 18 0
BBX 14 15 2 0
BITMAP
0FC0
3FF0
7838
6018
C00C
C00C
C00C
C00C
C00C
C00C
C00C
6018
7838
3FF0
0FC0
ENDCHAR
STARTCHAR char1087
ENCODING 1087
SWIDTH 26 0
DWIDTH 18 0
BBX 14 15 2 0
BITMAP
47C0
DFF0
F838
E018
E01C
C00C
C00C
C00C
C00C
C00C
C00C
C00C
C00C
C00C
400C
ENDCHAR
STARTCHAR char1088
ENCODING 1088
SWIDTH 29 0
DWIDTH 19 0
BBX 15 21 2 -6
BITMAP
07E0
1FF0
3838
700C
600E
6006
C006
C006
E006
E006
E00E
F00C
D838
CFF0
C7E0
C000
C000
C000
C000
C000
4000
ENDCHAR
STARTCHAR char1089
ENCODING 1089
SWIDTH 19 0
DWIDTH 16 0
BBX 12 15 2 0
BITMAP
0F80
3FE0
7070
6030
C000
C000
C000
C000
C000
C000
C000
6000
7030
3FE0
0FC0
ENDCHAR
STARTCHAR char1090
ENCODING 1090
SWIDTH 15 0
DWIDTH 25 0
BBX 21 15 2 0
BITMAP
4F87C0
DFCFE0
F0F870
E07038
E03018
C03018
C03018
C03018
C03018
C03018
C03018
C03018
C03018
C03018
403018
ENDCHAR
STARTCHAR char1091
ENCODING 1091
SWIDTH 16 0
DWIDTH 15 0
BBX 15 21 -1 -6
BITMAP
6006
3006
300C
180C
181C
0C18
0C18
0630
0630
0760
0360
03E0
01C0
01C0
0180
0180
0300
0300
0600
FC00
7800
ENDCHAR
STARTCHAR char1092
ENCODING 1092
SWIDTH 33 0
DWIDTH 20 0
BBX 16 27 2 -6
BITMAP
0180
0180
0180
0180
0180
0180
0FF0
3FFC
718E
6186
C183
C183
C183
C183
C183
C183
C183
6186
718E
3FFC
0FF0
0180
0180
0180
0180
0180
0180
ENDCHAR
STARTCHAR char1093
ENCODING 1093
SWIDTH 16 0
DWIDTH 15 0
BBX 13 15 1 0
BITMAP
C010
E030
7070
30E0
18C0
1D80
0F00
0700
0F00
1D80
18C0
30E0
6070
E030
C018
ENDCHAR
STARTCHAR char1094
ENCODING 1094
SWIDTH 29 0
DWIDTH 19 0
BBX 16 19 2 -4
BITMAP
C008
C00C
C00C
C00C
C00C
C00C
C00C
C00C
C00C
C00C
E01C
601C
703C
3FEF
0F8F
0003
0003
0003
0003
ENDCHAR
STARTCHAR char1095
ENCODING 1095
SWIDTH 19 0
DWIDTH 16 0
BBX 12 15 1 0
BITMAP
C030
C030
C030
C030
C030
E030
6030
7070
3FF0
1FB0
0030
0030
0030
0030
0030
ENDCHAR
STARTCHAR char1096
ENCODING 1096
SWIDTH 15 0
DWIDTH 25 0
BBX 21 15 2 0
BITMAP
C02018
C07018
C07018
C07018
C07018
C07018
C07018
C07018
C07018
C07018
C07018
607038
70F878
3F9FD8
1F0F98
ENDCHAR
STARTCHAR char1097
ENCODING 1097
SWIDTH 19 0
DWIDTH 26 0
BBX 23 19 2 -4
BITMAP
C02018
C07018
C07018
C07018
C07018
C07018
C07018
C07018
C07018
C07018
C07018
607038
70F878
3F9FDE
1F0F9E
000006
000006
000006
000002
ENDCHAR
STARTCHAR char1098
ENCODING 1098
SWIDTH 26 0
DWIDTH 18 0
BBX 16 15 1 0
BITMAP
FC00
FC00
0C00
0C00
0C00
0FF8
0FFC
0C0E
0C06
0C03
0C03
0606
070E
03FC
01F8
ENDCHAR
STARTCHAR char1099
ENCODING 1099
SWIDTH 2 0
DWIDTH 21 0
BBX 16 15 2 0
BITMAP
4003
C003
C003
C003
C003
FF83
FFE3
C063
C033
C033
E033
6033
7063
3FC3
0F83
ENDCHAR
STARTCHAR char1100
ENCODING 1100
SWIDTH 19 0
DWIDTH 16 0
BBX 13 15 2 0
BITMAP
4000
C000
C000
C000
C000
FF80
FFE0
C070
C030
C018
E038
6030
7070
3FE0
0F80
ENDCHAR
STARTCHAR char1101
ENCODING 1101
SWIDTH 19 0
DWIDTH 16 0
BBX 12 15 2 0
BITMAP
1F00
7FC0
E0E0
8060
0030
0030
1FF0
1FF0
0030
0030
0070
0060
C1E0
FF80
3F00
ENDCHAR
STARTCHAR char1102
ENCODING 1102
SWIDTH 12 0
DWIDTH 24 0
BBX 20 15 2 0
BITMAP
403F00
C0FF80
C1C1C0
C38060
C30070
C30030
FE0030
FE0030
C60030
C30030
C30070
C18060
C1C1C0
C0FF80
403F00
ENDCHAR
STARTCHAR char1103
ENCODING 1103
SWIDTH 16 0
DWIDTH 15 0
BBX 11 15 2 0
BITMAP
1FE0
7FE0
6060
C060
C060
C060
C060
6060
3FE0
1FE0
3860
7060
6060
E060
C060
ENDCHAR
STARTCHAR char1104
ENCODING 1104
SWIDTH 19 0
DWIDTH 16 0
BBX 13 22 2 0
BITMAP
1800
1C00
0E00
0700
0300
0000
0000
0F80
3FE0
7070
6038
C018
C018
FFF8
FFF8
C000
C000
C000
6000
7030
3FF0
0FC0
ENDCHAR
STARTCHAR char1105
ENCODING 1105
SWIDTH 19 0
DWIDTH 16 0
BBX 13 21 2 0
BITMAP
18E0
38E0
18E0
0000
0000
0000
0F80
3FE0
7070
6038
C018
C018
FFF8
FFF8
C000
C000
C000
6000
7030
3FF0
0FC0
ENDCHAR
STARTCHAR char1106
ENCODING 1106
SWIDTH 29 0
DWIDTH 19 0
BBX 16 27 1 -6
BITMAP
3000
3000
FFE0
FFE0
3000
3000
3000
31F0
37F8
3E1C
380E
3806
3006
3003
3003
3003
3003
3003
3003
3003
3006
0006
0006
000C
001C
00F8
00E0
ENDCHAR
STARTCHAR char1107
ENCODING 1107
SWIDTH 13 0
DWIDTH 14 0
BBX 12 22 1 0
BITMAP
00C0
01C0
0380
0700
0600
0000
0000
1F80
7FC0
E0E0
4060
0060
00E0
03C0
1F80
7800
6000
C000
C020
6070
7FE0
1F80
ENDCHAR
STARTCHAR char1108
ENCODING 1108
SWIDTH 19 0
DWIDTH 16 0
BBX 12 15 2 0
BITMAP
0F80
3FE0
7070
6010
C000
C000
FF80
FF80
C000
C000
C000
6000
7030
3FE0
0FC0
ENDCHAR
STARTCHAR char1109
ENCODING 1109
SWIDTH 13 0
DWIDTH 14 0
BBX 11 15 2 0
BITMAP
1F00
7FC0
E0E0
C060
C000
E000
7C00
1F80
01C0
0060
0060
8060
E0E0
7FC0
1F00
ENDCHAR
STARTCHAR char1110
ENCODING 1110
SWIDTH 26 0
DWIDTH 8 0
BBX 3 21 2 0
BITMAP
60
E0
60
00
00
00
60
60
60
60
60
60
60
60
60
60
60
60
60
60
60
ENDCHAR
STARTCHAR char1111
ENCODING 1111
SWIDTH 26 0
DWIDTH 8 0
BBX 8 21 0 0
BITMAP
C3
E7
C3
00
00
00
18
18
18
18
18
18
18
18
18
18
18
18
18
18
18
ENDCHAR
STARTCHAR char1112
ENCODING 1112
SWIDTH 26 0
DWIDTH 8 0
BBX 8 27 -3 -6
BITMAP
03
07
03
00
00
00
03
03
03
03
03
03
03
03
03
03
03
03
03
03
03
03
07
06
0E
7C
F0
ENDCHAR
STARTCHAR char1113
ENCODING 1113
SWIDTH 5 0
DWIDTH 22 0
BBX 19 15 1 0
BITMAP
030000
030000
078000
078000
0DC000
0CFF80
18FFC0
1860E0
306060
303060
703060
601860
6018E0
C01FC0
C00F80
ENDCHAR
STARTCHAR char1114
ENCODING 1114
SWIDTH 19 0
DWIDTH 26 0
BBX 22 15 2 0
BITMAP
401800
C01800
C01800
C01800
C01800
C01FF0
FFFFF8
FFF81C
C0180C
C0180C
C01C0C
C00C0C
C00E1C
C007F8
4003F0
ENDCHAR
STARTCHAR char1115
ENCODING 1115
SWIDTH 26 0
DWIDTH 18 0
BBX 16 21 0 0
BITMAP
1800
1800
FFE0
FFF0
1800
1800
19F0
1BFC
1E0E
1C07
1803
1803
1803
1803
1803
1803
1803
1803
1803
1803
1803
ENDCHAR
STARTCHAR char1116
ENCODING 1116
SWIDTH 16 0
DWIDTH 15 0
BBX 12 22 2 0
BITMAP
0180
0380
0700
0E00
0C00
0000
0000
4030
C070
C0E0
C0C0
C180
C300
C700
FE00
FE00
C700
C380
C1C0
C0E0
C070
4030
ENDCHAR
STARTCHAR char1117
ENCODING 1117
SWIDTH 26 0
DWIDTH 18 0
BBX 14 22 2 0
BITMAP
1800
1C00
0E00
0700
0300
0000
0000
C008
C00C
C00C
C00C
C00C
C00C
C00C
C00C
C00C
C00C
E01C
601C
707C
3FEC
0F88
ENDCHAR
STARTCHAR char1118
ENCODING 1118
SWIDTH 16 0
DWIDTH 15 0
BBX 15 27 -1 -6
BITMAP
0C18
0C18
0E38
07F0
01C0
0000
6006
3006
300C
180C
181C
0C18
0C18
0630
0630
0760
0360
03E0
01C0
01C0
0180
0180
0300
0300
0600
FC00
7800
ENDCHAR
STARTCHAR char1119
ENCODING 1119
SWIDTH 16 0
DWIDTH 15 0
BBX 13 19 1 -4
BITMAP
C010
C038
C038
C038
C038
C038
C038
C038
C038
C038
C038
C038
C038
FFF8
FFF0
0600
0600
0600
0600
ENDCHAR
STARTCHAR char1122
ENCODING 1122
SWIDTH 2 0
DWIDTH 21 0
BBX 19 21 0 0
BITMAP
060000
060000
060000
7FFC00
FFFC00
060000
060000
060000
07FE00
07FF80
0601C0
0600E0
060060
060060
060060
060060
060060
0600E0
0601C0
07FF80
07FF00
ENDCHAR
STARTCHAR char1123
ENCODING 1123
SWIDTH 19 0
DWIDTH 16 0
BBX 14 21 1 0
BITMAP
1800
1800
1800
1800
1800
1800
FFC0
FFC0
1800
1800
1800
1FE0
1FF8
1818
180C
180C
180C
180C
0C18
0FF8
03E0
ENDCHAR
STARTCHAR char1130
ENCODING 1130
SWIDTH 15 0
DWIDTH 25 0
BBX 23 21 1 0
BITMAP
1FFFF0
1FFFE0
0C00E0
0600C0
030180
030300
018700
00C600
006C00
03FF00
07FFC0
0E31E0
1C3060
183030
383030
303018
703018
60300C
E0300C
C03006
C03006
ENDCHAR
STARTCHAR char1131
ENCODING 1131
SWIDTH 33 0
DWIDTH 20 0
BBX 18 15 1 0
BITMAP
3FFE00
1FFE00
0C0C00
0C1800
063800
033000
01E000
0FFC00
3CCE00
30C700
60C300
60C180
60C180
C0C180
C0C0C0
ENDCHAR
STARTCHAR char1138
ENCODING 1138
SWIDTH 15 0
DWIDTH 25 0
BBX 21 21 2 0
BITMAP
01FC00
07FF00
1E0380
3800C0
700060
600030
C00030
C00038
C00018
FFFFF8
FFFFF8
C00018
C00018
C00038
E00030
600070
7000E0
3801C0
1E0380
07FF00
01FC00
ENDCHAR
STARTCHAR char1139
ENCODING 1139
SWIDTH 26 0
DWIDTH 18 0
BBX 14 15 2 0
BITMAP
0FC0
3FF0
7038
6018
C00C
C00C
FFFC
FFFC
C00C
C00C
E00C
6018
7838
3FF0
0FC0
ENDCHAR
STARTCHAR char1140
ENCODING 1140
SWIDTH 29 0
DWIDTH 19 0
BBX 18 21 1 0
BITMAP
8001C0
C003C0
C00300
E00600
600600
600600
300C00
300C00
301800
181800
181800
0C3000
0C3000
0C3000
066000
066000
03C000
03C000
03C000
018000
018000
ENDCHAR
STARTCHAR char1141
ENCODING 1141
SWIDTH 16 0
DWIDTH 15 0
BBX 15 15 0 0
BITMAP
400E
E01E
6018
7030
3030
3060
1860
1860
0CC0
0CC0
0FC0
0780
0780
0300
0300
ENDCHAR
STARTCHAR char1168
ENCODING 1168
SWIDTH 19 0
DWIDTH 16 0
BBX 13 26 3 0
BITMAP
0018
0018
0018
0018
0018
FFF8
FFF8
C000
C000
C000
C000
C000
C000
C000
C000
C000
C000
C000
C000
C000
C000
C000
C000
C000
C000
C000
ENDCHAR
STARTCHAR char1169
ENCODING 1169
SWIDTH 9 0
DWIDTH 13 0
BBX 10 20 2 0
BITMAP
0040
00C0
00C0
00C0
00C0
7FC0
FFC0
C000
C000
C000
C000
C000
C000
C000
C000
C000
C000
C000
C000
4000
ENDCHAR
STARTCHAR char1170
ENCODING 1170
SWIDTH 19 0
DWIDTH 16 0
BBX 16 21 0 0
BITMAP
1FFF
1FFF
1800
1800
1800
1800
1800
1800
1800
FFC0
FFC0
1800
1800
1800
1800
1800
1800
1800
1800
1800
1800
ENDCHAR
STARTCHAR char1171
ENCODING 1171
SWIDTH 9 0
DWIDTH 13 0
BBX 11 15 1 0
BITMAP
3FE0
3FE0
3000
3000
3000
3000
3000
FF00
FF00
3000
3000
3000
3000
3000
3000
ENDCHAR
STARTCHAR char1172
ENCODING 1172
SWIDTH 26 0
DWIDTH 18 0
BBX 14 21 3 0
BITMAP
FFF8
FFF8
C000
C000
C000
C000
CFC0
FFE0
F070
C038
C018
C00C
C00C
C00C
C00C
C01C
C018
C038
C070
C3E0
C380
ENDCHAR
STARTCHAR char1173
ENCODING 1173
SWIDTH 16 0
DWIDTH 15 0
BBX 12 20 2 -5
BITMAP
7FC0
FFC0
C000
C000
C000
C000
CF80
FFC0
E0E0
C070
C030
C030
C030
C030
4030
0030
0070
00E0
07C0
0780
ENDCHAR
STARTCHAR char1174
ENCODING 1174
SWIDTH 26 0
DWIDTH 28 0
BBX 27 25 1 -4
BITMAP
400C0180
600C0380
300C0300
380C0600
180C0C00
0C0C1C00
060C3800
070C3000
030C6000
01FFE000
01FFE000
030C6000
070C3000
0E0C3800
0C0C1800
180C0C00
380C0E00
700C0600
600C0300
C00C03E0
C00C01E0
00000060
00000060
00000060
00000060
ENDCHAR
STARTCHAR char1175
ENCODING 1175
SWIDTH 5 0
DWIDTH 22 0
BBX 20 19 1 -4
BITMAP
C04040
E0C0C0
60C0C0
30C180
30C380
18C300
1CC600
0FFE00
0FFE00
1CC700
38C300
30C180
60C180
C0C0F0
C0C0F0
000030
000030
000030
000030
ENDCHAR
STARTCHAR char1176
ENCODING 1176
SWIDTH 23 0
DWIDTH 17 0
BBX 14 25 1 -4
BITMAP
0FC0
3FF0
7038
6018
0018
0018
0018
0018
0030
07E0
03F0
0038
000C
000C
000C
000C
000C
E01C
7038
3FF0
0FC0
0180
0180
0180
0180
ENDCHAR
STARTCHAR char1177
ENCODING 1177
SWIDTH 13 0
DWIDTH 14 0
BBX 12 20 1 -5
BITMAP
1F80
3FC0
60E0
4060
0060
00E0
07C0
0FC0
00E0
0060
0030
0030
C060
70E0
3FC0
0F00
0600
0600
0600
0600
ENDCHAR
STARTCHAR char1178
ENCODING 1178
SWIDTH 26 0
DWIDTH 18 0
BBX 15 25 3 -4
BITMAP
C00C
C01C
C038
C070
C060
C0C0
C180
C380
C700
FE00
FE00
C700
C300
C180
C1C0
C0E0
C060
C070
C038
C01E
C00E
0006
0006
0006
0006
ENDCHAR
STARTCHAR char1179
ENCODING 1179
SWIDTH 16 0
DWIDTH 15 0
BBX 13 19 2 -4
BITMAP
4030
C070
C060
C0C0
C1C0
C380
C300
FE00
FE00
C300
C380
C1C0
C0E0
C078
4038
0018
0018
0018
0018
ENDCHAR
STARTCHAR char1180
ENCODING 1180
SWIDTH 26 0
DWIDTH 18 0
BBX 15 21 3 0
BITMAP
C00C
C01C
C038
C070
C060
C0C0
D980
DB80
DF00
FE00
FE00
DF00
DB80
D9C0
C8C0
C0E0
C070
C038
C01C
C00E
C004
ENDCHAR
STARTCHAR char1181
ENCODING 1181
SWIDTH 16 0
DWIDTH 15 0
BBX 13 15 2 0
BITMAP
4010
C030
C060
C0E0
C9C0
C980
CB00
FE00
FF00
CB80
C9C0
C8E0
C060
C030
4018
ENDCHAR
STARTCHAR char1184
ENCODING 1184
SWIDTH 9 0
DWIDTH 23 0
BBX 22 21 0 0
BITMAP
FF8018
7F8018
018030
018060
0180E0
0181C0
018380
018300
018600
01FC00
01FE00
018600
018300
018380
0181C0
0180E0
018070
018030
018038
01801C
01800C
ENDCHAR
STARTCHAR char1185
ENCODING 1185
SWIDTH 26 0
DWIDTH 18 0
BBX 16 15 1 0
BITMAP
FC02
FC07
0C0E
0C1C
0C18
0C30
0C70
0FE0
0FE0
0C70
0C38
0C1C
0C0E
0C07
0C03
ENDCHAR
STARTCHAR char1186
ENCODING 1186
SWIDTH 9 0
DWIDTH 23 0
BBX 19 25 3 -4
BITMAP
C00180
C00180
C00180
C00180
C00180
C00180
C00180
C00180
C00180
FFFF80
FFFF80
C00180
C00180
C00180
C00180
C00180
C00180
C00180
C00180
C001E0
C001E0
000060
000060
000060
000060
ENDCHAR
STARTCHAR char1187
ENCODING 1187
SWIDTH 26 0
DWIDTH 18 0
BBX 16 19 2 -4
BITMAP
400C
C00C
C00C
C00C
C00C
C00C
C00C
FFFC
FFFC
C00C
C00C
C00C
C00C
C00F
400F
0003
0003
0003
0003
ENDCHAR
STARTCHAR char1188
ENCODING 1188
SWIDTH 32 0
DWIDTH 30 0
BBX 26 21 3 0
BITMAP
C003FFC0
C007FFC0
C0070000
C0070000
C0070000
C0070000
C0070000
C0070000
C0070000
FFFF0000
FFFF0000
C0070000
C0070000
C0070000
C0070000
C0070000
C0070000
C0070000
C0070000
C0070000
C0020000
ENDCHAR
STARTCHAR char1189
ENCODING 1189
SWIDTH 12 0
DWIDTH 24 0
BBX 21 15 2 0
BITMAP
401FF8
C01FF0
C01800
C01800
C01800
C01800
C01800
FFF800
FFF800
C01800
C01800
C01800
C01800
C01800
401800
ENDCHAR
STARTCHAR char1194
ENCODING 1194
SWIDTH 2 0
DWIDTH 21 0
BBX 17 26 2 -5
BITMAP
01F800
07FE00
1E0780
380180
300000
600000
600000
C00000
C00000
C00000
C00000
C00000
C00000
C00000
C00000
600000
600000
300000
380180
0E0780
07FE00
01F800
006000
006000
006000
006000
ENDCHAR
STARTCHAR char1195
ENCODING 1195
SWIDTH 19 0
DWIDTH 16 0
BBX 12 19 2 -4
BITMAP
0F80
3FE0
7070
6030
C000
C000
C000
C000
C000
C000
C000
6000
3870
1FE0
0780
0300
0300
0300
0300
ENDCHAR
STARTCHAR char1198
ENCODING 1198
SWIDTH 23 0
DWIDTH 17 0
BBX 17 21 0 0
BITMAP
C00180
E00180
600300
700700
300600
180E00
1C0C00
0C1800
063800
073000
036000
03E000
01C000
00C000
00C000
00C000
00C000
00C000
00C000
00C000
00C000
ENDCHAR
STARTCHAR char1199
ENCODING 1199
SWIDTH 19 0
DWIDTH 16 0
BBX 14 21 1 -6
BITMAP
C008
C01C
E018
6038
7030
3070
3860
18E0
1CC0
0CC0
0D80
0780
0780
0300
0300
0300
0300
0300
0300
0300
0300
ENDCHAR
STARTCHAR char1200
ENCODING 1200
SWIDTH 23 0
DWIDTH 17 0
BBX 17 21 0 0
BITMAP
C00180
E00180
600300
300700
380600
180C00
1C0C00
0C1800
063800
073000
036000
01E000
0FFC00
1FFC00
00C000
00C000
00C000
00C000
00C000
00C000
00C000
ENDCHAR
STARTCHAR char1201
ENCODING 1201
SWIDTH 19 0
DWIDTH 16 0
BBX 14 21 1 -6
BITMAP
C008
C01C
6018
6038
7030
3070
3860
18E0
1CC0
0CC0
0D80
0780
0780
0700
7FF8
7FF0
0300
0300
0300
0300
0300
ENDCHAR
STARTCHAR char1206
ENCODING 1206
SWIDTH 33 0
DWIDTH 20 0
BBX 18 25 2 -4
BITMAP
C00200
C00700
C00700
C00700
C00700
C00700
C00700
C00700
E00700
600700
700700
381F00
1FFF00
07E700
000700
000700
000700
000700
000700
0007C0
0003C0
0000C0
0000C0
0000C0
0000C0
ENDCHAR
STARTCHAR char1207
ENCODING 1207
SWIDTH 19 0
DWIDTH 16 0
BBX 15 19 1 -4
BITMAP
C030
C030
C030
C030
C030
E030
6030
7070
3FF0
1FB0
0030
0030
0030
003C
003E
0006
0006
0006
0006
ENDCHAR
STARTCHAR char1208
ENCODING 1208
SWIDTH 33 0
DWIDTH 20 0
BBX 16 21 2 0
BITMAP
C002
C007
C007
C007
C007
C007
C007
C007
E107
6107
7107
391F
1FFF
0FE7
0107
0107
0107
0007
0007
0007
0002
ENDCHAR
STARTCHAR char1209
ENCODING 1209
SWIDTH 19 0
DWIDTH 16 0
BBX 12 15 1 0
BITMAP
C030
C030
C030
C030
C030
C230
6230
7270
3FF0
1FB0
0230
0230
0230
0030
0030
ENDCHAR
STARTCHAR char1210
ENCODING 1210
SWIDTH 33 0
DWIDTH 20 0
BBX 15 21 3 0
BITMAP
C000
C000
C000
C000
C000
C000
C000
CFE0
DFF0
F038
C00C
C00C
C006
C006
C006
C006
C006
C006
C006
C006
C006
ENDCHAR
STARTCHAR char1211
ENCODING 1211
SWIDTH 26 0
DWIDTH 18 0
BBX 14 21 2 0
BITMAP
4000
C000
C000
C000
C000
C000
C7C0
DFF0
F838
E018
E01C
C00C
C00C
C00C
C00C
C00C
C00C
C00C
C00C
C00C
400C
ENDCHAR
STARTCHAR char1216
ENCODING 1216
SWIDTH 23 0
DWIDTH 7 0
BBX 2 21 3 0
BITMAP
C0
C0
C0
C0
C0
C0
C0
C0
C0
C0
C0
C0
C0
C0
C0
C0
C0
C0
C0
C0
C0
ENDCHAR
STARTCHAR char1217
ENCODING 1217
SWIDTH 22 0
DWIDTH 27 0
BBX 26 27 1 0
BITMAP
00C08000
00C18000
00E18000
007F0000
001E0000
00000000
400C0180
600C0380
300C0300
380C0600
180C0C00
0C0C1C00
060C3800
070C3000
030C6000
01FFE000
01FFE000
030C6000
070C3000
0E0C3800
0C0C1C00
180C0E00
380C0600
700C0300
600C0380
C00C0180
C00C00C0
ENDCHAR
STARTCHAR char1218
ENCODING 1218
SWIDTH 2 0
DWIDTH 21 0
BBX 19 21 1 0
BITMAP
060C00
060C00
071C00
03F800
00E000
000000
404060
E0E0C0
60E0C0
30E180
38E380
18E300
0CE600
0FFE00
0FFE00
1CE700
38E380
30E180
60E0C0
E0E0E0
C04060
ENDCHAR
STARTCHAR char1227
ENCODING 1227
SWIDTH 2 0
DWIDTH 21 0
BBX 16 26 2 -5
BITMAP
C002
C007
C007
C007
C007
C007
C007
C007
E007
6007
7007
381F
1FFF
07E7
0007
0007
0007
0007
0007
001F
001E
0018
0018
0018
0018
0018
ENDCHAR
STARTCHAR char1228
ENCODING 1228
SWIDTH 19 0
DWIDTH 16 0
BBX 12 19 1 -4
BITMAP
C030
C030
C030
C030
C030
E030
6030
7070
3FF0
1FB0
0030
0030
0030
00F0
00F0
00C0
00C0
00C0
00C0
ENDCHAR
STARTCHAR char1231
ENCODING 1231
SWIDTH 26 0
DWIDTH 8 0
BBX 5 21 2 0
BITMAP
C0
C0
C0
C0
C0
C0
C0
C0
C0
C0
C0
C0
C0
C0
C0
C0
C0
C0
C0
78
38
ENDCHAR
STARTCHAR char1232
ENCODING 1232
SWIDTH 29 0
DWIDTH 19 0
BBX 18 27 0 0
BITMAP
060C00
060C00
071C00
03F800
00E000
000000
004000
00E000
00E000
01F000
01B000
03B000
031800
031800
060C00
060C00
0E0E00
0C0600
1C0600
180300
1FFF00
3FFF80
300180
700180
6000C0
E000C0
4000C0
ENDCHAR
STARTCHAR char1233
ENCODING 1233
SWIDTH 26 0
DWIDTH 18 0
BBX 14 21 2 0
BITMAP
1020
3030
1860
1FE0
0780
0000
0FC0
3FF0
7838
6018
C00C
C00C
C00C
C00C
C00C
C00C
C00C
601C
783C
3FEC
0FC4
ENDCHAR
STARTCHAR char1234
ENCODING 1234
SWIDTH 29 0
DWIDTH 19 0
BBX 18 27 0 0
BITMAP
031800
071C00
031800
000000
000000
000000
004000
00E000
00E000
01F000
01B000
03B000
031800
031800
060C00
060C00
0E0E00
0C0600
1C0600
180300
1FFF00
3FFF80
300180
700180
6000C0
E000C0
4000C0
ENDCHAR
STARTCHAR char1235
ENCODING 1235
SWIDTH 26 0
DWIDTH 18 0
BBX 14 21 2 0
BITMAP
1860
1CE0
1860
0000
0000
0000
0FC0
3FF0
7838
6018
C00C
C00C
C00C
C00C
C00C
C00C
C00C
601C
783C
3FEC
0FC4
ENDCHAR
STARTCHAR char1236
ENCODING 1236
SWIDTH 19 0
DWIDTH 26 0
BBX 24 21 0 0
BITMAP
000FFF
001FFF
001C00
003C00
003C00
006C00
00EC00
00CC00
018C00
018FF8
030FF8
070C00
060C00
0E0C00
0FFC00
1FFC00
380C00
300C00
700C00
600FFF
C00FFF
ENDCHAR
STARTCHAR char1237
ENCODING 1237
SWIDTH 29 0
DWIDTH 29 0
BBX 26 15 2 0
BITMAP
0FC07C00
3FF1FF00
783B8380
601B0180
C00E00C0
C00E00C0
C00FFFC0
C00FFFC0
C00C0000
C00E0000
C00E0000
601F0000
783F8380
3FEDFF00
0F847C00
ENDCHAR
STARTCHAR char1238
ENCODING 1238
SWIDTH 26 0
DWIDTH 18 0
BBX 14 27 3 0
BITMAP
1030
1830
1860
0FE0
0780
0000
FFFC
FFFC
C000
C000
C000
C000
C000
C000
C000
FFE0
FFE0
C000
C000
C000
C000
C000
C000
C000
C000
FFFC
FFFC
ENDCHAR
STARTCHAR char1239
ENCODING 1239
SWIDTH 19 0
DWIDTH 16 0
BBX 13 21 2 0
BITMAP
3020
3060
3860
1FC0
0780
0000
0F80
3FE0
7070
6038
C018
C018
FFF8
FFF8
C000
C000
C000
6000
7030
3FF0
0FC0
ENDCHAR
STARTCHAR char1240
ENCODING 1240
SWIDTH 5 0
DWIDTH 22 0
BBX 18 21 2 0
BITMAP
03F000
0FFC00
1C0E00
300300
600180
E00180
C000C0
C000C0
C000C0
FFFFC0
FFFFC0
0000C0
0000C0
0000C0
0000C0
000180
200380
700700
380E00
1FFC00
07F000
ENDCHAR
STARTCHAR char1241
ENCODING 1241
SWIDTH 19 0
DWIDTH 16 0
BBX 14 15 1 0
BITMAP
0F80
3FE0
7070
0038
0018
001C
000C
FFFC
FFFC
C00C
C018
6018
7070
3FE0
0F80
ENDCHAR
STARTCHAR char1244
ENCODING 1244
SWIDTH 22 0
DWIDTH 27 0
BBX 26 27 1 0
BITMAP
00638000
00E38000
00638000
00000000
00000000
00000000
400C0180
600C0380
300C0300
380C0600
180C0C00
0C0C1C00
060C3800
070C3000
030C6000
01FFE000
01FFE000
030C6000
070C3000
0E0C3800
0C0C1C00
180C0E00
380C0600
700C0300
600C0380
C00C0180
C00C00C0
ENDCHAR
STARTCHAR char1245
ENCODING 1245
SWIDTH 2 0
DWIDTH 21 0
BBX 19 21 1 0
BITMAP
031800
071C00
031800
000000
000000
000000
404060
E0E0C0
60E0C0
30E180
38E380
18E300
0CE600
0FFE00
0FFE00
1CE700
38E380
30E180
60E0C0
E0E0E0
C04060
ENDCHAR
STARTCHAR char1246
ENCODING 1246
SWIDTH 23 0
DWIDTH 17 0
BBX 14 27 1 0
BITMAP
0C70
1C70
0C70
0000
0000
0000
0FC0
3FF0
7038
6018
0018
0018
0018
0018
0030
07E0
03F0
0038
000C
000C
000C
000C
000C
E01C
7038
3FF0
0FC0
ENDCHAR
STARTCHAR char1247
ENCODING 1247
SWIDTH 13 0
DWIDTH 14 0
BBX 12 21 1 0
BITMAP
18C0
38E0
18C0
0000
0000
0000
1F80
3FC0
60E0
4060
0060
00E0
07C0
0FC0
00E0
0060
0030
C070
E0E0
7FC0
1F80
ENDCHAR
STARTCHAR char1250
ENCODING 1250
SWIDTH 9 0
DWIDTH 23 0
BBX 17 26 3 0
BITMAP
0FF800
0FF800
000000
000000
000000
C00180
C00380
C00780
C00780
C00D80
C01980
C03980
C03180
C06180
C0C180
C18180
C38180
C30180
C60180
CC0180
DC0180
D80180
F00180
E00180
C00180
C00180
ENDCHAR
STARTCHAR char1251
ENCODING 1251
SWIDTH 26 0
DWIDTH 18 0
BBX 14 20 2 0
BITMAP
1FE0
1FF0
0000
0000
0000
C008
C00C
C00C
C00C
C00C
C00C
C00C
C00C
C00C
C00C
E01C
601C
707C
3FEC
0F88
ENDCHAR
STARTCHAR char1252
ENCODING 1252
SWIDTH 9 0
DWIDTH 23 0
BBX 17 27 3 0
BITMAP
0E3000
0E3800
0E3000
000000
000000
000000
C00180
C00380
C00780
C00780
C00D80
C01980
C03980
C03180
C06180
C0C180
C18180
C38180
C30180
C60180
CC0180
DC0180
D80180
F00180
E00180
C00180
C00180
ENDCHAR
STARTCHAR char1253
ENCODING 1253
SWIDTH 26 0
DWIDTH 18 0
BBX 14 21 2 0
BITMAP
1860
1CE0
1860
0000
0000
0000
C008
C00C
C00C
C00C
C00C
C00C
C00C
C00C
C00C
C00C
E01C
601C
707C
3FEC
0F88
ENDCHAR
STARTCHAR char1254
ENCODING 1254
SWIDTH 15 0
DWIDTH 25 0
BBX 21 27 2 0
BITMAP
038C00
038E00
038C00
000000
000000
000000
01FC00
07FF00
1E0380
3801C0
700060
600070
E00030
C00038
C00018
C00018
C00018
C00018
C00018
C00038
E00030
600070
700060
3801C0
1E0380
07FF00
01FC00
ENDCHAR
STARTCHAR char1255
ENCODING 1255
SWIDTH 26 0
DWIDTH 18 0
BBX 14 21 2 0
BITMAP
1860
1CE0
1860
0000
0000
0000
0FC0
3FF0
7838
6018
C00C
C00C
C00C
C00C
C00C
C00C
C00C
6018
7838
3FF0
0FC0
ENDCHAR
STARTCHAR char1256
ENCODING 1256
SWIDTH 15 0
DWIDTH 25 0
BBX 21 21 2 0
BITMAP
01FC00
07FF00
1E0380
3800C0
700060
600030
C00030
C00038
C00018
FFFFF8
FFFFF8
C00018
C00018
C00038
E00030
600070
7000E0
3801C0
1E0380
07FF00
01FC00
ENDCHAR
STARTCHAR char1257
ENCODING 1257
SWIDTH 26 0
DWIDTH 18 0
BBX 14 15 2 0
BITMAP
0FC0
3FF0
7038
6018
C00C
C00C
FFFC
FFFC
C00C
C00C
E00C
6018
7838
3FF0
0FC0
ENDCHAR
STARTCHAR char1262
ENCODING 1262
SWIDTH 29 0
DWIDTH 19 0
BBX 18 26 0 0
BITMAP
07FC00
07FC00
000000
000000
000000
C000C0
C00180
600180
700300
300300
380600
180600
0C0E00
0C0C00
061C00
071800
031800
01B000
01B000
00E000
00E000
00C000
00C000
018000
3F0000
1E0000
ENDCHAR
STARTCHAR char1263
ENCODING 1263
SWIDTH 16 0
DWIDTH 15 0
BBX 15 26 -1 -6
BITMAP
0FF8
0FF8
0000
0000
0000
6006
3006
300C
180C
181C
0C18
0C18
0630
0630
0760
0360
03E0
01C0
01C0
0180
0180
0300
0300
0600
FC00
7800
ENDCHAR
STARTCHAR char1264
ENCODING 1264
SWIDTH 29 0
DWIDTH 19 0
BBX 18 27 0 0
BITMAP
071800
071C00
031800
000000
000000
000000
C000C0
C00180
600180
700300
300300
380600
180600
0C0E00
0C0C00
061C00
071800
031800
01B000
01B000
00E000
00E000
00C000
00C000
018000
3F0000
1E0000
ENDCHAR
STARTCHAR char1265
ENCODING 1265
SWIDTH 16 0
DWIDTH 15 0
BBX 15 27 -1 -6
BITMAP
0630
0E38
0630
0000
0000
0000
6006
3006
300C
180C
181C
0C18
0C18
0630
0630
0760
0360
03E0
01C0
01C0
0180
0180
0300
0300
0600
FC00
7800
ENDCHAR
STARTCHAR char1266
ENCODING 1266
SWIDTH 29 0
DWIDTH 19 0
BBX 18 29 0 0
BITMAP
008800
00CC00
019800
019800
011800
011000
000000
000000
C000C0
C00180
600180
700300
300300
380600
180600
0C0E00
0C0C00
061C00
071800
031800
01B000
01B000
00E000
00E000
00C000
00C000
018000
3F0000
1E0000
ENDCHAR
STARTCHAR char1267
ENCODING 1267
SWIDTH 16 0
DWIDTH 15 0
BBX 15 29 -1 -6
BITMAP
0110
0198
03B8
0330
0330
0220
0000
0000
6006
3006
300C
180C
181C
0C18
0C18
0630
0630
0760
0360
03E0
01C0
01C0
0180
0180
0300
0300
0600
FC00
7800
ENDCHAR
STARTCHAR char1268
ENCODING 1268
SWIDTH 33 0
DWIDTH 20 0
BBX 16 27 2 0
BITMAP
0C70
0C70
0C30
0000
0000
0000
C002
C007
C007
C007
C007
C007
C007
C007
E007
6007
7007
381F
1FFF
07E7
0007
0007
0007
0007
0007
0007
0002
ENDCHAR
STARTCHAR char1269
ENCODING 1269
SWIDTH 19 0
DWIDTH 16 0
BBX 12 21 1 0
BITMAP
18C0
38E0
18C0
0000
0000
0000
C030
C030
C030
C030
C030
E030
6030
7070
3FF0
1FB0
0030
0030
0030
0030
0030
ENDCHAR
STARTCHAR char1270
ENCODING 1270
SWIDTH 19 0
DWIDTH 16 0
BBX 13 25 3 -4
BITMAP
FFF8
FFF8
C000
C000
C000
C000
C000
C000
C000
C000
C000
C000
C000
C000
C000
C000
C000
C000
C000
F000
F000
3000
3000
3000
3000
ENDCHAR
STARTCHAR char1271
ENCODING 1271
SWIDTH 13 0
DWIDTH 14 0
BBX 12 20 1 -5
BITMAP
1F80
7FC0
E0E0
4060
0060
00E0
03C0
1F00
3800
6000
C000
C020
6070
7FE0
1F80
0600
0600
0600
0600
0600
ENDCHAR
STARTCHAR char1272
ENCODING 1272
SWIDTH 15 0
DWIDTH 25 0
BBX 19 27 3 0
BITMAP
031800
071C00
031800
000000
000000
000000
C00060
C00060
C00060
C00060
C00060
C00060
C00060
C00060
FF8060
FFE060
C07060
C03860
C01860
C01860
C01860
C01860
C01860
C03860
C07060
FFE060
FFC060
ENDCHAR
STARTCHAR char1273
ENCODING 1273
SWIDTH 2 0
DWIDTH 21 0
BBX 16 21 2 0
BITMAP
0C30
0E70
0C30
0000
0000
0000
4003
C003
C003
C003
C003
FF83
FFE3
C063
C033
C033
E033
6033
7063
3FC3
0F83
ENDCHAR
STARTCHAR char1306
ENCODING 1306
SWIDTH 15 0
DWIDTH 25 0
BBX 21 21 2 0
BITMAP
01FC00
07FF00
1E0380
3801C0
700060
600070
E00030
C00038
C00018
C00018
C00018
C00018
C00018
C00C38
E00E30
600770
7003E0
3801C0
1E03E0
07FF70
01FC30
ENDCHAR
STARTCHAR char1307
ENCODING 1307
SWIDTH 29 0
DWIDTH 19 0
BBX 14 21 2 -6
BITMAP
0FC0
3FF0
7838
6018
C00C
C00C
C00C
C00C
C00C
C00C
C00C
601C
783C
3FEC
0FCC
000C
000C
000C
000C
000C
0004
ENDCHAR
STARTCHAR char1308
ENCODING 1308
SWIDTH 15 0
DWIDTH 25 0
BBX 23 21 1 0
BITMAP
800002
C03806
C03806
C03806
E0280E
606C0C
606C0C
606C0C
30C418
30C618
30C618
18C630
198330
198330
198330
0D0160
0F01E0
0F01E0
0701C0
0600C0
0600C0
ENDCHAR
STARTCHAR char1309
ENCODING 1309
SWIDTH 33 0
DWIDTH 20 0
BBX 19 15 0 0
BITMAP
C06020
606060
60E060
60F060
30F0C0
30B0C0
3198C0
119980
191980
1B0980
1B0F00
0F0F00
0E0700
0E0600
060600
ENDCHAR
STARTCHAR char7808
ENCODING 7808
SWIDTH 15 0
DWIDTH 25 0
BBX 23 28 1 0
BITMAP
008000
01C000
006000
003800
001000
000000
000000
800002
C03806
C03806
C03806
E0280E
606C0C
606C0C
606C0C
30C418
30C618
30C618
18C630
198330
198330
198330
0D0160
0F01E0
0F01E0
0701C0
0600C0
0600C0
ENDCHAR
STARTCHAR char7809
ENCODING 7809
SWIDTH 33 0
DWIDTH 20 0
BBX 19 22 0 0
BITMAP
030000
038000
01C000
00E000
006000
000000
000000
C06020
606060
60E060
60F060
30F0C0
30B0C0
3198C0
119980
191980
1B0980
1B0F00
0F0F00
0E0700
0E0600
060600
ENDCHAR
STARTCHAR char7810
ENCODING 7810
SWIDTH 15 0
DWIDTH 25 0
BBX 23 28 1 0
BITMAP
000600
000E00
001C00
003800
003000
000000
000000
800002
C03806
C03806
C03806
E0280E
606C0C
606C0C
606C0C
30C418
30C618
30C618
18C630
198330
198330
198330
0D0160
0F01E0
0F01E0
0701C0
0600C0
0600C0
ENDCHAR
STARTCHAR char7811
ENCODING 7811
SWIDTH 33 0
DWIDTH 20 0
BBX 19 22 0 0
BITMAP
000C00
001C00
003800
007000
006000
000000
000000
C06020
606060
60E060
60F060
30F0C0
30B0C0
3198C0
119980
191980
1B0980
1B0F00
0F0F00
0E0700
0E0600
060600
ENDCHAR
STARTCHAR char7812
ENCODING 7812
SWIDTH 15 0
DWIDTH 25 0
BBX 23 27 1 0
BITMAP
00C600
01C700
00C600
000000
000000
000000
800002
C03806
C03806
C03806
E0280E
606C0C
606C0C
606C0C
30C418
30C618
30C618
18C630
198330
198330
198330
0D0160
0F01E0
0F01E0
0701C0
0600C0
0600C0
ENDCHAR
STARTCHAR char7813
ENCODING 7813
SWIDTH 33 0
DWIDTH 20 0
BBX 19 21 0 0
BITMAP
030C00
039C00
030C00
000000
000000
000000
C06020
606060
60E060
60F060
30F0C0
30B0C0
3198C0
119980
191980
1B0980
1B0F00
0F0F00
0E0700
0E0600
060600
ENDCHAR
STARTCHAR char7838
ENCODING 7838
SWIDTH 29 0
DWIDTH 19 0
BBX 14 21 3 0
BITMAP
1F80
3FE0
7070
E030
C070
C0E0
C0C0
C180
C3C0
C3F0
C038
C018
C00C
C00C
C00C
C00C
C00C
C018
C838
CFF0
C7C0
ENDCHAR
STARTCHAR char7840
ENCODING 7840
SWIDTH 29 0
DWIDTH 19 0
BBX 18 27 0 -6
BITMAP
004000
00E000
00E000
01F000
01B000
03B000
031800
031800
060C00
060C00
0E0E00
0C0600
1C0600
180300
1FFF00
3FFF80
300180
700180
6000C0
E000C0
4000C0
000000
000000
000000
00C000
00E000
00C000
ENDCHAR
STARTCHAR char7841
ENCODING 7841
SWIDTH 26 0
DWIDTH 18 0
BBX 14 21 2 -6
BITMAP
0FC0
3FF0
7838
6018
C00C
C00C
C00C
C00C
C00C
C00C
C00C
601C
783C
3FEC
0FC4
0000
0000
0000
0300
0300
0300
ENDCHAR
STARTCHAR char7842
ENCODING 7842
SWIDTH 29 0
DWIDTH 19 0
BBX 18 30 0 0
BITMAP
00E000
01F000
011800
001800
003000
00E000
00C000
000000
000000
004000
00E000
00E000
01F000
01B000
03B000
031800
031800
060C00
060C00
0E0E00
0C0600
1C0600
180300
1FFF00
3FFF80
300180
700180
6000C0
E000C0
4000C0
ENDCHAR
STARTCHAR char7843
ENCODING 7843
SWIDTH 26 0
DWIDTH 18 0
BBX 14 24 2 0
BITMAP
0380
07C0
04C0
0040
00C0
0380
0300
0000
0000
0FC0
3FF0
7838
6018
C00C
C00C
C00C
C00C
C00C
C00C
C00C
601C
783C
3FEC
0FC4
ENDCHAR
STARTCHAR char7844
ENCODING 7844
SWIDTH 29 0
DWIDTH 19 0
BBX 18 33 0 0
BITMAP
000300
000700
000E00
001C00
001800
000000
00E000
01F000
07B800
061C00
000000
000000
004000
00E000
00E000
01F000
01B000
03B000
031800
031800
060C00
060C00
0E0E00
0C0600
1C0600
180300
1FFF00
3FFF80
300180
700180
6000C0
E000C0
4000C0
ENDCHAR
STARTCHAR char7845
ENCODING 7845
SWIDTH 26 0
DWIDTH 18 0
BBX 14 27 2 0
BITMAP
0018
0038
0070
00E0
0040
0000
0300
0FC0
1EE0
1860
0000
0000
0FC0
3FF0
7838
6018
C00C
C00C
C00C
C00C
C00C
C00C
C00C
601C
783C
3FEC
0FC4
ENDCHAR
STARTCHAR char7846
ENCODING 7846
SWIDTH 29 0
DWIDTH 19 0
BBX 18 33 0 0
BITMAP
00C000
00E000
007000
003800
001800
000000
00E000
01F000
07B800
061C00
000000
000000
004000
00E000
00E000
01F000
01B000
03B000
031800
031800
060C00
060C00
0E0E00
0C0600
1C0600
180300
1FFF00
3FFF80
300180
700180
6000C0
E000C0
4000C0
ENDCHAR
STARTCHAR char7847
ENCODING 7847
SWIDTH 26 0
DWIDTH 18 0
BBX 14 27 2 0
BITMAP
0300
0380
01C0
00E0
0040
0000
0300
0FC0
1EE0
1860
0000
0000
0FC0
3FF0
7838
6018
C00C
C00C
C00C
C00C
C00C
C00C
C00C
601C
783C
3FEC
0FC4
ENDCHAR
STARTCHAR char7848
ENCODING 7848
SWIDTH 29 0
DWIDTH 19 0
BBX 18 35 0 0
BITMAP
001C00
003E00
002600
000200
000600
001C00
001800
000000
00E000
01F000
03B800
060C00
000000
000000
004000
00E000
00E000
01F000
01B000
03B000
031800
031800
060C00
060C00
0E0E00
0C0600
1C0600
180300
1FFF00
3FFF80
300180
700180
6000C0
E000C0
4000C0
ENDCHAR
STARTCHAR char7849
ENCODING 7849
SWIDTH 26 0
DWIDTH 18 0
BBX 14 29 2 0
BITMAP
00F0
01F8
0098
0018
0038
0070
0060
0000
0300
07C0
1EE0
1860
0000
0000
0FC0
3FF0
7838
6018
C00C
C00C
C00C
C00C
C00C
C00C
C00C
601C
783C
3FEC
0FC4
ENDCHAR
STARTCHAR char7850
ENCODING 7850
SWIDTH 29 0
DWIDTH 19 0
BBX 18 32 0 0
BITMAP
038800
07D800
067800
063000
000000
00E000
01F000
07BC00
061800
000000
000000
004000
00E000
00E000
01F000
01B000
03B000
031800
031800
060C00
060C00
0E0E00
0C0600
1C0600
180300
1FFF00
3FFF80
300180
700180
6000C0
E000C0
4000C0
ENDCHAR
STARTCHAR char7851
ENCODING 7851
SWIDTH 26 0
DWIDTH 18 0
BBX 14 26 2 0
BITMAP
0E20
1F60
1BE0
11C0
0000
0300
0FC0
1EE0
1860
0000
0000
0FC0
3FF0
7838
6018
C00C
C00C
C00C
C00C
C00C
C00C
C00C
601C
783C
3FEC
0FC4
ENDCHAR
STARTCHAR char7852
ENCODING 7852
SWIDTH 29 0
DWIDTH 19 0
BBX 18 33 0 -6
BITMAP
00E000
01F000
07B800
061C00
000000
000000
004000
00E000
00E000
01F000
01B000
03B000
031800
031800
060C00
060C00
0E0E00
0C0600
1C0600
180300
1FFF00
3FFF80
300180
700180
6000C0
E000C0
4000C0
000000
000000
000000
00C000
00E000
00C000
ENDCHAR
STARTCHAR char7853
ENCODING 7853
SWIDTH 26 0
DWIDTH 18 0
BBX 14 27 2 -6
BITMAP
0300
0FC0
1EE0
1860
0000
0000
0FC0
3FF0
7838
6018
C00C
C00C
C00C
C00C
C00C
C00C
C00C
601C
783C
3FEC
0FC4
0000
0000
0000
0300
0300
0300
ENDCHAR
STARTCHAR char7854
ENCODING 7854
SWIDTH 29 0
DWIDTH 19 0
BBX 18 33 0 0
BITMAP
001800
003800
007000
00E000
00C000
000000
060800
071C00
03F800
01F000
000000
000000
004000
00E000
00E000
01F000
01B000
03B000
031800
031800
060C00
060C00
0E0E00
0C0600
1C0600
180300
1FFF00
3FFF80
300180
700180
6000C0
E000C0
4000C0
ENDCHAR
STARTCHAR char7855
ENCODING 7855
SWIDTH 26 0
DWIDTH 18 0
BBX 14 26 2 0
BITMAP
0060
00E0
01C0
0380
0300
1860
1860
1FE0
0780
0000
0000
0FC0
3FF0
7838
6018
C00C
C00C
C00C
C00C
C00C
C00C
C00C
601C
783C
3FEC
0FC4
ENDCHAR
STARTCHAR char7856
ENCODING 7856
SWIDTH 29 0
DWIDTH 19 0
BBX 18 33 0 0
BITMAP
020000
070000
038000
01C000
00C000
000000
060800
071C00
03F800
01F000
000000
000000
004000
00E000
00E000
01F000
01B000
03B000
031800
031800
060C00
060C00
0E0E00
0C0600
1C0600
180300
1FFF00
3FFF80
300180
700180
6000C0
E000C0
4000C0
ENDCHAR
STARTCHAR char7857
ENCODING 7857
SWIDTH 26 0
DWIDTH 18 0
BBX 14 26 2 0
BITMAP
1800
1C00
0E00
0700
0300
1860
1860
1FE0
0780
0000
0000
0FC0
3FF0
7838
6018
C00C
C00C
C00C
C00C
C00C
C00C
C00C
601C
783C
3FEC
0FC4
ENDCHAR
STARTCHAR char7858
ENCODING 7858
SWIDTH 29 0
DWIDTH 19 0
BBX 18 35 0 0
BITMAP
00E000
01F000
011800
001800
003000
00E000
00C000
000000
060800
071C00
03F800
01F000
000000
000000
004000
00E000
00E000
01F000
01B000
03B000
031800
031800
060C00
060C00
0E0E00
0C0600
1C0600
180300
1FFF00
3FFF80
300180
700180
6000C0
E000C0
4000C0
ENDCHAR
STARTCHAR char7859
ENCODING 7859
SWIDTH 26 0
DWIDTH 18 0
BBX 14 28 2 0
BITMAP
0380
07C0
04C0
0040
00C0
0380
0300
1860
1860
1FE0
0780
0000
0000
0FC0
3FF0
7838
6018
C00C
C00C
C00C
C00C
C00C
C00C
C00C
601C
783C
3FEC
0FC4
ENDCHAR
STARTCHAR char7860
ENCODING 7860
SWIDTH 29 0
DWIDTH 19 0
BBX 18 32 0 0
BITMAP
038800
03D800
067800
063000
000000
060800
071C00
03F800
01F000
000000
000000
004000
00E000
00E000
01F000
01B000
03B000
031800
031800
060C00
060C00
0E0E00
0C0600
1C0600
180300
1FFF00
3FFF80
300180
700180
6000C0
E000C0
4000C0
ENDCHAR
STARTCHAR char7861
ENCODING 7861
SWIDTH 26 0
DWIDTH 18 0
BBX 14 25 2 0
BITMAP
0E20
1F60
1BE0
11C0
1860
1860
1FE0
0780
0000
0000
0FC0
3FF0
7838
6018
C00C
C00C
C00C
C00C
C00C
C00C
C00C
601C
783C
3FEC
0FC4
ENDCHAR
STARTCHAR char7862
ENCODING 7862
SWIDTH 29 0
DWIDTH 19 0
BBX 18 33 0 -6
BITMAP
060800
071C00
03F800
01F000
000000
000000
004000
00E000
00E000
01F000
01B000
03B000
031800
031800
060C00
060C00
0E0E00
0C0600
1C0600
180300
1FFF00
3FFF80
300180
700180
6000C0
E000C0
4000C0
000000
000000
000000
00C000
00E000
00C000
ENDCHAR
STARTCHAR char7863
ENCODING 7863
SWIDTH 26 0
DWIDTH 18 0
BBX 14 27 2 -6
BITMAP
1860
1860
1FE0
0780
0000
0000
0FC0
3FF0
7838
6018
C00C
C00C
C00C
C00C
C00C
C00C
C00C
601C
783C
3FEC
0FC4
0000
0000
0000
0300
0300
0300
ENDCHAR
STARTCHAR char7864
ENCODING 7864
SWIDTH 26 0
DWIDTH 18 0
BBX 14 27 3 -6
BITMAP
FFFC
FFFC
C000
C000
C000
C000
C000
C000
C000
FFE0
FFE0
C000
C000
C000
C000
C000
C000
C000
C000
FFFC
FFFC
0000
0000
0000
0300
0700
0300
ENDCHAR
STARTCHAR char7865
ENCODING 7865
SWIDTH 19 0
DWIDTH 16 0
BBX 13 21 2 -6
BITMAP
0F80
3FE0
7070
6038
C018
C018
FFF8
FFF8
C000
C000
C000
6000
7030
3FF0
0FC0
0000
0000
0000
0700
0700
0700
ENDCHAR
STARTCHAR char7866
ENCODING 7866
SWIDTH 26 0
DWIDTH 18 0
BBX 14 30 3 0
BITMAP
0380
07C0
0440
0060
00C0
0380
0300
0000
0000
FFFC
FFFC
C000
C000
C000
C000
C000
C000
C000
FFE0
FFE0
C000
C000
C000
C000
C000
C000
C000
C000
FFFC
FFFC
ENDCHAR
STARTCHAR char7867
ENCODING 7867
SWIDTH 19 0
DWIDTH 16 0
BBX 13 24 2 0
BITMAP
0700
0F80
0CC0
00C0
01C0
0700
0600
0000
0000
0F80
3FE0
7070
6038
C018
C018
FFF8
FFF8
C000
C000
C000
6000
7030
3FF0
0FC0
ENDCHAR
STARTCHAR char7868
ENCODING 7868
SWIDTH 26 0
DWIDTH 18 0
BBX 14 26 3 0
BITMAP
0F08
1FF8
30F0
0000
0000
FFFC
FFFC
C000
C000
C000
C000
C000
C000
C000
FFE0
FFE0
C000
C000
C000
C000
C000
C000
C000
C000
FFFC
FFFC
ENDCHAR
STARTCHAR char7869
ENCODING 7869
SWIDTH 19 0
DWIDTH 16 0
BBX 13 20 2 0
BITMAP
1E10
3FF0
21E0
0000
0000
0F80
3FE0
7070
6038
C018
C018
FFF8
FFF8
C000
C000
C000
6000
7030
3FF0
0FC0
ENDCHAR
STARTCHAR char7870
ENCODING 7870
SWIDTH 26 0
DWIDTH 18 0
BBX 14 33 3 0
BITMAP
0008
001C
0030
00E0
0040
0000
0300
07C0
1EE0
1860
0000
0000
FFFC
FFFC
C000
C000
C000
C000
C000
C000
C000
FFE0
FFE0
C000
C000
C000
C000
C000
C000
C000
C000
FFFC
FFFC
ENDCHAR
STARTCHAR char7871
ENCODING 7871
SWIDTH 19 0
DWIDTH 16 0
BBX 13 27 2 0
BITMAP
0018
0038
0070
00E0
00C0
0000
0700
0F80
1DC0
3060
0000
0000
0F80
3FE0
7070
6038
C018
C018
FFF8
FFF8
C000
C000
C000
6000
7030
3FF0
0FC0
ENDCHAR
STARTCHAR char7872
ENCODING 7872
SWIDTH 26 0
DWIDTH 18 0
BBX 14 33 3 0
BITMAP
0300
0380
01C0
00E0
0060
0000
0300
07C0
1EE0
1860
0000
0000
FFFC
FFFC
C000
C000
C000
C000
C000
C000
C000
FFE0
FFE0
C000
C000
C000
C000
C000
C000
C000
C000
FFFC
FFFC
ENDCHAR
STARTCHAR char7873
ENCODING 7873
SWIDTH 19 0
DWIDTH 16 0
BBX 13 27 2 0
BITMAP
0600
0700
0380
01C0
00C0
0000
0700
0F80
1DC0
3060
0000
0000
0F80
3FE0
7070
6038
C018
C018
FFF8
FFF8
C000
C000
C000
6000
7030
3FF0
0FC0
ENDCHAR
STARTCHAR char7874
ENCODING 7874
SWIDTH 26 0
DWIDTH 18 0
BBX 14 35 3 0
BITMAP
00F0
01F8
0098
0018
0038
0070
0060
0000
0300
07C0
1EE0
1860
0000
0000
FFFC
FFFC
C000
C000
C000
C000
C000
C000
C000
FFE0
FFE0
C000
C000
C000
C000
C000
C000
C000
C000
FFFC
FFFC
ENDCHAR
STARTCHAR char7875
ENCODING 7875
SWIDTH 19 0
DWIDTH 16 0
BBX 13 29 2 0
BITMAP
00E0
01F0
0130
0018
0030
00E0
00C0
0000
0700
0F80
1DE0
3860
0000
0000
0F80
3FE0
7070
6038
C018
C018
FFF8
FFF8
C000
C000
C000
6000
7030
3FF0
0FC0
ENDCHAR
STARTCHAR char7876
ENCODING 7876
SWIDTH 26 0
DWIDTH 18 0
BBX 14 32 3 0
BITMAP
0E20
1F60
1BE0
10C0
0000
0300
07C0
1EE0
1860
0000
0000
FFFC
FFFC
C000
C000
C000
C000
C000
C000
C000
FFE0
FFE0
C000
C000
C000
C000
C000
C000
C000
C000
FFFC
FFFC
ENDCHAR
STARTCHAR char7877
ENCODING 7877
SWIDTH 19 0
DWIDTH 16 0
BBX 13 26 2 0
BITMAP
1C40
1EC0
33C0
3180
0000
0700
0F80
1DC0
3060
0000
0000
0F80
3FE0
7070
6038
C018
C018
FFF8
FFF8
C000
C000
C000
6000
7030
3FF0
0FC0
ENDCHAR
STARTCHAR char7878
ENCODING 7878
SWIDTH 26 0
DWIDTH 18 0
BBX 14 33 3 -6
BITMAP
0300
07C0
1EE0
1860
0000
0000
FFFC
FFFC
C000
C000
C000
C000
C000
C000
C000
FFE0
FFE0
C000
C000
C000
C000
C000
C000
C000
C000
FFFC
FFFC
0000
0000
0000
0300
0700
0300
ENDCHAR
STARTCHAR char7879
ENCODING 7879
SWIDTH 19 0
DWIDTH 16 0
BBX 13 27 2 -6
BITMAP
0700
0F80
1DC0
3060
0000
0000
0F80
3FE0
7070
6038
C018
C018
FFF8
FFF8
C000
C000
C000
6000
7030
3FF0
0FC0
0000
0000
0000
0700
0700
0700
ENDCHAR
STARTCHAR char7880
ENCODING 7880
SWIDTH 23 0
DWIDTH 7 0
BBX 6 30 1 0
BITMAP
78
FC
4C
0C
1C
38
30
00
00
30
30
30
30
30
30
30
30
30
30
30
30
30
30
30
30
30
30
30
30
30
ENDCHAR
STARTCHAR char7881
ENCODING 7881
SWIDTH 26 0
DWIDTH 8 0
BBX 6 24 1 0
BITMAP
38
FC
4C
0C
1C
38
30
00
00
30
30
30
30
30
30
30
30
30
30
30
30
30
30
30
ENDCHAR
STARTCHAR char7882
ENCODING 7882
SWIDTH 23 0
DWIDTH 7 0
BBX 3 27 2 -6
BITMAP
60
60
60
60
60
60
60
60
60
60
60
60
60
60
60
60
60
60
60
60
60
00
00
00
60
E0
60
ENDCHAR
STARTCHAR char7883
ENCODING 7883
SWIDTH 26 0
DWIDTH 8 0
BBX 3 27 2 -6
BITMAP
60
E0
60
00
00
00
60
60
60
60
60
60
60
60
60
60
60
60
60
60
60
00
00
00
60
E0
60
ENDCHAR
STARTCHAR char7884
ENCODING 7884
SWIDTH 15 0
DWIDTH 25 0
BBX 21 27 2 -6
BITMAP
01FC00
07FF00
1E0380
3801C0
700060
600070
E00030
C00038
C00018
C00018
C00018
C00018
C00018
C00038
E00030
600070
700060
3801C0
1E0380
07FF00
01FC00
000000
000000
000000
006000
007000
006000
ENDCHAR
STARTCHAR char7885
ENCODING 7885
SWIDTH 26 0
DWIDTH 18 0
BBX 14 21 2 -6
BITMAP
0FC0
3FF0
7838
6018
C00C
C00C
C00C
C00C
C00C
C00C
C00C
6018
7838
3FF0
0FC0
0000
0000
0000
0300
0300
0300
ENDCHAR
STARTCHAR char7886
ENCODING 7886
SWIDTH 15 0
DWIDTH 25 0
BBX 21 30 2 0
BITMAP
007000
00F800
008C00
000C00
001800
007000
006000
000000
000000
01FC00
07FF00
1E0380
3801C0
700060
600070
E00030
C00038
C00018
C00018
C00018
C00018
C00018
C00038
E00030
600070
700060
3801C0
1E0380
07FF00
01FC00
ENDCHAR
STARTCHAR char7887
ENCODING 7887
SWIDTH 26 0
DWIDTH 18 0
BBX 14 24 2 0
BITMAP
0380
07C0
04C0
0040
00C0
0380
0300
0000
0000
0FC0
3FF0
7838
6018
C00C
C00C
C00C
C00C
C00C
C00C
C00C
6018
7838
3FF0
0FC0
ENDCHAR
STARTCHAR char7888
ENCODING 7888
SWIDTH 15 0
DWIDTH 25 0
BBX 21 33 2 0
BITMAP
000100
000380
000700
000E00
000C00
000000
006000
00F800
03DC00
030C00
000000
000000
01FC00
07FF00
1E0380
3801C0
700060
600070
E00030
C00038
C00018
C00018
C00018
C00018
C00018
C00038
E00030
600070
700060
3801C0
1E0380
07FF00
01FC00
ENDCHAR
STARTCHAR char7889
ENCODING 7889
SWIDTH 26 0
DWIDTH 18 0
BBX 14 27 2 0
BITMAP
0018
0038
0070
00E0
0040
0000
0300
0FC0
1EE0
1860
0000
0000
0FC0
3FF0
7838
6018
C00C
C00C
C00C
C00C
C00C
C00C
C00C
6018
7838
3FF0
0FC0
ENDCHAR
STARTCHAR char7890
ENCODING 7890
SWIDTH 15 0
DWIDTH 25 0
BBX 21 33 2 0
BITMAP
006000
007000
003800
001C00
000C00
000000
006000
00F800
03DC00
030C00
000000
000000
01FC00
07FF00
1E0380
3801C0
700060
600070
E00030
C00038
C00018
C00018
C00018
C00018
C00018
C00038
E00030
600070
700060
3801C0
1E0380
07FF00
01FC00
ENDCHAR
STARTCHAR char7891
ENCODING 7891
SWIDTH 26 0
DWIDTH 18 0
BBX 14 27 2 0
BITMAP
0300
0380
01C0
00E0
0040
0000
0300
0FC0
1EE0
1860
0000
0000
0FC0
3FF0
7838
6018
C00C
C00C
C00C
C00C
C00C
C00C
C00C
6018
7838
3FF0
0FC0
ENDCHAR
STARTCHAR char7892
ENCODING 7892
SWIDTH 15 0
DWIDTH 25 0
BBX 21 35 2 0
BITMAP
000E00
001F00
001300
000100
000700
000E00
000C00
000000
006000
00F800
03DC00
030E00
000000
000000
01FC00
07FF00
1E0380
3801C0
700060
600070
E00030
C00038
C00018
C00018
C00018
C00018
C00018
C00038
E00030
600070
700060
3801C0
1E0380
07FF00
01FC00
ENDCHAR
STARTCHAR char7893
ENCODING 7893
SWIDTH 26 0
DWIDTH 18 0
BBX 14 29 2 0
BITMAP
00F0
01F8
0098
0018
0038
0070
0060
0000
0300
07C0
1EE0
1860
0000
0000
0FC0
3FF0
7838
6018
C00C
C00C
C00C
C00C
C00C
C00C
C00C
6018
7838
3FF0
0FC0
ENDCHAR
STARTCHAR char7894
ENCODING 7894
SWIDTH 15 0
DWIDTH 25 0
BBX 21 32 2 0
BITMAP
01C400
03EC00
033C00
021800
000000
006000
00F800
03DC00
030E00
000000
000000
01FC00
07FF00
1E0380
3801C0
700060
600070
E00030
C00038
C00018
C00018
C00018
C00018
C00018
C00038
E00030
600070
700060
3801C0
1E0380
07FF00
01FC00
ENDCHAR
STARTCHAR char7895
ENCODING 7895
SWIDTH 26 0
DWIDTH 18 0
BBX 14 26 2 0
BITMAP
0E20
1F60
1BE0
11C0
0000
0300
0FC0
1EE0
1860
0000
0000
0FC0
3FF0
7838
6018
C00C
C00C
C00C
C00C
C00C
C00C
C00C
6018
7838
3FF0
0FC0
ENDCHAR
STARTCHAR char7896
ENCODING 7896
SWIDTH 15 0
DWIDTH 25 0
BBX 21 33 2 -6
BITMAP
006000
00F800
03DC00
030C00
000000
000000
01FC00
07FF00
1E0380
3801C0
700060
600070
E00030
C00038
C00018
C00018
C00018
C00018
C00018
C00038
E00030
600070
700060
3801C0
1E0380
07FF00
01FC00
000000
000000
000000
006000
007000
006000
ENDCHAR
STARTCHAR char7897
ENCODING 7897
SWIDTH 26 0
DWIDTH 18 0
BBX 14 27 2 -6
BITMAP
0300
0FC0
1EE0
1860
0000
0000
0FC0
3FF0
7838
6018
C00C
C00C
C00C
C00C
C00C
C00C
C00C
6018
7838
3FF0
0FC0
0000
0000
0000
0300
0300
0300
ENDCHAR
STARTCHAR char7898
ENCODING 7898
SWIDTH 15 0
DWIDTH 25 0
BBX 21 28 2 0
BITMAP
000C00
001C00
003800
007000
006020
000020
000030
01FC60
07FFE0
1E03C0
3801C0
700060
600070
E00030
C00038
C00018
C00018
C00018
C00018
C00018
C00038
E00030
600070
700060
3801C0
1E0380
07FF00
01FC00
ENDCHAR
STARTCHAR char7899
ENCODING 7899
SWIDTH 26 0
DWIDTH 18 0
BBX 15 22 2 0
BITMAP
0060
00E0
01C0
0380
0304
0006
0006
0FCC
3FFC
7838
6018
C00C
C00C
C00C
C00C
C00C
C00C
C00C
6018
7838
3FF0
0FC0
ENDCHAR
STARTCHAR char7900
ENCODING 7900
SWIDTH 15 0
DWIDTH 25 0
BBX 21 28 2 0
BITMAP
030000
038000
01C000
00E000
006020
000020
000030
01FC60
07FFE0
1E03C0
3801C0
700060
600070
E00030
C00038
C00018
C00018
C00018
C00018
C00018
C00038
E00030
600070
700060
3801C0
1E0380
07FF00
01FC00
ENDCHAR
STARTCHAR char7901
ENCODING 7901
SWIDTH 26 0
DWIDTH 18 0
BBX 15 22 2 0
BITMAP
1800
1C00
0E00
0700
0304
0006
0006
0FCC
3FFC
7838
6018
C00C
C00C
C00C
C00C
C00C
C00C
C00C
6018
7838
3FF0
0FC0
ENDCHAR
STARTCHAR char7902
ENCODING 7902
SWIDTH 15 0
DWIDTH 25 0
BBX 21 30 2 0
BITMAP
007000
00F800
008C00
000C00
001800
007000
006020
000020
000030
01FC60
07FFE0
1E03C0
3801C0
700060
600070
E00030
C00038
C00018
C00018
C00018
C00018
C00018
C00038
E00030
600070
700060
3801C0
1E0380
07FF00
01FC00
ENDCHAR
STARTCHAR char7903
ENCODING 7903
SWIDTH 26 0
DWIDTH 18 0
BBX 15 24 2 0
BITMAP
0380
07C0
04C0
0040
00C0
0380
0304
0006
0006
0FCC
3FFC
7838
6018
C00C
C00C
C00C
C00C
C00C
C00C
C00C
6018
7838
3FF0
0FC0
ENDCHAR
STARTCHAR char7904
ENCODING 7904
SWIDTH 15 0
DWIDTH 25 0
BBX 21 26 2 0
BITMAP
01E100
03FF00
061E20
000020
000030
01FC60
07FFE0
1E03C0
3801C0
700060
600070
E00030
C00038
C00018
C00018
C00018
C00018
C00018
C00038
E00030
600070
700060
3801C0
1E0380
07FF00
01FC00
ENDCHAR
STARTCHAR char7905
ENCODING 7905
SWIDTH 26 0
DWIDTH 18 0
BBX 15 20 2 0
BITMAP
0F18
3FF8
30F4
0006
0006
0FCC
3FFC
7838
6018
C00C
C00C
C00C
C00C
C00C
C00C
C00C
6018
7838
3FF0
0FC0
ENDCHAR
STARTCHAR char7906
ENCODING 7906
SWIDTH 15 0
DWIDTH 25 0
BBX 21 30 2 -6
BITMAP
000020
000020
000030
01FC60
07FFE0
1E03C0
3801C0
700060
600070
E00030
C00038
C00018
C00018
C00018
C00018
C00018
C00038
E00030
600070
700060
3801C0
1E0380
07FF00
01FC00
000000
000000
000000
006000
007000
006000
ENDCHAR
STARTCHAR char7907
ENCODING 7907
SWIDTH 26 0
DWIDTH 18 0
BBX 15 24 2 -6
BITMAP
0004
0006
0006
0FCC
3FFC
7838
6018
C00C
C00C
C00C
C00C
C00C
C00C
C00C
6018
7838
3FF0
0FC0
0000
0000
0000
0300
0300
0300
ENDCHAR
STARTCHAR char7908
ENCODING 7908
SWIDTH 5 0
DWIDTH 22 0
BBX 16 27 3 -6
BITMAP
C003
C003
C003
C003
C003
C003
C003
C003
C003
C003
C003
C003
C003
C003
C003
C003
E007
600E
781C
1FF8
07E0
0000
0000
0000
0180
0380
0180
ENDCHAR
STARTCHAR char7909
ENCODING 7909
SWIDTH 26 0
DWIDTH 18 0
BBX 14 21 2 -6
BITMAP
C008
C00C
C00C
C00C
C00C
C00C
C00C
C00C
C00C
C00C
E01C
601C
707C
3FEC
0F88
0000
0000
0000
0300
0300
0300
ENDCHAR
STARTCHAR char7910
ENCODING 7910
SWIDTH 5 0
DWIDTH 22 0
BBX 16 30 3 0
BITMAP
01C0
03E0
0260
0020
00E0
01C0
0180
0000
0000
C003
C003
C003
C003
C003
C003
C003
C003
C003
C003
C003
C003
C003
C003
C003
C003
E007
600E
781C
1FF8
07E0
ENDCHAR
STARTCHAR char7911
ENCODING 7911
SWIDTH 26 0
DWIDTH 18 0
BBX 14 24 2 0
BITMAP
0380
07C0
04C0
0040
00C0
0380
0300
0000
0000
C008
C00C
C00C
C00C
C00C
C00C
C00C
C00C
C00C
C00C
E01C
601C
707C
3FEC
0F88
ENDCHAR
STARTCHAR char7912
ENCODING 7912
SWIDTH 5 0
DWIDTH 22 0
BBX 19 28 3 0
BITMAP
003000
007000
00E000
01C020
018060
000060
000060
C003E0
C003C0
C00300
C00300
C00300
C00300
C00300
C00300
C00300
C00300
C00300
C00300
C00300
C00300
C00300
C00300
E00700
600E00
781C00
1FF800
07E000
ENDCHAR
STARTCHAR char7913
ENCODING 7913
SWIDTH 26 0
DWIDTH 18 0
BBX 17 22 2 0
BITMAP
006000
00E000
01C000
038000
030180
000180
000180
C00F00
C00E00
C00C00
C00C00
C00C00
C00C00
C00C00
C00C00
C00C00
C00C00
E01C00
601C00
707C00
3FEC00
0F8800
ENDCHAR
STARTCHAR char7914
ENCODING 7914
SWIDTH 5 0
DWIDTH 22 0
BBX 19 28 3 0
BITMAP
0C0000
0E0000
070000
038020
018060
000060
000060
C003E0
C003C0
C00300
C00300
C00300
C00300
C00300
C00300
C00300
C00300
C00300
C00300
C00300
C00300
C00300
C00300
E00700
600E00
781C00
1FF800
07E000
ENDCHAR
STARTCHAR char7915
ENCODING 7915
SWIDTH 26 0
DWIDTH 18 0
BBX 17 22 2 0
BITMAP
180000
1C0000
0E0000
070000
030180
000180
000180
C00F00
C00E00
C00C00
C00C00
C00C00
C00C00
C00C00
C00C00
C00C00
C00C00
E01C00
601C00
707C00
3FEC00
0F8800
ENDCHAR
STARTCHAR char7916
ENCODING 7916
SWIDTH 5 0
DWIDTH 22 0
BBX 19 30 3 0
BITMAP
01C000
03E000
026000
002000
00E000
01C020
018060
000060
000060
C003E0
C003C0
C00300
C00300
C00300
C00300
C00300
C00300
C00300
C00300
C00300
C00300
C00300
C00300
C00300
C00300
E00700
600E00
781C00
1FF800
07E000
ENDCHAR
STARTCHAR char7917
ENCODING 7917
SWIDTH 26 0
DWIDTH 18 0
BBX 17 24 2 0
BITMAP
038000
07C000
04C000
004000
00C000
038000
030180
000180
000180
C00F00
C00E00
C00C00
C00C00
C00C00
C00C00
C00C00
C00C00
C00C00
C00C00
E01C00
601C00
707C00
3FEC00
0F8800
ENDCHAR
STARTCHAR char7918
ENCODING 7918
SWIDTH 5 0
DWIDTH 22 0
BBX 19 26 3 0
BITMAP
078800
1FFC20
187860
000060
000060
C003E0
C003C0
C00300
C00300
C00300
C00300
C00300
C00300
C00300
C00300
C00300
C00300
C00300
C00300
C00300
C00300
E00700
600E00
781C00
1FF800
07E000
ENDCHAR
STARTCHAR char7919
ENCODING 7919
SWIDTH 26 0
DWIDTH 18 0
BBX 17 20 2 0
BITMAP
0F1800
3FF800
30F180
000180
000180
C00F00
C00E00
C00C00
C00C00
C00C00
C00C00
C00C00
C00C00
C00C00
C00C00
E01C00
601C00
707C00
3FEC00
0F8800
ENDCHAR
STARTCHAR char7920
ENCODING 7920
SWIDTH 5 0
DWIDTH 22 0
BBX 19 31 3 -6
BITMAP
000020
000060
000060
000060
C003E0
C003C0
C00300
C00300
C00300
C00300
C00300
C00300
C00300
C00300
C00300
C00300
C00300
C00300
C00300
C00300
E00700
600E00
781C00
1FF800
07E000
000000
000000
000000
018000
038000
018000
ENDCHAR
STARTCHAR char7921
ENCODING 7921
SWIDTH 26 0
DWIDTH 18 0
BBX 17 24 2 -6
BITMAP
000180
000180
000180
C00F00
C00E00
C00C00
C00C00
C00C00
C00C00
C00C00
C00C00
C00C00
C00C00
E01C00
601C00
707C00
3FEC00
0F8800
000000
000000
000000
030000
030000
030000
ENDCHAR
STARTCHAR char7922
ENCODING 7922
SWIDTH 23 0
DWIDTH 17 0
BBX 17 28 0 0
BITMAP
060000
070000
038000
01C000
00C000
000000
000000
C00180
E00180
600300
700700
300600
180E00
1C0C00
0C1800
063800
073000
036000
03E000
01C000
00C000
00C000
00C000
00C000
00C000
00C000
00C000
00C000
ENDCHAR
STARTCHAR char7923
ENCODING 7923
SWIDTH 16 0
DWIDTH 15 0
BBX 14 28 0 -6
BITMAP
0800
1C00
0E00
0380
0100
0000
0000
C004
600C
600C
3018
3018
1830
1830
0C70
0C60
06E0
06C0
07C0
0380
0380
0300
0300
0600
0600
0E00
0C00
0C00
ENDCHAR
STARTCHAR char7924
ENCODING 7924
SWIDTH 23 0
DWIDTH 17 0
BBX 17 27 0 -6
BITMAP
C00180
E00180
600300
700700
300600
180E00
1C0C00
0C1800
063800
073000
036000
03E000
01C000
00C000
00C000
00C000
00C000
00C000
00C000
00C000
00C000
000000
000000
000000
00C000
01C000
00C000
ENDCHAR
STARTCHAR char7925
ENCODING 7925
SWIDTH 16 0
DWIDTH 15 0
BBX 14 21 0 -6
BITMAP
C004
600C
600C
3018
3018
1830
1830
0C70
0C60
06E0
06C0
07C0
0380
0380
0300
0300
0600
0600
0E60
0C70
0C60
ENDCHAR
STARTCHAR char7926
ENCODING 7926
SWIDTH 23 0
DWIDTH 17 0
BBX 17 30 0 0
BITMAP
01E000
03F000
013000
003000
007000
00E000
00C000
000000
000000
C00180
E00180
600300
700700
300600
180E00
1C0C00
0C1800
063800
073000
036000
03E000
01C000
00C000
00C000
00C000
00C000
00C000
00C000
00C000
00C000
ENDCHAR
STARTCHAR char7927
ENCODING 7927
SWIDTH 16 0
DWIDTH 15 0
BBX 14 30 0 -6
BITMAP
0380
07C0
0660
0060
00E0
0180
0300
0000
0000
C004
600C
600C
3018
3018
1830
1830
0C70
0C60
06E0
06C0
07C0
0380
0380
0300
0300
0600
0600
0E00
0C00
0C00
ENDCHAR
STARTCHAR char7928
ENCODING 7928
SWIDTH 23 0
DWIDTH 17 0
BBX 17 26 0 0
BITMAP
078400
0FFC00
0C7800
000000
000000
C00180
E00180
600300
700700
300600
180E00
1C0C00
0C1800
063800
073000
036000
03E000
01C000
00C000
00C000
00C000
00C000
00C000
00C000
00C000
00C000
ENDCHAR
STARTCHAR char7929
ENCODING 7929
SWIDTH 16 0
DWIDTH 15 0
BBX 14 26 0 -6
BITMAP
0F08
1FF8
18F0
0000
0000
C004
600C
600C
3018
3018
1830
1830
0C70
0C60
06E0
06C0
07C0
0380
0380
0300
0300
0600
0600
0E00
0C00
0C00
ENDCHAR
STARTCHAR char8211
ENCODING 8211
SWIDTH 33 0
DWIDTH 10 0
BBX 13 2 -1 6
BITMAP
FFF0
FFF8
ENDCHAR
STARTCHAR char8212
ENCODING 8212
SWIDTH 15 0
DWIDTH 25 0
BBX 27 2 -1 6
BITMAP
FFFFFFE0
FFFFFFE0
ENDCHAR
STARTCHAR char8213
ENCODING 8213
SWIDTH 29 0
DWIDTH 19 0
BBX 21 2 -1 6
BITMAP
FFFFF8
FFFFF8
ENDCHAR
STARTCHAR char8215
ENCODING 8215
SWIDTH 6 0
DWIDTH 12 0
BBX 15 5 -1 -5
BITMAP
FFFE
FFFE
0000
FFFE
FFFE
ENDCHAR
STARTCHAR char8216
ENCODING 8216
SWIDTH 20 0
DWIDTH 6 0
BBX 3 7 2 15
BITMAP
60
60
C0
C0
C0
C0
C0
ENDCHAR
STARTCHAR char8217
ENCODING 8217
SWIDTH 13 0
DWIDTH 4 0
BBX 3 7 0 14
BITMAP
60
E0
E0
60
E0
C0
80
ENDCHAR
STARTCHAR char8218
ENCODING 8218
SWIDTH 20 0
DWIDTH 6 0
BBX 4 7 1 -4
BITMAP
60
70
70
60
60
60
C0
ENDCHAR
STARTCHAR char8219
ENCODING 8219
SWIDTH 20 0
DWIDTH 6 0
BBX 3 7 2 14
BITMAP
C0
C0
C0
C0
C0
60
60
ENDCHAR
STARTCHAR char8220
ENCODING 8220
SWIDTH 26 0
DWIDTH 8 0
BBX 8 7 0 15
BITMAP
33
66
66
66
EE
6E
66
ENDCHAR
STARTCHAR char8221
ENCODING 8221
SWIDTH 23 0
DWIDTH 7 0
BBX 7 7 0 15
BITMAP
88
CC
EC
6E
EE
EE
6E
ENDCHAR
STARTCHAR char8222
ENCODING 8222
SWIDTH 26 0
DWIDTH 8 0
BBX 7 7 1 -4
BITMAP
EC
EC
EE
EC
CC
C8
98
ENDCHAR
STARTCHAR char8224
ENCODING 8224
SWIDTH 16 0
DWIDTH 15 0
BBX 13 27 1 -6
BITMAP
0600
0600
0600
0600
0600
0600
FFF8
FFF0
0600
0600
0600
0600
0600
0600
0600
0600
0600
0600
0600
0600
0600
0600
0600
0600
0600
0600
0600
ENDCHAR
STARTCHAR char8225
ENCODING 8225
SWIDTH 16 0
DWIDTH 15 0
BBX 13 27 1 -6
BITMAP
0600
0600
0600
0600
0600
0600
FFF8
FFF0
0600
0600
0600
0600
0600
0600
0600
0600
0600
0600
0600
FFF0
FFF8
0600
0600
0600
0600
0600
0600
ENDCHAR
STARTCHAR char8226
ENCODING 8226
SWIDTH 33 0
DWIDTH 10 0
BBX 6 6 2 7
BITMAP
78
FC
FC
FC
FC
78
ENDCHAR
STARTCHAR char8230
ENCODING 8230
SWIDTH 29 0
DWIDTH 19 0
BBX 16 3 1 0
BITMAP
E186
E38F
E186
ENDCHAR
STARTCHAR char8240
ENCODING 8240
SWIDTH 15 0
DWIDTH 35 0
BBX 33 21 1 0
BITMAP
1E00600000
7F80E00000
61C1C00000
C0C1800000
C0C3800000
C0C7000000
C0CE000000
61CC000000
7F9C000000
1E38000000
0073C03C00
00E7E0FE00
00CC31C700
01D8198380
0398198180
07181B8180
0618198180
0E18198380
1C0C31C700
380FF0FE00
3003C03C00
ENDCHAR
STARTCHAR char8242
ENCODING 8242
SWIDTH 16 0
DWIDTH 5 0
BBX 3 5 1 16
BITMAP
60
60
60
C0
C0
ENDCHAR
STARTCHAR char8243
ENCODING 8243
SWIDTH 30 0
DWIDTH 9 0
BBX 7 5 1 16
BITMAP
66
66
66
CC
CC
ENDCHAR
STARTCHAR char8249
ENCODING 8249
SWIDTH 23 0
DWIDTH 7 0
BBX 5 15 1 0
BITMAP
18
18
38
30
70
60
E0
C0
E0
60
70
30
38
18
18
ENDCHAR
STARTCHAR char8250
ENCODING 8250
SWIDTH 23 0
DWIDTH 7 0
BBX 5 15 1 0
BITMAP
C0
C0
60
60
30
30
18
18
18
30
30
60
60
C0
C0
ENDCHAR
STARTCHAR char8252
ENCODING 8252
SWIDTH 33 0
DWIDTH 10 0
BBX 9 21 1 0
BITMAP
6300
6300
6300
6300
6300
6300
6300
6300
6300
6300
6300
6300
6300
6300
6300
6300
0000
0000
6300
E380
6300
ENDCHAR
STARTCHAR char8254
ENCODING 8254
SWIDTH 9 0
DWIDTH 13 0
BBX 15 2 -1 23
BITMAP
FFFE
FFFE
ENDCHAR
STARTCHAR char8260
ENCODING 8260
SWIDTH 26 0
DWIDTH 8 0
BBX 14 21 -3 0
BITMAP
0004
000C
001C
0018
0030
0070
0060
00C0
00C0
0180
0300
0300
0600
0C00
0C00
1800
3000
3000
6000
C000
C000
ENDCHAR
STARTCHAR char8308
ENCODING 8308
SWIDTH 2 0
DWIDTH 11 0
BBX 9 11 1 10
BITMAP
0600
0E00
1E00
1600
2600
6600
FF80
FF80
0600
0600
0600
ENDCHAR
STARTCHAR char8353
ENCODING 8353
SWIDTH 2 0
DWIDTH 21 0
BBX 17 25 2 -1
BITMAP
000200
000600
000600
01FE00
07FE00
1E0F80
381D00
301800
601800
E03000
C03000
C07000
C06000
C06000
C0C000
C0C000
C18000
E18000
618000
730000
3B0180
1E0780
07FF00
0FF800
0C0000
ENDCHAR
STARTCHAR char8355
ENCODING 8355
SWIDTH 33 0
DWIDTH 20 0
BBX 18 21 1 0
BITMAP
1FFFC0
1FFFC0
180000
180000
180000
180000
180000
180000
180000
1FFC00
1FFE00
180000
180000
180000
180000
FFE000
7FE000
180000
180000
180000
180000
ENDCHAR
STARTCHAR char8356
ENCODING 8356
SWIDTH 13 0
DWIDTH 14 0
BBX 13 21 1 0
BITMAP
0F80
1FC0
30E0
6060
6000
6000
6000
3000
FF80
FFC0
3000
1000
FFC0
FF80
1000
3000
3000
3018
3038
7FF0
7FF0
ENDCHAR
STARTCHAR char8358
ENCODING 8358
SWIDTH 5 0
DWIDTH 22 0
BBX 22 21 0 0
BITMAP
180060
180060
1C0060
1E0060
1F0060
1B8060
198060
18C060
186060
FFFFF8
FFFFFC
181860
181C60
180C60
180660
180360
1803E0
1801E0
1800E0
180060
180060
ENDCHAR
STARTCHAR char8359
ENCODING 8359
SWIDTH 26 0
DWIDTH 18 0
BBX 17 21 1 0
BITMAP
3FE000
3FF000
303800
300C00
300C00
300600
FFFF80
FFFF80
300E00
300C00
301C00
3FF800
3FE000
300000
300000
300000
300000
300000
300000
300000
300000
ENDCHAR
STARTCHAR char8361
ENCODING 8361
SWIDTH 15 0
DWIDTH 25 0
BBX 21 21 2 0
BITMAP
C00018
C07018
C07018
C07030
607030
60D830
60D830
60D830
30D860
308860
FFFFF8
FFFFF8
198CC0
1904C0
1B06C0
1B06C0
0F0780
0E0380
0E0380
0E0380
060300
ENDCHAR
STARTCHAR char8363
ENCODING 8363
SWIDTH 23 0
DWIDTH 17 0
BBX 15 21 1 0
BITMAP
000C
03FE
03FE
000C
0F8C
1FEC
387C
703C
601C
C00C
C00C
C00C
C018
6018
7038
3870
1FE0
0780
0000
7FFC
7FFC
ENDCHAR
STARTCHAR char8364
ENCODING 8364
SWIDTH 5 0
DWIDTH 22 0
BBX 20 21 1 0
BITMAP
003F00
01FFC0
03C0F0
070020
0E0000
0C0000
180000
FFFF00
FFFF00
180000
180000
FFFC00
FFFE00
180000
1C0000
0C0000
060000
070030
03C0F0
00FFC0
003F00
ENDCHAR
STARTCHAR char8365
ENCODING 8365
SWIDTH 26 0
DWIDTH 18 0
BBX 16 21 0 0
BITMAP
1803
1807
180E
181C
1838
1870
18E0
19C0
7BFE
FFFF
1FC0
1CC0
1860
1870
1838
1818
181C
180E
1806
1803
1803
ENDCHAR
STARTCHAR char8366
ENCODING 8366
SWIDTH 23 0
DWIDTH 17 0
BBX 17 21 0 0
BITMAP
FFFF80
7FFF80
00C000
00C000
00C000
00C000
00CC00
00FC00
07F000
1FC000
18C000
00CC00
00FC00
0FE000
1FC000
10C000
00C000
00C000
00C000
00C000
00C000
ENDCHAR
STARTCHAR char8369
ENCODING 8369
SWIDTH 26 0
DWIDTH 18 0
BBX 17 21 1 0
BITMAP
3FE000
3FF800
301C00
300C00
FFFF80
FFFF80
300600
FFFF80
FFFF80
300C00
303C00
3FF800
3FE000
300000
300000
300000
300000
300000
300000
300000
300000
ENDCHAR
STARTCHAR char8370
ENCODING 8370
SWIDTH 2 0
DWIDTH 21 0
BBX 17 28 2 -3
BITMAP
004000
006000
006000
006000
01FC00
07FF00
1E0780
380100
700000
600000
E00000
C00000
C00000
C00000
C03F80
C03F80
C00180
C00180
E00180
600180
700180
380180
1E0780
0FFF00
01FC00
006000
006000
006000
ENDCHAR
STARTCHAR char8372
ENCODING 8372
SWIDTH 29 0
DWIDTH 19 0
BBX 15 21 2 0
BITMAP
07E0
1FF0
3838
601C
400C
000C
000C
0018
FFFE
FFFE
0000
FFFE
FFFE
7000
6000
6000
6006
700C
381C
1FF8
07E0
ENDCHAR
STARTCHAR char8373
ENCODING 8373
SWIDTH 2 0
DWIDTH 21 0
BBX 17 28 2 -3
BITMAP
004000
006000
006000
006000
01FC00
07FF00
1E0780
380100
700000
600000
E00000
C00000
C00000
C00000
C00000
C00000
C00000
C00000
E00000
600000
700000
380180
1E0780
0FFF00
03FC00
006000
006000
006000
ENDCHAR
STARTCHAR char8376
ENCODING 8376
SWIDTH 23 0
DWIDTH 17 0
BBX 17 21 0 0
BITMAP
FFFF80
7FFF80
000000
000000
FFFF80
7FFF80
00C000
00C000
00C000
00C000
00C000
00C000
00C000
00C000
00C000
00C000
00C000
00C000
00C000
00C000
00C000
ENDCHAR
STARTCHAR char8377
ENCODING 8377
SWIDTH 13 0
DWIDTH 14 0
BBX 13 21 1 0
BITMAP
FFF0
FFF8
0380
01C0
00C0
FFF0
FFF8
00C0
01C0
0380
FF00
FC00
0C00
0600
0700
0300
0180
01C0
00C0
00E0
0060
ENDCHAR
STARTCHAR char8378
ENCODING 8378
SWIDTH 16 0
DWIDTH 15 0
BBX 14 21 1 0
BITMAP
1000
3800
3800
39C0
3F80
3E00
F8C0
FBC0
3F00
7C00
F800
F800
3800
380C
381C
3818
3818
3830
3870
3FE0
1F80
ENDCHAR
STARTCHAR char8380
ENCODING 8380
SWIDTH 2 0
DWIDTH 21 0
BBX 16 21 3 0
BITMAP
0100
0180
03C0
1FF0
39BC
718E
E186
C186
C187
C183
C183
C183
C183
C183
C183
C183
C183
C183
C103
C003
C002
ENDCHAR
STARTCHAR char8381
ENCODING 8381
SWIDTH 23 0
DWIDTH 17 0
BBX 16 21 0 0
BITMAP
1FF0
1FFC
180E
1806
1807
1803
1803
1803
1807
1806
181E
FFFC
FFF0
1800
1800
FFC0
FFC0
1800
1800
1800
1800
ENDCHAR
STARTCHAR char8453
ENCODING 8453
SWIDTH 15 0
DWIDTH 25 0
BBX 24 21 0 0
BITMAP
0F0030
3F8070
708060
6000C0
4001C0
C00180
400300
600700
318600
1F8C00
041C10
0018FC
0031EE
007383
006303
00C301
01C301
018303
030187
0600FE
060078
ENDCHAR
STARTCHAR char8467
ENCODING 8467
SWIDTH 33 0
DWIDTH 10 0
BBX 9 21 1 0
BITMAP
0E00
1F00
3B00
3380
3300
3700
3600
3E00
3C00
3800
3800
3000
7000
7000
F000
F000
3000
3000
3200
1F00
1E00
ENDCHAR
STARTCHAR char8470
ENCODING 8470
SWIDTH 8 0
DWIDTH 33 0
BBX 29 21 3 0
BITMAP
C00303C0
C0030FF0
E0031C30
F0031818
F8031818
D8031818
CC031818
CE031C30
C7030FF0
C38303C0
C1830000
C0C30000
C0E31FF8
C0731FF8
C0330000
C01B0000
C01F0000
C00F0000
C0070000
C0030000
C0030000
ENDCHAR
STARTCHAR char8482
ENCODING 8482
SWIDTH 33 0
DWIDTH 20 0
BBX 19 9 0 12
BITMAP
FF6060
187060
1870E0
1878A0
1869A0
186D20
186720
186620
082020
ENDCHAR
STARTCHAR char8486
ENCODING 8486
SWIDTH 12 0
DWIDTH 24 0
BBX 20 21 2 0
BITMAP
01F800
07FE00
1E0780
3801C0
3000E0
600060
E00070
C00030
C00030
C00030
C00030
C00030
C00030
C00030
C00030
E00070
600060
3000E0
1801C0
FF0FF0
FF0FF0
ENDCHAR
STARTCHAR char8494
ENCODING 8494
SWIDTH 23 0
DWIDTH 17 0
BBX 15 15 1 0
BITMAP
0180
0FE0
3FF0
7038
701C
F01C
F01E
FFFE
FFFC
F000
7000
7010
3870
1FF0
07C0
ENDCHAR
STARTCHAR char8539
ENCODING 8539
SWIDTH 2 0
DWIDTH 21 0
BBX 19 21 1 0
BITMAP
3000C0
F801C0
D80180
180300
180700
180600
180C00
181C00
181800
183000
103780
006FC0
00CCC0
00CCC0
018780
030FC0
031860
061860
0C1860
0C0FC0
180780
ENDCHAR
STARTCHAR char8540
ENCODING 8540
SWIDTH 5 0
DWIDTH 22 0
BBX 20 21 1 0
BITMAP
3C0180
FE0180
C60300
1C0300
1C0600
060C00
C20C00
C61800
7E3000
3C3000
0063C0
00C7E0
00C660
018660
0303C0
0307E0
060C20
0C0C30
0C0C70
1807E0
1003C0
ENDCHAR
STARTCHAR char8541
ENCODING 8541
SWIDTH 5 0
DWIDTH 22 0
BBX 18 21 1 0
BITMAP
7E0100
7E0300
600600
7C0600
7E0C00
061800
C21800
C63000
7E7000
3C6000
00C780
01CFC0
0198C0
0318C0
030F80
060F80
0C18C0
0C1840
1818C0
301FC0
300780
ENDCHAR
STARTCHAR char8542
ENCODING 8542
SWIDTH 33 0
DWIDTH 20 0
BBX 18 21 1 0
BITMAP
FE0300
FE0300
040600
0C0C00
0C0C00
181800
183000
303000
306000
30E000
60CF00
019F80
0398C0
031880
060F80
060F80
0C18C0
1830C0
1818C0
301FC0
200F00
ENDCHAR
STARTCHAR char8592
ENCODING 8592
SWIDTH 15 0
DWIDTH 25 0
BBX 23 11 1 2
BITMAP
040000
0C0000
1C0000
380000
700000
FFFFFE
FFFFFE
700000
380000
1C0000
0C0000
ENDCHAR
STARTCHAR char8593
ENCODING 8593
SWIDTH 9 0
DWIDTH 13 0
BBX 10 23 1 -4
BITMAP
0C00
1E00
3F00
7F80
EDC0
CCC0
0C00
0C00
0C00
0C00
0C00
0C00
0C00
0C00
0C00
0C00
0C00
0C00
0C00
0C00
0C00
0C00
0C00
ENDCHAR
STARTCHAR char8594
ENCODING 8594
SWIDTH 15 0
DWIDTH 25 0
BBX 23 11 1 2
BITMAP
000040
000060
000070
000038
00001C
FFFFFE
FFFFFE
00001C
000038
000070
000060
ENDCHAR
STARTCHAR char8595
ENCODING 8595
SWIDTH 9 0
DWIDTH 13 0
BBX 10 23 1 -4
BITMAP
0C00
0C00
0C00
0C00
0C00
0C00
0C00
0C00
0C00
0C00
0C00
0C00
0C00
0C00
0C00
0C00
0C00
CCC0
EDC0
7F80
3F00
1E00
0C00
ENDCHAR
STARTCHAR char8596
ENCODING 8596
SWIDTH 15 0
DWIDTH 25 0
BBX 23 11 1 2
BITMAP
040040
0C0060
1C0070
380038
70001C
FFFFFE
FFFFFE
70001C
380038
1C0070
0C0060
ENDCHAR
STARTCHAR char8597
ENCODING 8597
SWIDTH 9 0
DWIDTH 13 0
BBX 10 23 1 -4
BITMAP
0C00
1E00
3F00
7F80
EDC0
CCC0
0C00
0C00
0C00
0C00
0C00
0C00
0C00
0C00
0C00
0C00
0C00
CCC0
EDC0
7F80
3F00
1E00
0C00
ENDCHAR
STARTCHAR char8616
ENCODING 8616
SWIDTH 9 0
DWIDTH 13 0
BBX 10 23 1 -4
BITMAP
0C00
1E00
3F00
7F80
EDC0
CCC0
0C00
0C00
0C00
0C00
0C00
0C00
0C00
0C00
CCC0
EDC0
7F80
3F00
1E00
0C00
0000
FFC0
FFC0
ENDCHAR
STARTCHAR char8706
ENCODING 8706
SWIDTH 23 0
DWIDTH 17 0
BBX 15 21 1 0
BITMAP
3F00
7FC0
20F0
0070
0018
001C
038C
1FEC
3EFE
703E
601E
E00E
C00E
C006
C00E
C00C
600C
701C
3878
1FF0
07C0
ENDCHAR
STARTCHAR char8710
ENCODING 8710
SWIDTH 29 0
DWIDTH 19 0
BBX 17 21 1 0
BITMAP
008000
01C000
01C000
03E000
036000
076000
067000
063000
0E3800
0C1800
1C1C00
180C00
180C00
300E00
300600
700700
600300
E00300
C00180
FFFF80
FFFF80
ENDCHAR
STARTCHAR char8719
ENCODING 8719
SWIDTH 29 0
DWIDTH 19 0
BBX 17 27 1 -6
BITMAP
FFFF80
FFFF80
C00180
C00180
C00180
C00180
C00180
C00180
C00180
C00180
C00180
C00180
C00180
C00180
C00180
C00180
C00180
C00180
C00180
C00180
C00180
C00180
C00180
C00180
C00180
C00180
C00180
ENDCHAR
STARTCHAR char8721
ENCODING 8721
SWIDTH 29 0
DWIDTH 19 0
BBX 17 27 1 -6
BITMAP
FFFF80
FFFF80
600000
300000
380000
1C0000
0E0000
070000
038000
018000
01C000
00E000
007000
003800
003000
006000
00E000
01C000
038000
070000
0E0000
0C0000
1C0000
380000
700000
FFFF80
FFFF80
ENDCHAR
STARTCHAR char8722
ENCODING 8722
SWIDTH 16 0
DWIDTH 15 0
BBX 13 2 1 8
BITMAP
FFF8
7FF0
ENDCHAR
STARTCHAR char8725
ENCODING 8725
SWIDTH 9 0
DWIDTH 13 0
BBX 10 23 1 -2
BITMAP
0040
00C0
00C0
01C0
0180
0180
0300
0300
0700
0600
0600
0E00
0C00
1C00
1800
1800
3800
3000
7000
6000
6000
E000
C000
ENDCHAR
STARTCHAR char8729
ENCODING 8729
SWIDTH 26 0
DWIDTH 8 0
BBX 6 6 1 6
BITMAP
10
78
FC
FC
7C
78
ENDCHAR
STARTCHAR char8730
ENCODING 8730
SWIDTH 2 0
DWIDTH 21 0
BBX 19 23 1 0
BITMAP
0001E0
0003E0
000300
000700
000600
000E00
000C00
001C00
001800
003800
003000
007000
006000
C0E000
E0C000
61C000
718000
338000
3B0000
1F0000
1E0000
0E0000
0C0000
ENDCHAR
STARTCHAR char8734
ENCODING 8734
SWIDTH 2 0
DWIDTH 21 0
BBX 19 10 1 3
BITMAP
1F1F80
7FBFC0
61F0C0
C0E060
C06060
C0E060
C0E060
61F0C0
7FBFC0
1F1F80
ENDCHAR
STARTCHAR char8735
ENCODING 8735
SWIDTH 29 0
DWIDTH 19 0
BBX 17 17 1 0
BITMAP
400000
C00000
C00000
C00000
C00000
C00000
C00000
C00000
C00000
C00000
C00000
C00000
C00000
C00000
C00000
FFFF80
FFFF80
ENDCHAR
STARTCHAR char8745
ENCODING 8745
SWIDTH 5 0
DWIDTH 22 0
BBX 16 21 3 0
BITMAP
0FF0
3FF8
781E
6006
C007
C003
C003
C003
C003
C003
C003
C003
C003
C003
C003
C003
C003
C003
C003
C003
C003
ENDCHAR
STARTCHAR char8747
ENCODING 8747
SWIDTH 16 0
DWIDTH 15 0
BBX 12 27 1 -3
BITMAP
00E0
01F0
03B0
0310
0300
0300
0300
0300
0300
0300
0300
0700
0600
0600
0600
0600
0600
0600
0600
0600
0600
0E00
0C00
CC00
CC00
FC00
3800
ENDCHAR
STARTCHAR char8776
ENCODING 8776
SWIDTH 9 0
DWIDTH 13 0
BBX 11 8 1 6
BITMAP
3C40
FFE0
C7C0
0000
0000
3C40
FFE0
C7C0
ENDCHAR
STARTCHAR char8800
ENCODING 8800
SWIDTH 13 0
DWIDTH 14 0
BBX 11 19 1 0
BITMAP
0080
0180
0180
0180
0300
7FE0
FFE0
7FE0
0600
0600
0E00
0C00
FFE0
FFE0
1800
1800
1800
3000
3000
ENDCHAR
STARTCHAR char8801
ENCODING 8801
SWIDTH 13 0
DWIDTH 14 0
BBX 11 13 1 3
BITMAP
7FE0
FFE0
0000
0000
0000
0000
FFE0
FFE0
0000
0000
0000
FFE0
FFE0
ENDCHAR
STARTCHAR char8804
ENCODING 8804
SWIDTH 16 0
DWIDTH 15 0
BBX 13 18 1 1
BITMAP
0030
0078
01E0
03C0
0F00
3C00
7800
E000
7800
3C00
0F00
03C0
01E0
0078
0030
0000
FFF8
7FF0
ENDCHAR
STARTCHAR char8805
ENCODING 8805
SWIDTH 16 0
DWIDTH 15 0
BBX 13 18 1 1
BITMAP
C000
F000
3C00
1E00
0780
03C0
00F0
0038
00F0
03C0
0780
1E00
7C00
F000
C000
0000
FFF8
7FF0
ENDCHAR
STARTCHAR char64257
ENCODING 64257
SWIDTH 19 0
DWIDTH 16 0
BBX 13 21 1 0
BITMAP
03E0
0FF8
1C38
1800
3000
3000
3010
FF38
FF38
3038
3038
3038
3038
3038
3038
3038
3038
3038
3038
3038
3010
ENDCHAR
STARTCHAR char64258
ENCODING 64258
SWIDTH 23 0
DWIDTH 17 0
BBX 16 21 1 0
BITMAP
07F0
0FF8
1C38
1838
3038
3038
3038
FF38
FF38
3038
3038
3038
3038
3038
3038
3038
3038
3018
3018
301F
300F
ENDCHAR
ENDFONT
